SplineFontDB: 3.2
FontName: Nunito-Bold
FullName: Nunito Bold
FamilyName: Nunito
Weight: Bold
Copyright: Copyright 2014 The Nunito Project Authors (https://github.com/googlefonts/nunito)
Version: 3.602-ef
ItalicAngle: 0
UnderlinePosition: -94
UnderlineWidth: 28
Ascent: 800
Descent: 200
InvalidEm: 0
sfntRevision: 0x00039a1d
LayerCount: 2
Layer: 0 1 "Back" 1
Layer: 1 1 "Fore" 0
XUID: [1021 965 1680887925 16164248]
StyleMap: 0x0020
FSType: 0
OS2Version: 4
OS2_WeightWidthSlopeOnly: 0
OS2_UseTypoMetrics: 1
CreationTime: 1592915285
ModificationTime: 1719075109
PfmFamily: 81
TTFWeight: 700
TTFWidth: 5
LineGap: 0
VLineGap: 0
Panose: 0 0 0 0 0 0 0 0 0 0
OS2TypoAscent: 1011
OS2TypoAOffset: 0
OS2TypoDescent: -353
OS2TypoDOffset: 0
OS2TypoLinegap: 0
OS2WinAscent: 1077
OS2WinAOffset: 0
OS2WinDescent: 300
OS2WinDOffset: 0
HheadAscent: 1011
HheadAOffset: 0
HheadDescent: -353
HheadDOffset: 0
OS2SubXSize: 650
OS2SubYSize: 600
OS2SubXOff: 0
OS2SubYOff: 75
OS2SupXSize: 650
OS2SupYSize: 600
OS2SupXOff: 0
OS2SupYOff: 350
OS2StrikeYSize: 28
OS2StrikeYPos: 290
OS2CapHeight: 705
OS2XHeight: 484
OS2Vendor: 'NONE'
OS2CodePages: 20000197.00000000
OS2UnicodeRanges: a00002ff.5000204b.00000000.00000000
Lookup: 1 0 0 "'aalt' Access All Alternates lookup 0" { "'aalt' Access All Alternates lookup 0 subtable"  } ['aalt' ('DFLT' <'dflt' > 'cyrl' <'BSH ' 'CHU ' 'dflt' > 'latn' <'AZE ' 'CAT ' 'CRT ' 'KAZ ' 'MOL ' 'NLD ' 'ROM ' 'TAT ' 'TRK ' 'dflt' > ) ]
Lookup: 3 0 0 "'aalt' Access All Alternates lookup 1" { "'aalt' Access All Alternates lookup 1 subtable"  } ['aalt' ('DFLT' <'dflt' > 'cyrl' <'BSH ' 'CHU ' 'dflt' > 'latn' <'AZE ' 'CAT ' 'CRT ' 'KAZ ' 'MOL ' 'NLD ' 'ROM ' 'TAT ' 'TRK ' 'dflt' > ) ]

StartChar: .notdef
Encoding: 65536 -1 0
Width: 500
GlyphClass: 1
Flags: W
LayerCount: 2
Fore
SplineSet
50 -180 m 1,0,-1
 50 705 l 1,1,-1
 450 705 l 1,2,-1
 450 -180 l 1,3,-1
 50 -180 l 1,0,-1
100 -130 m 1,4,-1
 400 -130 l 1,5,-1
 400 655 l 1,6,-1
 100 655 l 1,7,-1
 100 -130 l 1,4,-1
EndSplineSet
EndChar

StartChar: A
Encoding: 65 65 1
Width: 744
GlyphClass: 2
Flags: W
AnchorPoint: "Anchor-3" 704 0 basechar 0
AnchorPoint: "Anchor-2" 373 0 basechar 0
AnchorPoint: "Anchor-0" 373 705 basechar 0
LayerCount: 2
Fore
SplineSet
84 -8 m 0,0,1
 60 -8 60 -8 45.5 3 c 128,-1,2
 31 14 31 14 28 32.5 c 128,-1,3
 25 51 25 51 35 74 c 2,4,-1
 299 659 l 2,5,6
 312 688 312 688 330.5 700.5 c 128,-1,7
 349 713 349 713 373 713 c 0,8,9
 396 713 396 713 414.5 700.5 c 128,-1,10
 433 688 433 688 446 659 c 2,11,-1
 711 74 l 2,12,13
 722 51 722 51 719 32 c 128,-1,14
 716 13 716 13 702 2.5 c 128,-1,15
 688 -8 688 -8 665 -8 c 0,16,17
 637 -8 637 -8 621.5 5.5 c 128,-1,18
 606 19 606 19 594 47 c 2,19,-1
 529 198 l 1,20,-1
 583 163 l 1,21,-1
 161 163 l 1,22,-1
 215 198 l 1,23,-1
 151 47 l 2,24,25
 138 18 138 18 124 5 c 128,-1,26
 110 -8 110 -8 84 -8 c 0,0,1
371 566 m 1,27,-1
 231 233 l 1,28,-1
 205 265 l 1,29,-1
 539 265 l 1,30,-1
 514 233 l 1,31,-1
 373 566 l 1,32,-1
 371 566 l 1,27,-1
EndSplineSet
Substitution2: "Single Substitution lookup 29 subtable" ordfeminine
Substitution2: "'aalt' Access All Alternates lookup 0 subtable" ordfeminine
EndChar

StartChar: Aogonek
Encoding: 260 260 24
Width: 744
GlyphClass: 1
Flags: W
LayerCount: 2
Fore
SplineSet
683 -195 m 0,0,1
 628 -195 628 -195 596.5 -167 c 128,-1,2
 565 -139 565 -139 565 -91 c 0,3,4
 565 -59 565 -59 580.5 -31.5 c 128,-1,5
 596 -4 596 -4 624 17 c 1,6,-1
 625 3 l 1,7,8
 615 11 615 11 608 21.5 c 128,-1,9
 601 32 601 32 594 47 c 2,10,-1
 529 198 l 1,11,-1
 583 163 l 1,12,-1
 161 163 l 1,13,-1
 215 198 l 1,14,-1
 151 47 l 2,15,16
 138 18 138 18 124 5 c 128,-1,17
 110 -8 110 -8 84 -8 c 0,18,19
 60 -8 60 -8 45.5 3 c 128,-1,20
 31 14 31 14 27.5 32.5 c 128,-1,21
 24 51 24 51 34 74 c 2,22,-1
 299 659 l 2,23,24
 312 688 312 688 330.5 700.5 c 128,-1,25
 349 713 349 713 373 713 c 0,26,27
 396 713 396 713 414.5 700.5 c 128,-1,28
 433 688 433 688 446 659 c 2,29,-1
 711 74 l 2,30,31
 722 49 722 49 718.5 28.5 c 128,-1,32
 715 8 715 8 698 0 c 0,33,34
 685 -7 685 -7 672.5 -18.5 c 128,-1,35
 660 -30 660 -30 652 -45 c 128,-1,36
 644 -60 644 -60 644 -77 c 0,37,38
 644 -102 644 -102 660 -115 c 128,-1,39
 676 -128 676 -128 700 -128 c 0,40,41
 707 -128 707 -128 714.5 -127 c 128,-1,42
 722 -126 722 -126 730 -124 c 0,43,44
 748 -119 748 -119 758 -125.5 c 128,-1,45
 768 -132 768 -132 770.5 -144.5 c 128,-1,46
 773 -157 773 -157 767 -168.5 c 128,-1,47
 761 -180 761 -180 746 -186 c 0,48,49
 730 -192 730 -192 713.5 -193.5 c 128,-1,50
 697 -195 697 -195 683 -195 c 0,0,1
371 566 m 1,51,-1
 231 233 l 1,52,-1
 205 265 l 1,53,-1
 539 265 l 1,54,-1
 514 233 l 1,55,-1
 373 566 l 1,56,-1
 371 566 l 1,51,-1
EndSplineSet
EndChar

StartChar: AE
Encoding: 198 198 28
Width: 993
GlyphClass: 2
Flags: W
AnchorPoint: "Anchor-2" 488 0 basechar 0
AnchorPoint: "Anchor-0" 488 705 basechar 0
LayerCount: 2
Fore
SplineSet
54 -8 m 0,0,1
 26 -8 26 -8 11.5 3.5 c 128,-1,2
 -3 15 -3 15 -3 33.5 c 128,-1,3
 -3 52 -3 52 9 72 c 2,4,-1
 380 670 l 2,5,6
 391 689 391 689 406.5 697 c 128,-1,7
 422 705 422 705 444 705 c 2,8,-1
 896 705 l 2,9,10
 922 705 922 705 935.5 692 c 128,-1,11
 949 679 949 679 949 655 c 0,12,13
 949 630 949 630 935.5 616.5 c 128,-1,14
 922 603 922 603 896 603 c 2,15,-1
 503 603 l 1,16,-1
 533 637 l 1,17,-1
 590 374 l 1,18,-1
 547 409 l 1,19,-1
 875 409 l 2,20,21
 901 409 901 409 914.5 396 c 128,-1,22
 928 383 928 383 928 358 c 256,23,24
 928 333 928 333 914.5 320 c 128,-1,25
 901 307 901 307 875 307 c 2,26,-1
 569 307 l 1,27,-1
 597 342 l 1,28,-1
 657 65 l 1,29,-1
 611 102 l 1,30,-1
 896 102 l 2,31,32
 922 102 922 102 935.5 89 c 128,-1,33
 949 76 949 76 949 51 c 256,34,35
 949 26 949 26 935.5 13 c 128,-1,36
 922 0 922 0 896 0 c 2,37,-1
 604 0 l 2,38,39
 557 0 557 0 546 47 c 2,40,-1
 513 201 l 1,41,-1
 555 163 l 1,42,-1
 169 163 l 1,43,-1
 217 197 l 1,44,-1
 119 32 l 2,45,46
 107 13 107 13 92.5 2.5 c 128,-1,47
 78 -8 78 -8 54 -8 c 0,0,1
433 562 m 1,48,-1
 238 234 l 1,49,-1
 229 265 l 1,50,-1
 531 265 l 1,51,-1
 507 230 l 1,52,-1
 435 562 l 1,53,-1
 433 562 l 1,48,-1
EndSplineSet
EndChar

StartChar: B
Encoding: 66 66 30
Width: 688
GlyphClass: 2
Flags: W
AnchorPoint: "Anchor-2" 345 0 basechar 0
AnchorPoint: "Anchor-0" 345 705 basechar 0
LayerCount: 2
Fore
SplineSet
145 0 m 2,0,1
 112 0 112 0 94.5 17.5 c 128,-1,2
 77 35 77 35 77 68 c 2,3,-1
 77 637 l 2,4,5
 77 670 77 670 94.5 687.5 c 128,-1,6
 112 705 112 705 145 705 c 2,7,-1
 385 705 l 2,8,9
 459 705 459 705 511 683 c 128,-1,10
 563 661 563 661 590.5 620 c 128,-1,11
 618 579 618 579 618 522 c 0,12,13
 618 458 618 458 581 414 c 128,-1,14
 544 370 544 370 480 355 c 1,15,-1
 480 370 l 1,16,17
 554 359 554 359 595 314 c 128,-1,18
 636 269 636 269 636 197 c 0,19,20
 636 103 636 103 572.5 51.5 c 128,-1,21
 509 0 509 0 396 0 c 2,22,-1
 145 0 l 2,0,1
200 97 m 1,23,-1
 380 97 l 2,24,25
 448 97 448 97 480 123.5 c 128,-1,26
 512 150 512 150 512 203 c 0,27,28
 512 257 512 257 480 283 c 128,-1,29
 448 309 448 309 380 309 c 2,30,-1
 200 309 l 1,31,-1
 200 97 l 1,23,-1
200 406 m 1,32,-1
 363 406 l 2,33,34
 429 406 429 406 461.5 431.5 c 128,-1,35
 494 457 494 457 494 507 c 256,36,37
 494 557 494 557 461.5 582.5 c 128,-1,38
 429 608 429 608 363 608 c 2,39,-1
 200 608 l 1,40,-1
 200 406 l 1,32,-1
EndSplineSet
EndChar

StartChar: uni0181
Encoding: 385 385 31
Width: 838
GlyphClass: 1
Flags: W
LayerCount: 2
Fore
SplineSet
295 0 m 2,0,1
 262 0 262 0 244.5 17.5 c 128,-1,2
 227 35 227 35 227 68 c 2,3,-1
 227 614 l 1,4,-1
 201 614 l 2,5,6
 153 614 153 614 129 591.5 c 128,-1,7
 105 569 105 569 105 522 c 2,8,-1
 105 506 l 2,9,10
 105 496 105 496 99.5 485 c 128,-1,11
 94 474 94 474 82.5 467 c 128,-1,12
 71 460 71 460 53 460 c 256,13,14
 35 460 35 460 23.5 467.5 c 128,-1,15
 12 475 12 475 6 486.5 c 128,-1,16
 0 498 0 498 0 509 c 2,17,-1
 0 527 l 2,18,19
 0 613 0 613 52.5 659 c 128,-1,20
 105 705 105 705 208 705 c 2,21,-1
 535 705 l 2,22,23
 609 705 609 705 661 683 c 128,-1,24
 713 661 713 661 740.5 620 c 128,-1,25
 768 579 768 579 768 522 c 0,26,27
 768 458 768 458 731 414 c 128,-1,28
 694 370 694 370 630 355 c 1,29,-1
 630 370 l 1,30,31
 704 359 704 359 745 314 c 128,-1,32
 786 269 786 269 786 197 c 0,33,34
 786 103 786 103 722.5 51.5 c 128,-1,35
 659 0 659 0 546 0 c 2,36,-1
 295 0 l 2,0,1
350 97 m 1,37,-1
 530 97 l 2,38,39
 598 97 598 97 630 123.5 c 128,-1,40
 662 150 662 150 662 203 c 0,41,42
 662 257 662 257 630 283 c 128,-1,43
 598 309 598 309 530 309 c 2,44,-1
 350 309 l 1,45,-1
 350 97 l 1,37,-1
350 406 m 1,46,-1
 513 406 l 2,47,48
 579 406 579 406 611.5 431.5 c 128,-1,49
 644 457 644 457 644 507 c 256,50,51
 644 557 644 557 611.5 582.5 c 128,-1,52
 579 608 579 608 513 608 c 2,53,-1
 350 608 l 1,54,-1
 350 406 l 1,46,-1
EndSplineSet
EndChar

StartChar: C
Encoding: 67 67 32
Width: 680
GlyphClass: 2
Flags: W
AnchorPoint: "Anchor-2" 391 0 basechar 0
AnchorPoint: "Anchor-0" 392 705 basechar 0
LayerCount: 2
Fore
SplineSet
405 -10 m 0,0,1
 295 -10 295 -10 216.5 34.5 c 128,-1,2
 138 79 138 79 96 160.5 c 128,-1,3
 54 242 54 242 54 353 c 0,4,5
 54 436 54 436 78 502.5 c 128,-1,6
 102 569 102 569 147 616.5 c 128,-1,7
 192 664 192 664 257.5 689.5 c 128,-1,8
 323 715 323 715 405 715 c 0,9,10
 460 715 460 715 513 701 c 128,-1,11
 566 687 566 687 606 661 c 0,12,13
 627 648 627 648 634 629.5 c 128,-1,14
 641 611 641 611 637 593.5 c 128,-1,15
 633 576 633 576 620.5 564 c 128,-1,16
 608 552 608 552 589.5 550.5 c 128,-1,17
 571 549 571 549 549 563 c 0,18,19
 518 583 518 583 482 592 c 128,-1,20
 446 601 446 601 409 601 c 0,21,22
 338 601 338 601 289 572 c 128,-1,23
 240 543 240 543 215 488 c 128,-1,24
 190 433 190 433 190 353 c 0,25,26
 190 274 190 274 215 218 c 128,-1,27
 240 162 240 162 289 133 c 128,-1,28
 338 104 338 104 409 104 c 0,29,30
 447 104 447 104 484 113.5 c 128,-1,31
 521 123 521 123 554 143 c 0,32,33
 576 156 576 156 593.5 154.5 c 128,-1,34
 611 153 611 153 623 142 c 128,-1,35
 635 131 635 131 639 114.5 c 128,-1,36
 643 98 643 98 637 80.5 c 128,-1,37
 631 63 631 63 613 50 c 0,38,39
 573 21 573 21 517.5 5.5 c 128,-1,40
 462 -10 462 -10 405 -10 c 0,0,1
EndSplineSet
EndChar

StartChar: D
Encoding: 68 68 39
Width: 762
GlyphClass: 2
Flags: W
AnchorPoint: "Anchor-5" 194 358 basechar 0
AnchorPoint: "Anchor-2" 379 0 basechar 0
AnchorPoint: "Anchor-0" 379 705 basechar 0
LayerCount: 2
Fore
SplineSet
145 0 m 2,0,1
 112 0 112 0 94.5 17.5 c 128,-1,2
 77 35 77 35 77 68 c 2,3,-1
 77 637 l 2,4,5
 77 670 77 670 94.5 687.5 c 128,-1,6
 112 705 112 705 145 705 c 2,7,-1
 339 705 l 2,8,9
 516 705 516 705 612.5 614 c 128,-1,10
 709 523 709 523 709 353 c 0,11,12
 709 268 709 268 684.5 202.5 c 128,-1,13
 660 137 660 137 612.5 92 c 128,-1,14
 565 47 565 47 496.5 23.5 c 128,-1,15
 428 0 428 0 339 0 c 2,16,-1
 145 0 l 2,0,1
205 106 m 1,17,-1
 331 106 l 2,18,19
 393 106 393 106 438.5 121.5 c 128,-1,20
 484 137 484 137 514.5 167.5 c 128,-1,21
 545 198 545 198 560 244.5 c 128,-1,22
 575 291 575 291 575 353 c 0,23,24
 575 477 575 477 514 538 c 128,-1,25
 453 599 453 599 331 599 c 2,26,-1
 205 599 l 1,27,-1
 205 106 l 1,17,-1
EndSplineSet
EndChar

StartChar: uni018A
Encoding: 394 394 45
Width: 913
GlyphClass: 1
Flags: W
LayerCount: 2
Fore
SplineSet
295 0 m 2,0,1
 262 0 262 0 244.5 17.5 c 128,-1,2
 227 35 227 35 227 68 c 2,3,-1
 227 614 l 1,4,-1
 201 614 l 2,5,6
 153 614 153 614 129 591.5 c 128,-1,7
 105 569 105 569 105 522 c 2,8,-1
 105 506 l 2,9,10
 105 496 105 496 99.5 485 c 128,-1,11
 94 474 94 474 82.5 467 c 128,-1,12
 71 460 71 460 53 460 c 256,13,14
 35 460 35 460 23.5 467.5 c 128,-1,15
 12 475 12 475 6 486.5 c 128,-1,16
 0 498 0 498 0 509 c 2,17,-1
 0 527 l 2,18,19
 0 613 0 613 51.5 659 c 128,-1,20
 103 705 103 705 203 705 c 2,21,-1
 489 705 l 2,22,23
 666 705 666 705 762.5 614 c 128,-1,24
 859 523 859 523 859 353 c 0,25,26
 859 268 859 268 834.5 202.5 c 128,-1,27
 810 137 810 137 762.5 92 c 128,-1,28
 715 47 715 47 646.5 23.5 c 128,-1,29
 578 0 578 0 489 0 c 2,30,-1
 295 0 l 2,0,1
355 106 m 1,31,-1
 481 106 l 2,32,33
 543 106 543 106 588.5 121.5 c 128,-1,34
 634 137 634 137 664.5 167.5 c 128,-1,35
 695 198 695 198 710 244.5 c 128,-1,36
 725 291 725 291 725 353 c 0,37,38
 725 477 725 477 664 538 c 128,-1,39
 603 599 603 599 481 599 c 2,40,-1
 355 599 l 1,41,-1
 355 106 l 1,31,-1
EndSplineSet
EndChar

StartChar: E
Encoding: 69 69 48
Width: 597
GlyphClass: 2
Flags: W
AnchorPoint: "Anchor-3" 498 0 basechar 0
AnchorPoint: "Anchor-2" 328 0 basechar 0
AnchorPoint: "Anchor-0" 328 705 basechar 0
LayerCount: 2
Fore
SplineSet
145 0 m 2,0,1
 112 0 112 0 94.5 17.5 c 128,-1,2
 77 35 77 35 77 68 c 2,3,-1
 77 637 l 2,4,5
 77 670 77 670 94.5 687.5 c 128,-1,6
 112 705 112 705 145 705 c 2,7,-1
 502 705 l 2,8,9
 527 705 527 705 540.5 692 c 128,-1,10
 554 679 554 679 554 655 c 0,11,12
 554 630 554 630 540.5 616.5 c 128,-1,13
 527 603 527 603 502 603 c 2,14,-1
 200 603 l 1,15,-1
 200 409 l 1,16,-1
 480 409 l 2,17,18
 506 409 506 409 519 396 c 128,-1,19
 532 383 532 383 532 358 c 256,20,21
 532 333 532 333 519 320 c 128,-1,22
 506 307 506 307 480 307 c 2,23,-1
 200 307 l 1,24,-1
 200 102 l 1,25,-1
 502 102 l 2,26,27
 527 102 527 102 540.5 89 c 128,-1,28
 554 76 554 76 554 51 c 256,29,30
 554 26 554 26 540.5 13 c 128,-1,31
 527 0 527 0 502 0 c 2,32,-1
 145 0 l 2,0,1
EndSplineSet
EndChar

StartChar: uni018F
Encoding: 399 399 72
Width: 785
GlyphClass: 2
Flags: W
AnchorPoint: "Anchor-2" 393 0 basechar 0
AnchorPoint: "Anchor-0" 393 705 basechar 0
LayerCount: 2
Fore
SplineSet
400 -10 m 0,0,1
 315 -10 315 -10 250 17 c 128,-1,2
 185 44 185 44 141.5 93 c 128,-1,3
 98 142 98 142 76 210.5 c 128,-1,4
 54 279 54 279 54 361 c 0,5,6
 54 384 54 384 64.5 395 c 128,-1,7
 75 406 75 406 95 406 c 2,8,-1
 633 406 l 1,9,-1
 633 302 l 1,10,-1
 151 302 l 1,11,-1
 185 355 l 1,12,13
 185 270 185 270 208.5 212 c 128,-1,14
 232 154 232 154 278.5 125 c 128,-1,15
 325 96 325 96 394 96 c 0,16,17
 459 96 459 96 504.5 125.5 c 128,-1,18
 550 155 550 155 574 212 c 128,-1,19
 598 269 598 269 598 353 c 0,20,21
 598 435 598 435 570 491 c 128,-1,22
 542 547 542 547 488 576 c 128,-1,23
 434 605 434 605 355 605 c 0,24,25
 303 605 303 605 258.5 595 c 128,-1,26
 214 585 214 585 171 562 c 0,27,28
 149 551 149 551 131.5 553.5 c 128,-1,29
 114 556 114 556 103 568 c 128,-1,30
 92 580 92 580 89.5 596.5 c 128,-1,31
 87 613 87 613 93.5 629 c 128,-1,32
 100 645 100 645 119 656 c 0,33,34
 169 685 169 685 233.5 700 c 128,-1,35
 298 715 298 715 370 715 c 0,36,37
 480 715 480 715 561 671 c 128,-1,38
 642 627 642 627 687 546 c 128,-1,39
 732 465 732 465 732 352 c 0,40,41
 732 269 732 269 708 202.5 c 128,-1,42
 684 136 684 136 640 88.5 c 128,-1,43
 596 41 596 41 535 15.5 c 128,-1,44
 474 -10 474 -10 400 -10 c 0,0,1
EndSplineSet
EndChar

StartChar: F
Encoding: 70 70 73
Width: 562
GlyphClass: 2
Flags: W
AnchorPoint: "Anchor-2" 300 0 basechar 0
AnchorPoint: "Anchor-0" 303 705 basechar 0
LayerCount: 2
Fore
SplineSet
143 -8 m 0,0,1
 112 -8 112 -8 94.5 9.5 c 128,-1,2
 77 27 77 27 77 60 c 2,3,-1
 77 637 l 2,4,5
 77 670 77 670 94.5 687.5 c 128,-1,6
 112 705 112 705 145 705 c 2,7,-1
 494 705 l 2,8,9
 520 705 520 705 533 692 c 128,-1,10
 546 679 546 679 546 655 c 0,11,12
 546 630 546 630 533 616.5 c 128,-1,13
 520 603 520 603 494 603 c 2,14,-1
 205 603 l 1,15,-1
 205 404 l 1,16,-1
 473 404 l 2,17,18
 498 404 498 404 511.5 391 c 128,-1,19
 525 378 525 378 525 354 c 0,20,21
 525 329 525 329 511.5 315.5 c 128,-1,22
 498 302 498 302 473 302 c 2,23,-1
 205 302 l 1,24,-1
 205 60 l 2,25,26
 205 -8 205 -8 143 -8 c 0,0,1
EndSplineSet
EndChar

StartChar: G
Encoding: 71 71 74
Width: 736
GlyphClass: 2
Flags: W
AnchorPoint: "Anchor-2" 408 0 basechar 0
AnchorPoint: "Anchor-0" 401 705 basechar 0
LayerCount: 2
Fore
SplineSet
416 -10 m 0,0,1
 299 -10 299 -10 218.5 34 c 128,-1,2
 138 78 138 78 96 159 c 128,-1,3
 54 240 54 240 54 351 c 0,4,5
 54 435 54 435 78.5 502 c 128,-1,6
 103 569 103 569 149.5 616.5 c 128,-1,7
 196 664 196 664 263 689.5 c 128,-1,8
 330 715 330 715 415 715 c 0,9,10
 471 715 471 715 527.5 701.5 c 128,-1,11
 584 688 584 688 634 656 c 0,12,13
 651 645 651 645 656.5 629 c 128,-1,14
 662 613 662 613 658 596.5 c 128,-1,15
 654 580 654 580 643 568 c 128,-1,16
 632 556 632 556 615.5 553 c 128,-1,17
 599 550 599 550 579 561 c 0,18,19
 541 583 541 583 502 593 c 128,-1,20
 463 603 463 603 415 603 c 0,21,22
 341 603 341 603 290 573.5 c 128,-1,23
 239 544 239 544 213.5 488 c 128,-1,24
 188 432 188 432 188 351 c 0,25,26
 188 228 188 228 247 164 c 128,-1,27
 306 100 306 100 422 100 c 0,28,29
 462 100 462 100 503 108 c 128,-1,30
 544 116 544 116 583 130 c 1,31,-1
 558 73 l 1,32,-1
 558 286 l 1,33,-1
 448 286 l 2,34,35
 423 286 423 286 409.5 299 c 128,-1,36
 396 312 396 312 396 334 c 0,37,38
 396 357 396 357 409.5 369 c 128,-1,39
 423 381 423 381 448 381 c 2,40,-1
 613 381 l 2,41,42
 638 381 638 381 651.5 367.5 c 128,-1,43
 665 354 665 354 665 329 c 2,44,-1
 665 86 l 2,45,46
 665 64 665 64 656.5 49 c 128,-1,47
 648 34 648 34 629 27 c 0,48,49
 585 11 585 11 528 0.5 c 128,-1,50
 471 -10 471 -10 416 -10 c 0,0,1
EndSplineSet
EndChar

StartChar: H
Encoding: 72 72 81
Width: 773
GlyphClass: 2
Flags: W
AnchorPoint: "Anchor-5" 387 561 basechar 0
AnchorPoint: "Anchor-2" 387 0 basechar 0
AnchorPoint: "Anchor-0" 386 705 basechar 0
LayerCount: 2
Fore
SplineSet
141 -8 m 0,0,1
 110 -8 110 -8 93.5 9.5 c 128,-1,2
 77 27 77 27 77 58 c 2,3,-1
 77 647 l 2,4,5
 77 679 77 679 93.5 696 c 128,-1,6
 110 713 110 713 141 713 c 256,7,8
 172 713 172 713 188.5 696 c 128,-1,9
 205 679 205 679 205 647 c 2,10,-1
 205 411 l 1,11,-1
 568 411 l 1,12,-1
 568 647 l 2,13,14
 568 679 568 679 584.5 696 c 128,-1,15
 601 713 601 713 632 713 c 256,16,17
 663 713 663 713 679.5 696 c 128,-1,18
 696 679 696 679 696 647 c 2,19,-1
 696 58 l 2,20,21
 696 27 696 27 679.5 9.5 c 128,-1,22
 663 -8 663 -8 632 -8 c 256,23,24
 601 -8 601 -8 584.5 9.5 c 128,-1,25
 568 27 568 27 568 58 c 2,26,-1
 568 304 l 1,27,-1
 205 304 l 1,28,-1
 205 58 l 2,29,30
 205 27 205 27 189 9.5 c 128,-1,31
 173 -8 173 -8 141 -8 c 0,0,1
EndSplineSet
EndChar

StartChar: Hbar
Encoding: 294 294 82
Width: 817
GlyphClass: 1
Flags: W
LayerCount: 2
Fore
SplineSet
164 -8 m 0,0,1
 133 -8 133 -8 116 9.5 c 128,-1,2
 99 27 99 27 99 58 c 2,3,-1
 99 526 l 1,4,-1
 137 511 l 1,5,-1
 55 511 l 2,6,7
 6 511 6 511 6 558 c 0,8,9
 6 581 6 581 19 593 c 128,-1,10
 32 605 32 605 55 605 c 2,11,-1
 122 605 l 1,12,-1
 99 567 l 1,13,-1
 99 647 l 2,14,15
 99 679 99 679 116 696 c 128,-1,16
 133 713 133 713 164 713 c 256,17,18
 195 713 195 713 211.5 696 c 128,-1,19
 228 679 228 679 228 647 c 2,20,-1
 228 567 l 1,21,-1
 210 605 l 1,22,-1
 608 605 l 1,23,-1
 590 567 l 1,24,-1
 590 647 l 2,25,26
 590 679 590 679 607 696 c 128,-1,27
 624 713 624 713 655 713 c 256,28,29
 686 713 686 713 702.5 696 c 128,-1,30
 719 679 719 679 719 647 c 2,31,-1
 719 567 l 1,32,-1
 691 605 l 1,33,-1
 763 605 l 2,34,35
 812 605 812 605 812 558 c 0,36,37
 812 536 812 536 799 523.5 c 128,-1,38
 786 511 786 511 763 511 c 2,39,-1
 676 511 l 1,40,-1
 719 529 l 1,41,-1
 719 58 l 2,42,43
 719 27 719 27 702.5 9.5 c 128,-1,44
 686 -8 686 -8 655 -8 c 256,45,46
 624 -8 624 -8 607 9.5 c 128,-1,47
 590 27 590 27 590 58 c 2,48,-1
 590 294 l 1,49,-1
 228 294 l 1,50,-1
 228 58 l 2,51,52
 228 27 228 27 212 9.5 c 128,-1,53
 196 -8 196 -8 164 -8 c 0,0,1
228 401 m 1,54,-1
 590 401 l 1,55,-1
 590 511 l 1,56,-1
 228 511 l 1,57,-1
 228 401 l 1,54,-1
EndSplineSet
EndChar

StartChar: I
Encoding: 73 73 86
Width: 282
GlyphClass: 2
Flags: W
AnchorPoint: "Anchor-3" 178 0 basechar 0
AnchorPoint: "Anchor-2" 141 0 basechar 0
AnchorPoint: "Anchor-0" 141 705 basechar 0
LayerCount: 2
Fore
SplineSet
141 -8 m 0,0,1
 110 -8 110 -8 93.5 9.5 c 128,-1,2
 77 27 77 27 77 58 c 2,3,-1
 77 647 l 2,4,5
 77 679 77 679 93.5 696 c 128,-1,6
 110 713 110 713 141 713 c 256,7,8
 172 713 172 713 188.5 696 c 128,-1,9
 205 679 205 679 205 647 c 2,10,-1
 205 58 l 2,11,12
 205 27 205 27 189 9.5 c 128,-1,13
 173 -8 173 -8 141 -8 c 0,0,1
EndSplineSet
EndChar

StartChar: Iogonek
Encoding: 302 302 100
Width: 282
GlyphClass: 1
Flags: W
LayerCount: 2
Fore
SplineSet
157 -195 m 0,0,1
 102 -195 102 -195 70.5 -167 c 128,-1,2
 39 -139 39 -139 39 -91 c 0,3,4
 39 -61 39 -61 53.5 -34 c 128,-1,5
 68 -7 68 -7 94 14 c 1,6,-1
 94 9 l 1,7,8
 86 17 86 17 81.5 29.5 c 128,-1,9
 77 42 77 42 77 58 c 2,10,-1
 77 647 l 2,11,12
 77 679 77 679 93.5 696 c 128,-1,13
 110 713 110 713 141 713 c 256,14,15
 172 713 172 713 188.5 696 c 128,-1,16
 205 679 205 679 205 647 c 2,17,-1
 205 58 l 2,18,19
 205 36 205 36 196.5 20.5 c 128,-1,20
 188 5 188 5 175 -1 c 0,21,22
 152 -11 152 -11 135 -31.5 c 128,-1,23
 118 -52 118 -52 118 -77 c 256,24,25
 118 -102 118 -102 134 -115 c 128,-1,26
 150 -128 150 -128 174 -128 c 0,27,28
 181 -128 181 -128 188.5 -127 c 128,-1,29
 196 -126 196 -126 204 -124 c 0,30,31
 222 -119 222 -119 232 -125.5 c 128,-1,32
 242 -132 242 -132 244.5 -144.5 c 128,-1,33
 247 -157 247 -157 241 -168.5 c 128,-1,34
 235 -180 235 -180 220 -186 c 0,35,36
 204 -192 204 -192 187.5 -193.5 c 128,-1,37
 171 -195 171 -195 157 -195 c 0,0,1
EndSplineSet
EndChar

StartChar: J
Encoding: 74 74 102
Width: 354
GlyphClass: 2
Flags: W
AnchorPoint: "Anchor-2" 214 0 basechar 0
AnchorPoint: "Anchor-0" 213 705 basechar 0
LayerCount: 2
Fore
SplineSet
46 -7 m 2,0,1
 18 -8 18 -8 2 8 c 128,-1,2
 -14 24 -14 24 -14 49 c 0,3,4
 -14 68 -14 68 -2.5 82.5 c 128,-1,5
 9 97 9 97 31 98 c 2,6,-1
 61 100 l 2,7,8
 105 103 105 103 127.5 127.5 c 128,-1,9
 150 152 150 152 150 198 c 2,10,-1
 150 648 l 2,11,12
 150 680 150 680 166.5 696.5 c 128,-1,13
 183 713 183 713 214 713 c 256,14,15
 245 713 245 713 261.5 696.5 c 128,-1,16
 278 680 278 680 278 648 c 2,17,-1
 278 199 l 2,18,19
 278 136 278 136 255.5 92 c 128,-1,20
 233 48 233 48 189 23.5 c 128,-1,21
 145 -1 145 -1 80 -5 c 2,22,-1
 46 -7 l 2,0,1
EndSplineSet
EndChar

StartChar: K
Encoding: 75 75 104
Width: 665
GlyphClass: 2
Flags: W
AnchorPoint: "Anchor-2" 332 0 basechar 0
AnchorPoint: "Anchor-0" 332 705 basechar 0
LayerCount: 2
Fore
SplineSet
141 -8 m 0,0,1
 110 -8 110 -8 93.5 9.5 c 128,-1,2
 77 27 77 27 77 58 c 2,3,-1
 77 648 l 2,4,5
 77 680 77 680 93.5 696.5 c 128,-1,6
 110 713 110 713 141 713 c 256,7,8
 172 713 172 713 188.5 696.5 c 128,-1,9
 205 680 205 680 205 648 c 2,10,-1
 205 393 l 1,11,-1
 207 393 l 1,12,-1
 494 681 l 2,13,14
 510 697 510 697 526 705 c 128,-1,15
 542 713 542 713 562 713 c 0,16,17
 591 713 591 713 603.5 698 c 128,-1,18
 616 683 616 683 613.5 663 c 128,-1,19
 611 643 611 643 594 626 c 2,20,-1
 302 337 l 1,21,-1
 303 395 l 1,22,-1
 608 85 l 2,23,24
 629 65 629 65 630 43 c 128,-1,25
 631 21 631 21 616.5 6.5 c 128,-1,26
 602 -8 602 -8 574 -8 c 0,27,28
 550 -8 550 -8 535.5 2 c 128,-1,29
 521 12 521 12 502 31 c 2,30,-1
 207 326 l 1,31,-1
 205 326 l 1,32,-1
 205 58 l 2,33,34
 205 27 205 27 189 9.5 c 128,-1,35
 173 -8 173 -8 141 -8 c 0,0,1
EndSplineSet
EndChar

StartChar: L
Encoding: 76 76 106
Width: 562
GlyphClass: 2
Flags: W
AnchorPoint: "Anchor-5" 187 387 basechar 0
AnchorPoint: "Anchor-2" 310 0 basechar 0
AnchorPoint: "Anchor-1" 311 705 basechar 0
AnchorPoint: "Anchor-0" 141 705 basechar 0
LayerCount: 2
Fore
SplineSet
142 0 m 2,0,1
 111 0 111 0 94 17.5 c 128,-1,2
 77 35 77 35 77 66 c 2,3,-1
 77 643 l 2,4,5
 77 675 77 675 93.5 691.5 c 128,-1,6
 110 708 110 708 141 708 c 256,7,8
 172 708 172 708 188.5 691.5 c 128,-1,9
 205 675 205 675 205 643 c 2,10,-1
 205 109 l 1,11,-1
 495 109 l 2,12,13
 522 109 522 109 536.5 95 c 128,-1,14
 551 81 551 81 551 55 c 256,15,16
 551 29 551 29 536.5 14.5 c 128,-1,17
 522 0 522 0 495 0 c 2,18,-1
 142 0 l 2,0,1
EndSplineSet
EndChar

StartChar: M
Encoding: 77 77 116
Width: 868
GlyphClass: 2
Flags: W
AnchorPoint: "Anchor-2" 435 0 basechar 0
AnchorPoint: "Anchor-0" 435 705 basechar 0
LayerCount: 2
Fore
SplineSet
137 -8 m 0,0,1
 109 -8 109 -8 94 8 c 128,-1,2
 79 24 79 24 79 52 c 2,3,-1
 79 653 l 2,4,5
 79 682 79 682 95 697.5 c 128,-1,6
 111 713 111 713 139 713 c 0,7,8
 164 713 164 713 178.5 703.5 c 128,-1,9
 193 694 193 694 205 671 c 2,10,-1
 452 214 l 1,11,-1
 420 214 l 1,12,-1
 667 671 l 2,13,14
 679 694 679 694 693 703.5 c 128,-1,15
 707 713 707 713 732 713 c 0,16,17
 760 713 760 713 775 697.5 c 128,-1,18
 790 682 790 682 790 653 c 2,19,-1
 790 52 l 2,20,21
 790 24 790 24 775.5 8 c 128,-1,22
 761 -8 761 -8 732 -8 c 0,23,24
 704 -8 704 -8 689 8 c 128,-1,25
 674 24 674 24 674 52 c 2,26,-1
 674 515 l 1,27,-1
 696 515 l 1,28,-1
 486 132 l 2,29,30
 476 115 476 115 465 107 c 128,-1,31
 454 99 454 99 435 99 c 256,32,33
 416 99 416 99 404 107.5 c 128,-1,34
 392 116 392 116 383 132 c 2,35,-1
 171 516 l 1,36,-1
 195 516 l 1,37,-1
 195 52 l 2,38,39
 195 24 195 24 180.5 8 c 128,-1,40
 166 -8 166 -8 137 -8 c 0,0,1
EndSplineSet
EndChar

StartChar: N
Encoding: 78 78 118
Width: 748
GlyphClass: 2
Flags: W
AnchorPoint: "Anchor-2" 374 0 basechar 0
AnchorPoint: "Anchor-0" 374 705 basechar 0
LayerCount: 2
Fore
SplineSet
137 -8 m 256,0,1
 108 -8 108 -8 92.5 8 c 128,-1,2
 77 24 77 24 77 54 c 2,3,-1
 77 649 l 2,4,5
 77 680 77 680 92.5 696.5 c 128,-1,6
 108 713 108 713 133 713 c 0,7,8
 156 713 156 713 167.5 704.5 c 128,-1,9
 179 696 179 696 195 676 c 2,10,-1
 578 179 l 1,11,-1
 552 179 l 1,12,-1
 552 652 l 2,13,14
 552 681 552 681 567.5 697 c 128,-1,15
 583 713 583 713 612 713 c 256,16,17
 641 713 641 713 656 697 c 128,-1,18
 671 681 671 681 671 652 c 2,19,-1
 671 52 l 2,20,21
 671 24 671 24 657 8 c 128,-1,22
 643 -8 643 -8 619 -8 c 0,23,24
 596 -8 596 -8 582.5 1 c 128,-1,25
 569 10 569 10 553 30 c 2,26,-1
 171 527 l 1,27,-1
 196 527 l 1,28,-1
 196 54 l 2,29,30
 196 24 196 24 181 8 c 128,-1,31
 166 -8 166 -8 137 -8 c 256,0,1
EndSplineSet
EndChar

StartChar: Eng
Encoding: 330 330 128
Width: 748
GlyphClass: 2
Flags: W
AnchorPoint: "Anchor-2" 374 0 basechar 0
AnchorPoint: "Anchor-0" 374 705 basechar 0
LayerCount: 2
Fore
SplineSet
480 -189 m 0,0,1
 458 -191 458 -191 444 -182.5 c 128,-1,2
 430 -174 430 -174 425 -160.5 c 128,-1,3
 420 -147 420 -147 422.5 -133.5 c 128,-1,4
 425 -120 425 -120 434.5 -109.5 c 128,-1,5
 444 -99 444 -99 460 -98 c 0,6,7
 506 -93 506 -93 529 -73 c 128,-1,8
 552 -53 552 -53 552 -7 c 2,9,-1
 552 51 l 1,10,-1
 576 0 l 1,11,-1
 171 527 l 1,12,-1
 196 527 l 1,13,-1
 196 54 l 2,14,15
 196 24 196 24 181 8 c 128,-1,16
 166 -8 166 -8 137 -8 c 256,17,18
 108 -8 108 -8 92.5 8 c 128,-1,19
 77 24 77 24 77 54 c 2,20,-1
 77 649 l 2,21,22
 77 680 77 680 92.5 696.5 c 128,-1,23
 108 713 108 713 133 713 c 0,24,25
 156 713 156 713 167.5 704.5 c 128,-1,26
 179 696 179 696 195 676 c 2,27,-1
 578 179 l 1,28,-1
 552 179 l 1,29,-1
 552 652 l 2,30,31
 552 681 552 681 567.5 697 c 128,-1,32
 583 713 583 713 612 713 c 256,33,34
 641 713 641 713 656 697 c 128,-1,35
 671 681 671 681 671 652 c 2,36,-1
 671 9 l 2,37,38
 671 -94 671 -94 623.5 -138 c 128,-1,39
 576 -182 576 -182 480 -189 c 0,0,1
EndSplineSet
EndChar

StartChar: O
Encoding: 79 79 129
Width: 785
GlyphClass: 2
Flags: W
AnchorPoint: "Anchor-5" 393 353 basechar 0
AnchorPoint: "Anchor-3" 452 0 basechar 0
AnchorPoint: "Anchor-2" 392 0 basechar 0
AnchorPoint: "Anchor-1" 461 705 basechar 0
AnchorPoint: "Anchor-0" 392 705 basechar 0
LayerCount: 2
Fore
SplineSet
393 -10 m 0,0,1
 291 -10 291 -10 214.5 35 c 128,-1,2
 138 80 138 80 96 161.5 c 128,-1,3
 54 243 54 243 54 353 c 0,4,5
 54 436 54 436 78 502.5 c 128,-1,6
 102 569 102 569 146.5 616.5 c 128,-1,7
 191 664 191 664 253.5 689.5 c 128,-1,8
 316 715 316 715 393 715 c 0,9,10
 496 715 496 715 572 670.5 c 128,-1,11
 648 626 648 626 690 545 c 128,-1,12
 732 464 732 464 732 354 c 0,13,14
 732 271 732 271 708 204 c 128,-1,15
 684 137 684 137 639.5 89 c 128,-1,16
 595 41 595 41 532.5 15.5 c 128,-1,17
 470 -10 470 -10 393 -10 c 0,0,1
393 100 m 0,18,19
 458 100 458 100 503.5 130 c 128,-1,20
 549 160 549 160 573.5 217 c 128,-1,21
 598 274 598 274 598 353 c 0,22,23
 598 473 598 473 544.5 539 c 128,-1,24
 491 605 491 605 393 605 c 0,25,26
 329 605 329 605 283 575.5 c 128,-1,27
 237 546 237 546 212.5 489.5 c 128,-1,28
 188 433 188 433 188 353 c 0,29,30
 188 234 188 234 242 167 c 128,-1,31
 296 100 296 100 393 100 c 0,18,19
EndSplineSet
Substitution2: "Single Substitution lookup 29 subtable" ordmasculine
Substitution2: "'aalt' Access All Alternates lookup 0 subtable" ordmasculine
EndChar

StartChar: OE
Encoding: 338 338 163
Width: 1056
GlyphClass: 2
Flags: W
AnchorPoint: "Anchor-2" 598 0 basechar 0
AnchorPoint: "Anchor-0" 598 705 basechar 0
LayerCount: 2
Fore
SplineSet
424 0 m 2,0,1
 247 0 247 0 150.5 92 c 128,-1,2
 54 184 54 184 54 353 c 0,3,4
 54 438 54 438 78.5 503.5 c 128,-1,5
 103 569 103 569 150.5 614 c 128,-1,6
 198 659 198 659 267 682 c 128,-1,7
 336 705 336 705 424 705 c 2,8,-1
 961 705 l 2,9,10
 986 705 986 705 999.5 692 c 128,-1,11
 1013 679 1013 679 1013 655 c 0,12,13
 1013 630 1013 630 999.5 616.5 c 128,-1,14
 986 603 986 603 961 603 c 2,15,-1
 659 603 l 1,16,-1
 659 409 l 1,17,-1
 939 409 l 2,18,19
 965 409 965 409 978 396 c 128,-1,20
 991 383 991 383 991 358 c 256,21,22
 991 333 991 333 978 320 c 128,-1,23
 965 307 965 307 939 307 c 2,24,-1
 659 307 l 1,25,-1
 659 102 l 1,26,-1
 961 102 l 2,27,28
 986 102 986 102 999.5 89 c 128,-1,29
 1013 76 1013 76 1013 51 c 256,30,31
 1013 26 1013 26 999.5 13 c 128,-1,32
 986 0 986 0 961 0 c 2,33,-1
 424 0 l 2,0,1
432 106 m 2,34,-1
 536 106 l 1,35,-1
 536 599 l 1,36,-1
 432 599 l 2,37,38
 371 599 371 599 325 584 c 128,-1,39
 279 569 279 569 248.5 538 c 128,-1,40
 218 507 218 507 203 461 c 128,-1,41
 188 415 188 415 188 353 c 0,42,43
 188 229 188 229 248.5 167.5 c 128,-1,44
 309 106 309 106 432 106 c 2,34,-1
EndSplineSet
EndChar

StartChar: P
Encoding: 80 80 164
Width: 652
GlyphClass: 2
Flags: W
AnchorPoint: "Anchor-2" 332 0 basechar 0
AnchorPoint: "Anchor-0" 332 705 basechar 0
LayerCount: 2
Fore
SplineSet
141 -8 m 0,0,1
 110 -8 110 -8 93.5 9.5 c 128,-1,2
 77 27 77 27 77 58 c 2,3,-1
 77 640 l 2,4,5
 77 672 77 672 94 688.5 c 128,-1,6
 111 705 111 705 142 705 c 2,7,-1
 383 705 l 2,8,9
 499 705 499 705 562 647 c 128,-1,10
 625 589 625 589 625 485 c 256,11,12
 625 381 625 381 562 322.5 c 128,-1,13
 499 264 499 264 383 264 c 2,14,-1
 205 264 l 1,15,-1
 205 58 l 2,16,17
 205 27 205 27 189 9.5 c 128,-1,18
 173 -8 173 -8 141 -8 c 0,0,1
205 365 m 1,19,-1
 363 365 l 2,20,21
 431 365 431 365 466 395.5 c 128,-1,22
 501 426 501 426 501 485 c 256,23,24
 501 544 501 544 466 574 c 128,-1,25
 431 604 431 604 363 604 c 2,26,-1
 205 604 l 1,27,-1
 205 365 l 1,19,-1
EndSplineSet
EndChar

StartChar: Thorn
Encoding: 222 222 165
Width: 655
GlyphClass: 2
Flags: W
AnchorPoint: "Anchor-2" 334 0 basechar 0
AnchorPoint: "Anchor-0" 334 705 basechar 0
LayerCount: 2
Fore
SplineSet
141 -3 m 0,0,1
 110 -3 110 -3 93.5 14.5 c 128,-1,2
 77 32 77 32 77 63 c 2,3,-1
 77 643 l 2,4,5
 77 675 77 675 94.5 691.5 c 128,-1,6
 112 708 112 708 143 708 c 0,7,8
 173 708 173 708 189 692 c 128,-1,9
 205 676 205 676 205 650 c 2,10,-1
 205 587 l 1,11,-1
 385 587 l 2,12,13
 501 587 501 587 564 529 c 128,-1,14
 627 471 627 471 627 367 c 256,15,16
 627 263 627 263 564 204.5 c 128,-1,17
 501 146 501 146 385 146 c 2,18,-1
 205 146 l 1,19,-1
 205 63 l 2,20,21
 205 32 205 32 189 14.5 c 128,-1,22
 173 -3 173 -3 141 -3 c 0,0,1
205 247 m 1,23,-1
 365 247 l 2,24,25
 433 247 433 247 468 277.5 c 128,-1,26
 503 308 503 308 503 367 c 256,27,28
 503 426 503 426 468 456 c 128,-1,29
 433 486 433 486 365 486 c 2,30,-1
 205 486 l 1,31,-1
 205 247 l 1,23,-1
EndSplineSet
EndChar

StartChar: Q
Encoding: 81 81 166
Width: 785
GlyphClass: 2
Flags: W
AnchorPoint: "Anchor-5" 393 353 basechar 0
AnchorPoint: "Anchor-3" 452 0 basechar 0
AnchorPoint: "Anchor-2" 377 0 basechar 0
AnchorPoint: "Anchor-1" 461 705 basechar 0
AnchorPoint: "Anchor-0" 377 705 basechar 0
LayerCount: 2
Fore
SplineSet
663 -113 m 2,0,1
 677 -135 677 -135 674 -153 c 128,-1,2
 671 -171 671 -171 658 -183.5 c 128,-1,3
 645 -196 645 -196 626 -199.5 c 128,-1,4
 607 -203 607 -203 588 -195.5 c 128,-1,5
 569 -188 569 -188 556 -167 c 2,6,-1
 487 -56 l 2,7,8
 473 -33 473 -33 449.5 -21.5 c 128,-1,9
 426 -10 426 -10 392 -10 c 1,10,-1
 491 29 l 1,11,12
 538 29 538 29 566 12.5 c 128,-1,13
 594 -4 594 -4 620 -45 c 2,14,-1
 663 -113 l 2,0,1
393 -10 m 0,15,16
 291 -10 291 -10 214.5 35 c 128,-1,17
 138 80 138 80 96 161.5 c 128,-1,18
 54 243 54 243 54 353 c 0,19,20
 54 436 54 436 78 502.5 c 128,-1,21
 102 569 102 569 146.5 616.5 c 128,-1,22
 191 664 191 664 253.5 689.5 c 128,-1,23
 316 715 316 715 393 715 c 0,24,25
 496 715 496 715 572 670.5 c 128,-1,26
 648 626 648 626 690 545 c 128,-1,27
 732 464 732 464 732 354 c 0,28,29
 732 271 732 271 708 204 c 128,-1,30
 684 137 684 137 639.5 89 c 128,-1,31
 595 41 595 41 532.5 15.5 c 128,-1,32
 470 -10 470 -10 393 -10 c 0,15,16
393 100 m 0,33,34
 458 100 458 100 503.5 130 c 128,-1,35
 549 160 549 160 573.5 217 c 128,-1,36
 598 274 598 274 598 353 c 0,37,38
 598 473 598 473 544.5 539 c 128,-1,39
 491 605 491 605 393 605 c 0,40,41
 329 605 329 605 283 575.5 c 128,-1,42
 237 546 237 546 212.5 489.5 c 128,-1,43
 188 433 188 433 188 353 c 0,44,45
 188 234 188 234 242 167 c 128,-1,46
 296 100 296 100 393 100 c 0,33,34
EndSplineSet
EndChar

StartChar: R
Encoding: 82 82 167
Width: 686
GlyphClass: 2
Flags: W
AnchorPoint: "Anchor-2" 349 0 basechar 0
AnchorPoint: "Anchor-0" 348 705 basechar 0
LayerCount: 2
Fore
SplineSet
141 -8 m 0,0,1
 110 -8 110 -8 93.5 9.5 c 128,-1,2
 77 27 77 27 77 58 c 2,3,-1
 77 640 l 2,4,5
 77 672 77 672 94 688.5 c 128,-1,6
 111 705 111 705 142 705 c 2,7,-1
 383 705 l 2,8,9
 499 705 499 705 562 649.5 c 128,-1,10
 625 594 625 594 625 494 c 0,11,12
 625 429 625 429 596.5 382 c 128,-1,13
 568 335 568 335 514 310 c 128,-1,14
 460 285 460 285 383 285 c 1,15,-1
 392 300 l 1,16,-1
 425 300 l 2,17,18
 466 300 466 300 496.5 280 c 128,-1,19
 527 260 527 260 550 217 c 2,20,-1
 625 78 l 2,21,22
 637 57 637 57 636 37 c 128,-1,23
 635 17 635 17 621 4.5 c 128,-1,24
 607 -8 607 -8 580 -8 c 256,25,26
 553 -8 553 -8 536 3.5 c 128,-1,27
 519 15 519 15 506 39 c 2,28,-1
 405 225 l 2,29,30
 387 259 387 259 362.5 270.5 c 128,-1,31
 338 282 338 282 300 282 c 2,32,-1
 205 282 l 1,33,-1
 205 58 l 2,34,35
 205 27 205 27 189 9.5 c 128,-1,36
 173 -8 173 -8 141 -8 c 0,0,1
205 377 m 1,37,-1
 361 377 l 2,38,39
 430 377 430 377 465.5 405.5 c 128,-1,40
 501 434 501 434 501 491 c 0,41,42
 501 547 501 547 465.5 575.5 c 128,-1,43
 430 604 430 604 361 604 c 2,44,-1
 205 604 l 1,45,-1
 205 377 l 1,37,-1
EndSplineSet
EndChar

StartChar: S
Encoding: 83 83 175
Width: 631
GlyphClass: 2
Flags: W
AnchorPoint: "Anchor-2" 323 0 basechar 0
AnchorPoint: "Anchor-0" 325 705 basechar 0
LayerCount: 2
Fore
SplineSet
320 -10 m 0,0,1
 276 -10 276 -10 232 -3.5 c 128,-1,2
 188 3 188 3 149 16.5 c 128,-1,3
 110 30 110 30 79 50 c 0,4,5
 61 62 61 62 54 79 c 128,-1,6
 47 96 47 96 49.5 112.5 c 128,-1,7
 52 129 52 129 62.5 141.5 c 128,-1,8
 73 154 73 154 89 157 c 128,-1,9
 105 160 105 160 124 148 c 0,10,11
 168 122 168 122 217 110 c 128,-1,12
 266 98 266 98 320 98 c 0,13,14
 399 98 399 98 435 124.5 c 128,-1,15
 471 151 471 151 471 193 c 0,16,17
 471 228 471 228 445.5 248 c 128,-1,18
 420 268 420 268 358 281 c 2,19,-1
 248 304 l 2,20,21
 153 324 153 324 106.5 371.5 c 128,-1,22
 60 419 60 419 60 497 c 0,23,24
 60 546 60 546 80 586 c 128,-1,25
 100 626 100 626 136.5 655 c 128,-1,26
 173 684 173 684 223.5 699.5 c 128,-1,27
 274 715 274 715 335 715 c 0,28,29
 395 715 395 715 449 700 c 128,-1,30
 503 685 503 685 546 656 c 0,31,32
 562 645 562 645 567.5 629 c 128,-1,33
 573 613 573 613 570 597.5 c 128,-1,34
 567 582 567 582 556 571 c 128,-1,35
 545 560 545 560 528.5 558 c 128,-1,36
 512 556 512 556 491 568 c 0,37,38
 454 589 454 589 416 598 c 128,-1,39
 378 607 378 607 334 607 c 0,40,41
 288 607 288 607 255 594 c 128,-1,42
 222 581 222 581 204.5 557.5 c 128,-1,43
 187 534 187 534 187 502 c 0,44,45
 187 466 187 466 211 444.5 c 128,-1,46
 235 423 235 423 293 411 c 2,47,-1
 402 388 l 2,48,49
 501 367 501 367 549.5 322 c 128,-1,50
 598 277 598 277 598 202 c 0,51,52
 598 154 598 154 578.5 115 c 128,-1,53
 559 76 559 76 522.5 48 c 128,-1,54
 486 20 486 20 435 5 c 128,-1,55
 384 -10 384 -10 320 -10 c 0,0,1
EndSplineSet
EndChar

StartChar: uni1E9E
Encoding: 7838 7838 186
Width: 730
GlyphClass: 1
Flags: W
LayerCount: 2
Fore
SplineSet
452 -10 m 0,0,1
 403 -10 403 -10 360.5 0.5 c 128,-1,2
 318 11 318 11 286 30 c 0,3,4
 269 41 269 41 263.5 56 c 128,-1,5
 258 71 258 71 261 86 c 128,-1,6
 264 101 264 101 273.5 112.5 c 128,-1,7
 283 124 283 124 296.5 127.5 c 128,-1,8
 310 131 310 131 326 122 c 0,9,10
 355 106 355 106 382 99.5 c 128,-1,11
 409 93 409 93 439 93 c 0,12,13
 495 93 495 93 524.5 121.5 c 128,-1,14
 554 150 554 150 554 199 c 0,15,16
 554 250 554 250 520.5 276.5 c 128,-1,17
 487 303 487 303 417 303 c 2,18,-1
 345 303 l 2,19,20
 323 303 323 303 308.5 316 c 128,-1,21
 294 329 294 329 294 354 c 256,22,23
 294 379 294 379 307 391 c 128,-1,24
 320 403 320 403 340 403 c 2,25,-1
 398 403 l 2,26,27
 453 403 453 403 485 430 c 128,-1,28
 517 457 517 457 517 507 c 0,29,30
 517 558 517 558 481.5 584.5 c 128,-1,31
 446 611 446 611 378 611 c 0,32,33
 292 611 292 611 248.5 571 c 128,-1,34
 205 531 205 531 205 449 c 2,35,-1
 205 58 l 2,36,37
 205 27 205 27 188.5 9.5 c 128,-1,38
 172 -8 172 -8 141 -8 c 256,39,40
 110 -8 110 -8 93.5 9.5 c 128,-1,41
 77 27 77 27 77 58 c 2,42,-1
 77 450 l 2,43,44
 77 537 77 537 113 596 c 128,-1,45
 149 655 149 655 217.5 685 c 128,-1,46
 286 715 286 715 384 715 c 0,47,48
 463 715 463 715 520.5 692 c 128,-1,49
 578 669 578 669 609.5 626.5 c 128,-1,50
 641 584 641 584 641 525 c 0,51,52
 641 463 641 463 607.5 417 c 128,-1,53
 574 371 574 371 515 354 c 1,54,-1
 515 371 l 1,55,56
 565 366 565 366 601.5 342.5 c 128,-1,57
 638 319 638 319 658 280.5 c 128,-1,58
 678 242 678 242 678 191 c 0,59,60
 678 127 678 127 651 82.5 c 128,-1,61
 624 38 624 38 573.5 14 c 128,-1,62
 523 -10 523 -10 452 -10 c 0,0,1
EndSplineSet
EndChar

StartChar: T
Encoding: 84 84 187
Width: 621
GlyphClass: 2
Flags: W
AnchorPoint: "Anchor-5" 311 358 basechar 0
AnchorPoint: "Anchor-2" 311 0 basechar 0
AnchorPoint: "Anchor-0" 311 705 basechar 0
LayerCount: 2
Fore
SplineSet
311 -8 m 0,0,1
 280 -8 280 -8 263.5 9.5 c 128,-1,2
 247 27 247 27 247 58 c 2,3,-1
 247 598 l 1,4,-1
 52 598 l 2,5,6
 26 598 26 598 11.5 612.5 c 128,-1,7
 -3 627 -3 627 -3 652 c 0,8,9
 -3 678 -3 678 11.5 691.5 c 128,-1,10
 26 705 26 705 52 705 c 2,11,-1
 570 705 l 2,12,13
 596 705 596 705 610.5 691.5 c 128,-1,14
 625 678 625 678 625 652 c 0,15,16
 625 627 625 627 610.5 612.5 c 128,-1,17
 596 598 596 598 570 598 c 2,18,-1
 375 598 l 1,19,-1
 375 58 l 2,20,21
 375 27 375 27 359 9.5 c 128,-1,22
 343 -8 343 -8 311 -8 c 0,0,1
EndSplineSet
EndChar

StartChar: U
Encoding: 85 85 194
Width: 738
GlyphClass: 2
Flags: W
AnchorPoint: "Anchor-3" 427 0 basechar 0
AnchorPoint: "Anchor-2" 370 0 basechar 0
AnchorPoint: "Anchor-1" 573 705 basechar 0
AnchorPoint: "Anchor-0" 370 705 basechar 0
LayerCount: 2
Fore
SplineSet
370 -10 m 0,0,1
 297 -10 297 -10 241.5 9 c 128,-1,2
 186 28 186 28 148 65.5 c 128,-1,3
 110 103 110 103 91 159 c 128,-1,4
 72 215 72 215 72 289 c 2,5,-1
 72 648 l 2,6,7
 72 681 72 681 88.5 697 c 128,-1,8
 105 713 105 713 136 713 c 256,9,10
 167 713 167 713 183.5 697 c 128,-1,11
 200 681 200 681 200 648 c 2,12,-1
 200 290 l 2,13,14
 200 195 200 195 243.5 147.5 c 128,-1,15
 287 100 287 100 370 100 c 256,16,17
 453 100 453 100 496 147.5 c 128,-1,18
 539 195 539 195 539 290 c 2,19,-1
 539 648 l 2,20,21
 539 681 539 681 555.5 697 c 128,-1,22
 572 713 572 713 603 713 c 0,23,24
 633 713 633 713 649.5 697 c 128,-1,25
 666 681 666 681 666 648 c 2,26,-1
 666 289 l 2,27,28
 666 191 666 191 632.5 124 c 128,-1,29
 599 57 599 57 533 23.5 c 128,-1,30
 467 -10 467 -10 370 -10 c 0,0,1
EndSplineSet
EndChar

StartChar: V
Encoding: 86 86 217
Width: 713
GlyphClass: 2
Flags: W
AnchorPoint: "Anchor-2" 357 0 basechar 0
AnchorPoint: "Anchor-0" 356 705 basechar 0
LayerCount: 2
Fore
SplineSet
357 -8 m 0,0,1
 330 -8 330 -8 312.5 4.5 c 128,-1,2
 295 17 295 17 284 42 c 2,3,-1
 23 628 l 2,4,5
 12 653 12 653 17 672 c 128,-1,6
 22 691 22 691 38 702 c 128,-1,7
 54 713 54 713 76 713 c 0,8,9
 105 713 105 713 119.5 700.5 c 128,-1,10
 134 688 134 688 144 663 c 2,11,-1
 381 114 l 1,12,-1
 338 114 l 1,13,-1
 574 664 l 2,14,15
 585 688 585 688 600 700.5 c 128,-1,16
 615 713 615 713 642 713 c 0,17,18
 664 713 664 713 678.5 702 c 128,-1,19
 693 691 693 691 697 672 c 128,-1,20
 701 653 701 653 690 628 c 2,21,-1
 429 42 l 2,22,23
 418 17 418 17 401.5 4.5 c 128,-1,24
 385 -8 385 -8 357 -8 c 0,0,1
EndSplineSet
EndChar

StartChar: W
Encoding: 87 87 218
Width: 1113
GlyphClass: 2
Flags: W
AnchorPoint: "Anchor-2" 557 0 basechar 0
AnchorPoint: "Anchor-0" 557 705 basechar 0
LayerCount: 2
Fore
SplineSet
325 -8 m 256,0,1
 298 -8 298 -8 281.5 5 c 128,-1,2
 265 18 265 18 255 46 c 2,3,-1
 46 637 l 2,4,5
 35 669 35 669 50.5 691 c 128,-1,6
 66 713 66 713 103 713 c 0,7,8
 130 713 130 713 145 700.5 c 128,-1,9
 160 688 160 688 169 661 c 2,10,-1
 349 127 l 1,11,-1
 309 127 l 1,12,-1
 497 660 l 2,13,14
 507 687 507 687 522 700 c 128,-1,15
 537 713 537 713 561 713 c 256,16,17
 585 713 585 713 599 700 c 128,-1,18
 613 687 613 687 623 659 c 2,19,-1
 805 127 l 1,20,-1
 770 127 l 1,21,-1
 953 661 l 2,22,23
 962 687 962 687 977 700 c 128,-1,24
 992 713 992 713 1018 713 c 0,25,26
 1050 713 1050 713 1065 691 c 128,-1,27
 1080 669 1080 669 1069 637 c 2,28,-1
 858 45 l 2,29,30
 848 18 848 18 832 5 c 128,-1,31
 816 -8 816 -8 789 -8 c 256,32,33
 762 -8 762 -8 746 5 c 128,-1,34
 730 18 730 18 720 46 c 2,35,-1
 546 542 l 1,36,-1
 569 542 l 1,37,-1
 393 45 l 2,38,39
 383 18 383 18 367.5 5 c 128,-1,40
 352 -8 352 -8 325 -8 c 256,0,1
EndSplineSet
EndChar

StartChar: X
Encoding: 88 88 223
Width: 672
GlyphClass: 2
Flags: W
AnchorPoint: "Anchor-2" 337 0 basechar 0
AnchorPoint: "Anchor-0" 336 705 basechar 0
LayerCount: 2
Fore
SplineSet
101 -8 m 0,0,1
 76 -8 76 -8 60 5.5 c 128,-1,2
 44 19 44 19 41.5 39.5 c 128,-1,3
 39 60 39 60 55 81 c 2,4,-1
 284 386 l 1,5,-1
 284 331 l 1,6,-1
 66 623 l 2,7,8
 50 645 50 645 52 665.5 c 128,-1,9
 54 686 54 686 70 699.5 c 128,-1,10
 86 713 86 713 110 713 c 0,11,12
 130 713 130 713 145.5 703.5 c 128,-1,13
 161 694 161 694 177 672 c 2,14,-1
 357 424 l 1,15,-1
 316 424 l 1,16,-1
 495 672 l 2,17,18
 511 694 511 694 526.5 703.5 c 128,-1,19
 542 713 542 713 563 713 c 0,20,21
 588 713 588 713 604 700 c 128,-1,22
 620 687 620 687 622 666.5 c 128,-1,23
 624 646 624 646 607 623 c 2,24,-1
 389 331 l 1,25,-1
 389 386 l 1,26,-1
 617 81 l 2,27,28
 633 60 633 60 631 39.5 c 128,-1,29
 629 19 629 19 613 5.5 c 128,-1,30
 597 -8 597 -8 571 -8 c 0,31,32
 552 -8 552 -8 536.5 2 c 128,-1,33
 521 12 521 12 504 34 c 2,34,-1
 314 294 l 1,35,-1
 358 294 l 1,36,-1
 169 34 l 2,37,38
 153 12 153 12 137 2 c 128,-1,39
 121 -8 121 -8 101 -8 c 0,0,1
EndSplineSet
EndChar

StartChar: Y
Encoding: 89 89 224
Width: 618
GlyphClass: 2
Flags: W
AnchorPoint: "Anchor-2" 310 0 basechar 0
AnchorPoint: "Anchor-0" 309 705 basechar 0
LayerCount: 2
Fore
SplineSet
309 -8 m 0,0,1
 278 -8 278 -8 261.5 9.5 c 128,-1,2
 245 27 245 27 245 59 c 2,3,-1
 245 363 l 1,4,-1
 272 286 l 1,5,-1
 31 625 l 2,6,7
 18 643 18 643 19.5 663.5 c 128,-1,8
 21 684 21 684 36 698.5 c 128,-1,9
 51 713 51 713 78 713 c 0,10,11
 98 713 98 713 114.5 703 c 128,-1,12
 131 693 131 693 146 672 c 2,13,-1
 325 418 l 1,14,-1
 297 418 l 1,15,-1
 477 672 l 2,16,17
 493 694 493 694 508 703.5 c 128,-1,18
 523 713 523 713 545 713 c 0,19,20
 571 713 571 713 585.5 699.5 c 128,-1,21
 600 686 600 686 600.5 666 c 128,-1,22
 601 646 601 646 586 624 c 2,23,-1
 347 286 l 1,24,-1
 373 363 l 1,25,-1
 373 59 l 2,26,27
 373 -8 373 -8 309 -8 c 0,0,1
EndSplineSet
EndChar

StartChar: uni01B3
Encoding: 435 435 231
Width: 619
GlyphClass: 1
Flags: W
LayerCount: 2
Fore
SplineSet
309 -8 m 0,0,1
 278 -8 278 -8 261.5 9.5 c 128,-1,2
 245 27 245 27 245 60 c 2,3,-1
 245 363 l 1,4,-1
 272 286 l 1,5,-1
 31 625 l 2,6,7
 18 643 18 643 20 663.5 c 128,-1,8
 22 684 22 684 37 698.5 c 128,-1,9
 52 713 52 713 79 713 c 0,10,11
 97 713 97 713 108 708.5 c 128,-1,12
 119 704 119 704 128.5 693.5 c 128,-1,13
 138 683 138 683 151 665 c 2,14,-1
 325 418 l 1,15,-1
 298 418 l 1,16,-1
 438 621 l 2,17,18
 460 652 460 652 484.5 672.5 c 128,-1,19
 509 693 509 693 539.5 703.5 c 128,-1,20
 570 714 570 714 608 714 c 0,21,22
 648 714 648 714 670.5 704 c 128,-1,23
 693 694 693 694 693 661 c 0,24,25
 693 647 693 647 688 637.5 c 128,-1,26
 683 628 683 628 675 623.5 c 128,-1,27
 667 619 667 619 657 620 c 0,28,29
 650 621 650 621 643.5 621 c 128,-1,30
 637 621 637 621 631 621 c 0,31,32
 609 621 609 621 586.5 610 c 128,-1,33
 564 599 564 599 546 573 c 2,34,-1
 347 286 l 1,35,-1
 373 363 l 1,36,-1
 373 60 l 2,37,38
 373 -8 373 -8 309 -8 c 0,0,1
EndSplineSet
EndChar

StartChar: Z
Encoding: 90 90 235
Width: 605
GlyphClass: 2
Flags: W
AnchorPoint: "Anchor-2" 314 0 basechar 0
AnchorPoint: "Anchor-0" 313 705 basechar 0
LayerCount: 2
Fore
SplineSet
106 0 m 2,0,1
 81 0 81 0 65.5 10 c 128,-1,2
 50 20 50 20 44.5 37.5 c 128,-1,3
 39 55 39 55 44.5 76.5 c 128,-1,4
 50 98 50 98 67 121 c 2,5,-1
 449 639 l 1,6,-1
 449 598 l 1,7,-1
 96 598 l 2,8,9
 68 598 68 598 53.5 612 c 128,-1,10
 39 626 39 626 39 652 c 256,11,12
 39 678 39 678 53.5 691.5 c 128,-1,13
 68 705 68 705 96 705 c 2,14,-1
 510 705 l 2,15,16
 535 705 535 705 550.5 695 c 128,-1,17
 566 685 566 685 571.5 668 c 128,-1,18
 577 651 577 651 571.5 629 c 128,-1,19
 566 607 566 607 549 584 c 2,20,-1
 167 67 l 1,21,-1
 167 107 l 1,22,-1
 535 107 l 2,23,24
 563 107 563 107 577.5 93.5 c 128,-1,25
 592 80 592 80 592 54 c 256,26,27
 592 28 592 28 577.5 14 c 128,-1,28
 563 0 563 0 535 0 c 2,29,-1
 106 0 l 2,0,1
EndSplineSet
EndChar

StartChar: a
Encoding: 97 97 242
Width: 547
GlyphClass: 2
Flags: W
AnchorPoint: "Anchor-3" 450 0 basechar 0
AnchorPoint: "Anchor-2" 275 0 basechar 0
AnchorPoint: "Anchor-0" 279 484 basechar 0
LayerCount: 2
Fore
SplineSet
226 -10 m 0,0,1
 173 -10 173 -10 131.5 10.5 c 128,-1,2
 90 31 90 31 66.5 66 c 128,-1,3
 43 101 43 101 43 145 c 0,4,5
 43 199 43 199 71 230.5 c 128,-1,6
 99 262 99 262 162 276 c 128,-1,7
 225 290 225 290 331 290 c 2,8,-1
 381 290 l 1,9,-1
 381 218 l 1,10,-1
 332 218 l 2,11,12
 270 218 270 218 233 212 c 128,-1,13
 196 206 196 206 180.5 191.5 c 128,-1,14
 165 177 165 177 165 151 c 0,15,16
 165 118 165 118 188 97 c 128,-1,17
 211 76 211 76 252 76 c 0,18,19
 285 76 285 76 310.5 91.5 c 128,-1,20
 336 107 336 107 351 134 c 128,-1,21
 366 161 366 161 366 196 c 2,22,-1
 366 311 l 2,23,24
 366 361 366 361 344 383 c 128,-1,25
 322 405 322 405 270 405 c 0,26,27
 241 405 241 405 207.5 398 c 128,-1,28
 174 391 174 391 137 374 c 0,29,30
 118 365 118 365 103.5 369 c 128,-1,31
 89 373 89 373 81 385.5 c 128,-1,32
 73 398 73 398 73 413 c 128,-1,33
 73 428 73 428 81 442.5 c 128,-1,34
 89 457 89 457 108 464 c 0,35,36
 154 483 154 483 196.5 491 c 128,-1,37
 239 499 239 499 274 499 c 0,38,39
 346 499 346 499 392.5 477 c 128,-1,40
 439 455 439 455 462 410.5 c 128,-1,41
 485 366 485 366 485 296 c 2,42,-1
 485 56 l 2,43,44
 485 25 485 25 470 8.5 c 128,-1,45
 455 -8 455 -8 427 -8 c 256,46,47
 399 -8 399 -8 383.5 8.5 c 128,-1,48
 368 25 368 25 368 56 c 2,49,-1
 368 104 l 1,50,-1
 376 104 l 1,51,52
 369 69 369 69 348.5 43.5 c 128,-1,53
 328 18 328 18 297 4 c 128,-1,54
 266 -10 266 -10 226 -10 c 0,0,1
EndSplineSet
Substitution2: "'ss01' Style Set 1 lookup 35 subtable" a.ss01
Substitution2: "'salt' Stylistic Alternatives lookup 34 subtable" a.ss01
Substitution2: "Single Substitution lookup 29 subtable" ordfeminine
AlternateSubs2: "'aalt' Access All Alternates lookup 1 subtable" a.ss01 ordfeminine
EndChar

StartChar: aogonek
Encoding: 261 261 265
Width: 547
GlyphClass: 1
Flags: W
LayerCount: 2
Fore
SplineSet
429 -195 m 0,0,1
 374 -195 374 -195 342.5 -167 c 128,-1,2
 311 -139 311 -139 311 -91 c 0,3,4
 311 -56 311 -56 331 -24.5 c 128,-1,5
 351 7 351 7 385 28 c 1,6,-1
 383 9 l 1,7,8
 375 19 375 19 371.5 30 c 128,-1,9
 368 41 368 41 368 56 c 2,10,-1
 368 104 l 1,11,-1
 376 104 l 1,12,13
 369 69 369 69 348.5 43.5 c 128,-1,14
 328 18 328 18 297 4 c 128,-1,15
 266 -10 266 -10 226 -10 c 0,16,17
 173 -10 173 -10 131.5 10.5 c 128,-1,18
 90 31 90 31 66.5 66 c 128,-1,19
 43 101 43 101 43 145 c 0,20,21
 43 199 43 199 71 230.5 c 128,-1,22
 99 262 99 262 162 276 c 128,-1,23
 225 290 225 290 331 290 c 2,24,-1
 381 290 l 1,25,-1
 381 218 l 1,26,-1
 332 218 l 2,27,28
 270 218 270 218 233 212 c 128,-1,29
 196 206 196 206 180.5 191.5 c 128,-1,30
 165 177 165 177 165 151 c 0,31,32
 165 118 165 118 188 97 c 128,-1,33
 211 76 211 76 252 76 c 0,34,35
 285 76 285 76 310.5 91.5 c 128,-1,36
 336 107 336 107 351 134 c 128,-1,37
 366 161 366 161 366 196 c 2,38,-1
 366 311 l 2,39,40
 366 361 366 361 344 383 c 128,-1,41
 322 405 322 405 270 405 c 0,42,43
 241 405 241 405 207.5 398 c 128,-1,44
 174 391 174 391 137 374 c 0,45,46
 118 365 118 365 103.5 369 c 128,-1,47
 89 373 89 373 81 385.5 c 128,-1,48
 73 398 73 398 73 413 c 128,-1,49
 73 428 73 428 81 442.5 c 128,-1,50
 89 457 89 457 108 464 c 0,51,52
 154 483 154 483 196.5 491 c 128,-1,53
 239 499 239 499 274 499 c 0,54,55
 346 499 346 499 392.5 477 c 128,-1,56
 439 455 439 455 462 410.5 c 128,-1,57
 485 366 485 366 485 296 c 2,58,-1
 485 56 l 2,59,60
 485 29 485 29 474.5 15 c 128,-1,61
 464 1 464 1 445 -7 c 0,62,63
 422 -17 422 -17 406 -35 c 128,-1,64
 390 -53 390 -53 390 -77 c 0,65,66
 390 -102 390 -102 406 -115 c 128,-1,67
 422 -128 422 -128 446 -128 c 0,68,69
 453 -128 453 -128 460.5 -127 c 128,-1,70
 468 -126 468 -126 476 -124 c 0,71,72
 494 -119 494 -119 504 -125.5 c 128,-1,73
 514 -132 514 -132 516.5 -144.5 c 128,-1,74
 519 -157 519 -157 513 -168.5 c 128,-1,75
 507 -180 507 -180 492 -186 c 0,76,77
 476 -192 476 -192 459.5 -193.5 c 128,-1,78
 443 -195 443 -195 429 -195 c 0,0,1
EndSplineSet
Substitution2: "'ss01' Style Set 1 lookup 35 subtable" aogonek.ss01
Substitution2: "'salt' Stylistic Alternatives lookup 34 subtable" aogonek.ss01
Substitution2: "'aalt' Access All Alternates lookup 0 subtable" aogonek.ss01
EndChar

StartChar: ae
Encoding: 230 230 269
Width: 865
GlyphClass: 2
Flags: W
AnchorPoint: "Anchor-2" 415 0 basechar 0
AnchorPoint: "Anchor-0" 415 484 basechar 0
LayerCount: 2
Fore
SplineSet
236 -10 m 0,0,1
 178 -10 178 -10 134.5 10.5 c 128,-1,2
 91 31 91 31 67 66 c 128,-1,3
 43 101 43 101 43 145 c 0,4,5
 43 199 43 199 71 230.5 c 128,-1,6
 99 262 99 262 162.5 276 c 128,-1,7
 226 290 226 290 334 290 c 2,8,-1
 379 290 l 1,9,-1
 379 218 l 1,10,-1
 332 218 l 2,11,12
 270 218 270 218 233 212 c 128,-1,13
 196 206 196 206 180.5 191.5 c 128,-1,14
 165 177 165 177 165 151 c 0,15,16
 165 118 165 118 188 97 c 128,-1,17
 211 76 211 76 253 76 c 0,18,19
 287 76 287 76 312 92 c 128,-1,20
 337 108 337 108 351.5 136 c 128,-1,21
 366 164 366 164 366 200 c 2,22,-1
 366 311 l 2,23,24
 366 361 366 361 343.5 383 c 128,-1,25
 321 405 321 405 271 405 c 0,26,27
 242 405 242 405 208.5 398 c 128,-1,28
 175 391 175 391 138 374 c 0,29,30
 119 365 119 365 104.5 369 c 128,-1,31
 90 373 90 373 82 385.5 c 128,-1,32
 74 398 74 398 74 413 c 128,-1,33
 74 428 74 428 82 442.5 c 128,-1,34
 90 457 90 457 109 464 c 0,35,36
 155 483 155 483 197.5 491 c 128,-1,37
 240 499 240 499 275 499 c 0,38,39
 344 499 344 499 389.5 474 c 128,-1,40
 435 449 435 449 454 397 c 1,41,-1
 426 397 l 1,42,43
 452 447 452 447 503 473 c 128,-1,44
 554 499 554 499 609 499 c 0,45,46
 660 499 660 499 701 482 c 128,-1,47
 742 465 742 465 771 433.5 c 128,-1,48
 800 402 800 402 815.5 356.5 c 128,-1,49
 831 311 831 311 831 254 c 2,50,-1
 831 252 l 2,51,52
 831 234 831 234 818.5 226 c 128,-1,53
 806 218 806 218 783 218 c 2,54,-1
 477 218 l 1,55,-1
 477 290 l 1,56,-1
 742 290 l 1,57,-1
 727 275 l 1,58,59
 727 320 727 320 714 351 c 128,-1,60
 701 382 701 382 675.5 398 c 128,-1,61
 650 414 650 414 612 414 c 0,62,63
 573 414 573 414 544.5 395.5 c 128,-1,64
 516 377 516 377 501 342 c 128,-1,65
 486 307 486 307 486 257 c 2,66,-1
 486 250 l 2,67,68
 486 167 486 167 522 126 c 128,-1,69
 558 85 558 85 633 85 c 0,70,71
 659 85 659 85 691.5 91.5 c 128,-1,72
 724 98 724 98 753 114 c 0,73,74
 774 126 774 126 790 124.5 c 128,-1,75
 806 123 806 123 815.5 113 c 128,-1,76
 825 103 825 103 827 88.5 c 128,-1,77
 829 74 829 74 821.5 59 c 128,-1,78
 814 44 814 44 796 33 c 0,79,80
 761 11 761 11 715.5 0.5 c 128,-1,81
 670 -10 670 -10 631 -10 c 0,82,83
 548 -10 548 -10 487.5 24.5 c 128,-1,84
 427 59 427 59 403 129 c 1,85,-1
 426 129 l 1,86,87
 410 64 410 64 360 27 c 128,-1,88
 310 -10 310 -10 236 -10 c 0,0,1
EndSplineSet
EndChar

StartChar: b
Encoding: 98 98 271
Width: 600
GlyphClass: 2
Flags: W
AnchorPoint: "Anchor-2" 307 0 basechar 0
AnchorPoint: "Anchor-0" 313 705 basechar 0
LayerCount: 2
Fore
SplineSet
347 -10 m 0,0,1
 285 -10 285 -10 238.5 21 c 128,-1,2
 192 52 192 52 177 104 c 1,3,-1
 188 129 l 1,4,-1
 188 56 l 2,5,6
 188 25 188 25 172 8.5 c 128,-1,7
 156 -8 156 -8 127 -8 c 0,8,9
 97 -8 97 -8 81 8.5 c 128,-1,10
 65 25 65 25 65 56 c 2,11,-1
 65 650 l 2,12,13
 65 681 65 681 81 697 c 128,-1,14
 97 713 97 713 127 713 c 256,15,16
 157 713 157 713 173.5 697 c 128,-1,17
 190 681 190 681 190 650 c 2,18,-1
 190 390 l 1,19,-1
 178 390 l 1,20,21
 194 439 194 439 240 469 c 128,-1,22
 286 499 286 499 347 499 c 0,23,24
 412 499 412 499 460 468 c 128,-1,25
 508 437 508 437 535 380.5 c 128,-1,26
 562 324 562 324 562 245 c 0,27,28
 562 167 562 167 535 109.5 c 128,-1,29
 508 52 508 52 459.5 21 c 128,-1,30
 411 -10 411 -10 347 -10 c 0,0,1
312 85 m 0,31,32
 349 85 349 85 377 103 c 128,-1,33
 405 121 405 121 420.5 156.5 c 128,-1,34
 436 192 436 192 436 245 c 0,35,36
 436 325 436 325 402 364.5 c 128,-1,37
 368 404 368 404 312 404 c 0,38,39
 275 404 275 404 247 386.5 c 128,-1,40
 219 369 219 369 203.5 333.5 c 128,-1,41
 188 298 188 298 188 245 c 0,42,43
 188 166 188 166 222 125.5 c 128,-1,44
 256 85 256 85 312 85 c 0,31,32
EndSplineSet
EndChar

StartChar: uni0253
Encoding: 595 595 272
Width: 600
GlyphClass: 1
Flags: W
LayerCount: 2
Fore
SplineSet
347 -10 m 0,0,1
 285 -10 285 -10 238.5 21 c 128,-1,2
 192 52 192 52 177 104 c 1,3,-1
 188 129 l 1,4,-1
 188 56 l 2,5,6
 188 25 188 25 172 8.5 c 128,-1,7
 156 -8 156 -8 127 -8 c 0,8,9
 97 -8 97 -8 81 8.5 c 128,-1,10
 65 25 65 25 65 56 c 2,11,-1
 65 521 l 2,12,13
 65 610 65 610 114 662.5 c 128,-1,14
 163 715 163 715 257 715 c 0,15,16
 299 715 299 715 316 701 c 128,-1,17
 333 687 333 687 333 664 c 0,18,19
 333 640 333 640 324 626 c 128,-1,20
 315 612 315 612 298 614 c 0,21,22
 293 615 293 615 286.5 615.5 c 128,-1,23
 280 616 280 616 271 616 c 0,24,25
 234 616 234 616 212 592.5 c 128,-1,26
 190 569 190 569 190 522 c 2,27,-1
 190 390 l 1,28,-1
 178 390 l 1,29,30
 194 439 194 439 240 469 c 128,-1,31
 286 499 286 499 347 499 c 0,32,33
 412 499 412 499 460 468 c 128,-1,34
 508 437 508 437 535 380.5 c 128,-1,35
 562 324 562 324 562 245 c 0,36,37
 562 167 562 167 535 109.5 c 128,-1,38
 508 52 508 52 459.5 21 c 128,-1,39
 411 -10 411 -10 347 -10 c 0,0,1
312 85 m 0,40,41
 349 85 349 85 377 103 c 128,-1,42
 405 121 405 121 420.5 156.5 c 128,-1,43
 436 192 436 192 436 245 c 0,44,45
 436 325 436 325 402 364.5 c 128,-1,46
 368 404 368 404 312 404 c 0,47,48
 275 404 275 404 247 386.5 c 128,-1,49
 219 369 219 369 203.5 333.5 c 128,-1,50
 188 298 188 298 188 245 c 0,51,52
 188 166 188 166 222 125.5 c 128,-1,53
 256 85 256 85 312 85 c 0,40,41
EndSplineSet
EndChar

StartChar: c
Encoding: 99 99 273
Width: 472
GlyphClass: 2
Flags: W
AnchorPoint: "Anchor-2" 284 0 basechar 0
AnchorPoint: "Anchor-0" 284 484 basechar 0
LayerCount: 2
Fore
SplineSet
291 -10 m 0,0,1
 214 -10 214 -10 157 21.5 c 128,-1,2
 100 53 100 53 69 111 c 128,-1,3
 38 169 38 169 38 247 c 0,4,5
 38 306 38 306 55.5 352.5 c 128,-1,6
 73 399 73 399 106 431.5 c 128,-1,7
 139 464 139 464 186 481.5 c 128,-1,8
 233 499 233 499 291 499 c 0,9,10
 324 499 324 499 362.5 490 c 128,-1,11
 401 481 401 481 435 460 c 0,12,13
 451 450 451 450 456 436 c 128,-1,14
 461 422 461 422 458 407.5 c 128,-1,15
 455 393 455 393 445.5 382.5 c 128,-1,16
 436 372 436 372 422 369.5 c 128,-1,17
 408 367 408 367 391 376 c 0,18,19
 369 389 369 389 346 395.5 c 128,-1,20
 323 402 323 402 302 402 c 0,21,22
 269 402 269 402 244 391.5 c 128,-1,23
 219 381 219 381 201.5 361.5 c 128,-1,24
 184 342 184 342 175 313 c 128,-1,25
 166 284 166 284 166 246 c 0,26,27
 166 172 166 172 201.5 129.5 c 128,-1,28
 237 87 237 87 302 87 c 0,29,30
 323 87 323 87 345.5 93 c 128,-1,31
 368 99 368 99 391 112 c 0,32,33
 408 121 408 121 421.5 118 c 128,-1,34
 435 115 435 115 444 104.5 c 128,-1,35
 453 94 453 94 455 79.5 c 128,-1,36
 457 65 457 65 451.5 51 c 128,-1,37
 446 37 446 37 431 28 c 0,38,39
 398 8 398 8 361 -1 c 128,-1,40
 324 -10 324 -10 291 -10 c 0,0,1
EndSplineSet
EndChar

StartChar: d
Encoding: 100 100 280
Width: 600
GlyphClass: 2
Flags: W
AnchorPoint: "Anchor-5" 296 246 basechar 0
AnchorPoint: "Anchor-4" 423 588 basechar 0
AnchorPoint: "Anchor-2" 302 0 basechar 0
AnchorPoint: "Anchor-1" 576 705 basechar 0
AnchorPoint: "Anchor-0" 301 705 basechar 0
LayerCount: 2
Fore
SplineSet
253 -10 m 0,0,1
 189 -10 189 -10 140.5 21 c 128,-1,2
 92 52 92 52 65 109.5 c 128,-1,3
 38 167 38 167 38 245 c 0,4,5
 38 324 38 324 65 380.5 c 128,-1,6
 92 437 92 437 140.5 468 c 128,-1,7
 189 499 189 499 253 499 c 0,8,9
 314 499 314 499 359.5 469 c 128,-1,10
 405 439 405 439 421 390 c 1,11,-1
 410 390 l 1,12,-1
 410 650 l 2,13,14
 410 681 410 681 426 697 c 128,-1,15
 442 713 442 713 472 713 c 256,16,17
 502 713 502 713 518.5 697 c 128,-1,18
 535 681 535 681 535 650 c 2,19,-1
 535 56 l 2,20,21
 535 25 535 25 519 8.5 c 128,-1,22
 503 -8 503 -8 473 -8 c 256,23,24
 443 -8 443 -8 427 8.5 c 128,-1,25
 411 25 411 25 411 56 c 2,26,-1
 411 134 l 1,27,-1
 422 104 l 1,28,29
 407 52 407 52 361 21 c 128,-1,30
 315 -10 315 -10 253 -10 c 0,0,1
288 85 m 0,31,32
 325 85 325 85 353 103 c 128,-1,33
 381 121 381 121 396.5 156.5 c 128,-1,34
 412 192 412 192 412 245 c 0,35,36
 412 325 412 325 378 364.5 c 128,-1,37
 344 404 344 404 288 404 c 0,38,39
 251 404 251 404 223 386.5 c 128,-1,40
 195 369 195 369 179.5 333.5 c 128,-1,41
 164 298 164 298 164 245 c 0,42,43
 164 166 164 166 198 125.5 c 128,-1,44
 232 85 232 85 288 85 c 0,31,32
EndSplineSet
EndChar

StartChar: eth
Encoding: 240 240 281
Width: 581
GlyphClass: 1
Flags: W
LayerCount: 2
Fore
SplineSet
283 -10 m 0,0,1
 210 -10 210 -10 155 19.5 c 128,-1,2
 100 49 100 49 69 101 c 128,-1,3
 38 153 38 153 38 222 c 0,4,5
 38 290 38 290 68 341 c 128,-1,6
 98 392 98 392 151 421 c 128,-1,7
 204 450 204 450 273 450 c 0,8,9
 319 450 319 450 355.5 436 c 128,-1,10
 392 422 392 422 417 392.5 c 128,-1,11
 442 363 442 363 452 315 c 1,12,-1
 425 315 l 1,13,14
 426 401 426 401 388 463.5 c 128,-1,15
 350 526 350 526 297 562 c 1,16,-1
 316 561 l 1,17,-1
 171 495 l 2,18,19
 149 485 149 485 132.5 491 c 128,-1,20
 116 497 116 497 109.5 511 c 128,-1,21
 103 525 103 525 109.5 541.5 c 128,-1,22
 116 558 116 558 140 568 c 2,23,-1
 235 611 l 1,24,-1
 239 597 l 1,25,26
 222 605 222 605 203 612 c 128,-1,27
 184 619 184 619 164 625 c 0,28,29
 140 632 140 632 131 647.5 c 128,-1,30
 122 663 122 663 126 679 c 128,-1,31
 130 695 130 695 145.5 704 c 128,-1,32
 161 713 161 713 187 707 c 0,33,34
 232 697 232 697 270 680.5 c 128,-1,35
 308 664 308 664 342 644 c 1,36,-1
 310 645 l 1,37,-1
 433 701 l 2,38,39
 455 711 455 711 471.5 705 c 128,-1,40
 488 699 488 699 495 685 c 128,-1,41
 502 671 502 671 496.5 655.5 c 128,-1,42
 491 640 491 640 468 630 c 2,43,-1
 389 594 l 1,44,-1
 393 608 l 1,45,46
 441 569 441 569 474.5 519 c 128,-1,47
 508 469 508 469 525.5 411 c 128,-1,48
 543 353 543 353 543 288 c 0,49,50
 543 218 543 218 526 162.5 c 128,-1,51
 509 107 509 107 475.5 68.5 c 128,-1,52
 442 30 442 30 394 10 c 128,-1,53
 346 -10 346 -10 283 -10 c 0,0,1
287 86 m 0,54,55
 326 86 326 86 354 102.5 c 128,-1,56
 382 119 382 119 396.5 150 c 128,-1,57
 411 181 411 181 411 222 c 0,58,59
 411 284 411 284 378.5 320 c 128,-1,60
 346 356 346 356 287 356 c 0,61,62
 249 356 249 356 221.5 339.5 c 128,-1,63
 194 323 194 323 179 293 c 128,-1,64
 164 263 164 263 164 222 c 0,65,66
 164 158 164 158 196.5 122 c 128,-1,67
 229 86 229 86 287 86 c 0,54,55
EndSplineSet
EndChar

StartChar: dcroat
Encoding: 273 273 283
Width: 600
GlyphClass: 1
Flags: W
LayerCount: 2
Fore
SplineSet
254 -10 m 0,0,1
 190 -10 190 -10 141.5 21 c 128,-1,2
 93 52 93 52 66 109.5 c 128,-1,3
 39 167 39 167 39 245 c 0,4,5
 39 324 39 324 66 380.5 c 128,-1,6
 93 437 93 437 141.5 468 c 128,-1,7
 190 499 190 499 254 499 c 0,8,9
 315 499 315 499 360.5 469 c 128,-1,10
 406 439 406 439 422 390 c 1,11,-1
 411 390 l 1,12,-1
 411 544 l 1,13,-1
 264 544 l 2,14,15
 242 544 242 544 229.5 555.5 c 128,-1,16
 217 567 217 567 217 588 c 256,17,18
 217 609 217 609 229.5 620.5 c 128,-1,19
 242 632 242 632 264 632 c 2,20,-1
 465 632 l 1,21,-1
 411 577 l 1,22,-1
 411 660 l 2,23,24
 411 683 411 683 427 698 c 128,-1,25
 443 713 443 713 473 713 c 256,26,27
 503 713 503 713 519.5 698 c 128,-1,28
 536 683 536 683 536 660 c 2,29,-1
 536 577 l 1,30,-1
 481 632 l 1,31,-1
 582 632 l 2,32,33
 605 632 605 632 616.5 620.5 c 128,-1,34
 628 609 628 609 628 588 c 256,35,36
 628 567 628 567 616.5 555.5 c 128,-1,37
 605 544 605 544 582 544 c 2,38,-1
 536 544 l 1,39,-1
 536 56 l 2,40,41
 536 25 536 25 520 8.5 c 128,-1,42
 504 -8 504 -8 474 -8 c 256,43,44
 444 -8 444 -8 428 8.5 c 128,-1,45
 412 25 412 25 412 56 c 2,46,-1
 412 132 l 1,47,-1
 422 102 l 1,48,49
 407 52 407 52 361.5 21 c 128,-1,50
 316 -10 316 -10 254 -10 c 0,0,1
289 85 m 0,51,52
 326 85 326 85 354 103 c 128,-1,53
 382 121 382 121 397.5 156.5 c 128,-1,54
 413 192 413 192 413 245 c 0,55,56
 413 325 413 325 379 364.5 c 128,-1,57
 345 404 345 404 289 404 c 0,58,59
 252 404 252 404 224 386.5 c 128,-1,60
 196 369 196 369 180.5 333.5 c 128,-1,61
 165 298 165 298 165 245 c 0,62,63
 165 166 165 166 199 125.5 c 128,-1,64
 233 85 233 85 289 85 c 0,51,52
EndSplineSet
EndChar

StartChar: uni0257
Encoding: 599 599 285
Width: 600
GlyphClass: 1
Flags: W
LayerCount: 2
Fore
SplineSet
253 -10 m 0,0,1
 189 -10 189 -10 140.5 21 c 128,-1,2
 92 52 92 52 65 109.5 c 128,-1,3
 38 167 38 167 38 245 c 0,4,5
 38 324 38 324 65 380.5 c 128,-1,6
 92 437 92 437 140.5 468 c 128,-1,7
 189 499 189 499 253 499 c 0,8,9
 314 499 314 499 359.5 469 c 128,-1,10
 405 439 405 439 421 390 c 1,11,-1
 410 390 l 1,12,-1
 410 521 l 2,13,14
 410 610 410 610 459 662.5 c 128,-1,15
 508 715 508 715 602 715 c 0,16,17
 644 715 644 715 661 701 c 128,-1,18
 678 687 678 687 678 664 c 0,19,20
 678 640 678 640 669 626 c 128,-1,21
 660 612 660 612 643 614 c 0,22,23
 638 615 638 615 631.5 615.5 c 128,-1,24
 625 616 625 616 616 616 c 0,25,26
 579 616 579 616 557 592.5 c 128,-1,27
 535 569 535 569 535 522 c 2,28,-1
 535 56 l 2,29,30
 535 25 535 25 519 8.5 c 128,-1,31
 503 -8 503 -8 473 -8 c 256,32,33
 443 -8 443 -8 427 8.5 c 128,-1,34
 411 25 411 25 411 56 c 2,35,-1
 411 134 l 1,36,-1
 422 104 l 1,37,38
 407 52 407 52 361 21 c 128,-1,39
 315 -10 315 -10 253 -10 c 0,0,1
288 86 m 0,40,41
 325 86 325 86 353 103.5 c 128,-1,42
 381 121 381 121 396.5 156.5 c 128,-1,43
 412 192 412 192 412 245 c 0,44,45
 412 325 412 325 378 364.5 c 128,-1,46
 344 404 344 404 288 404 c 0,47,48
 251 404 251 404 223 386.5 c 128,-1,49
 195 369 195 369 179.5 333.5 c 128,-1,50
 164 298 164 298 164 245 c 0,51,52
 164 166 164 166 198 126 c 128,-1,53
 232 86 232 86 288 86 c 0,40,41
EndSplineSet
EndChar

StartChar: e
Encoding: 101 101 288
Width: 542
GlyphClass: 2
Flags: W
AnchorPoint: "Anchor-3" 371 0 basechar 0
AnchorPoint: "Anchor-2" 284 0 basechar 0
AnchorPoint: "Anchor-0" 284 484 basechar 0
LayerCount: 2
Fore
SplineSet
306 -10 m 0,0,1
 223 -10 223 -10 163 21 c 128,-1,2
 103 52 103 52 70.5 109 c 128,-1,3
 38 166 38 166 38 244 c 0,4,5
 38 320 38 320 69.5 377 c 128,-1,6
 101 434 101 434 156.5 466.5 c 128,-1,7
 212 499 212 499 283 499 c 0,8,9
 335 499 335 499 376.5 482 c 128,-1,10
 418 465 418 465 447.5 433 c 128,-1,11
 477 401 477 401 492.5 355.5 c 128,-1,12
 508 310 508 310 508 253 c 0,13,14
 508 235 508 235 495.5 225.5 c 128,-1,15
 483 216 483 216 460 216 c 2,16,-1
 139 216 l 1,17,-1
 139 288 l 1,18,-1
 420 288 l 1,19,-1
 404 273 l 1,20,21
 404 319 404 319 390.5 350 c 128,-1,22
 377 381 377 381 351.5 397.5 c 128,-1,23
 326 414 326 414 288 414 c 0,24,25
 246 414 246 414 216.5 394.5 c 128,-1,26
 187 375 187 375 171.5 339.5 c 128,-1,27
 156 304 156 304 156 255 c 2,28,-1
 156 248 l 2,29,30
 156 166 156 166 194.5 125.5 c 128,-1,31
 233 85 233 85 308 85 c 0,32,33
 334 85 334 85 366.5 91.5 c 128,-1,34
 399 98 399 98 428 114 c 0,35,36
 449 126 449 126 465 124.5 c 128,-1,37
 481 123 481 123 490.5 113 c 128,-1,38
 500 103 500 103 502 88.5 c 128,-1,39
 504 74 504 74 496.5 59 c 128,-1,40
 489 44 489 44 471 33 c 0,41,42
 436 11 436 11 390.5 0.5 c 128,-1,43
 345 -10 345 -10 306 -10 c 0,0,1
EndSplineSet
EndChar

StartChar: uni0259
Encoding: 601 601 311
Width: 543
GlyphClass: 1
Flags: W
LayerCount: 2
Fore
SplineSet
262 -10 m 256,0,1
 190 -10 190 -10 139.5 19 c 128,-1,2
 89 48 89 48 62 103.5 c 128,-1,3
 35 159 35 159 35 236 c 0,4,5
 35 254 35 254 47.5 263.5 c 128,-1,6
 60 273 60 273 83 273 c 2,7,-1
 404 273 l 1,8,-1
 404 201 l 1,9,-1
 123 201 l 1,10,-1
 143 216 l 1,11,12
 144 171 144 171 156.5 139.5 c 128,-1,13
 169 108 169 108 194.5 91.5 c 128,-1,14
 220 75 220 75 259 75 c 0,15,16
 301 75 301 75 329.5 94.5 c 128,-1,17
 358 114 358 114 372.5 150 c 128,-1,18
 387 186 387 186 387 234 c 2,19,-1
 387 241 l 2,20,21
 387 324 387 324 348.5 364 c 128,-1,22
 310 404 310 404 235 404 c 0,23,24
 210 404 210 404 177.5 397.5 c 128,-1,25
 145 391 145 391 116 374 c 0,26,27
 95 362 95 362 79 363.5 c 128,-1,28
 63 365 63 365 53.5 375 c 128,-1,29
 44 385 44 385 42 400 c 128,-1,30
 40 415 40 415 47 430 c 128,-1,31
 54 445 54 445 72 456 c 0,32,33
 107 478 107 478 152.5 488.5 c 128,-1,34
 198 499 198 499 237 499 c 0,35,36
 320 499 320 499 380 468 c 128,-1,37
 440 437 440 437 472.5 380 c 128,-1,38
 505 323 505 323 505 245 c 0,39,40
 505 170 505 170 474 112.5 c 128,-1,41
 443 55 443 55 388.5 22.5 c 128,-1,42
 334 -10 334 -10 262 -10 c 256,0,1
EndSplineSet
EndChar

StartChar: f
Encoding: 102 102 314
Width: 364
GlyphClass: 2
Flags: W
AnchorPoint: "Anchor-2" 161 0 basechar 0
AnchorPoint: "Anchor-0" 161 705 basechar 0
LayerCount: 2
Fore
SplineSet
161 -8 m 0,0,1
 131 -8 131 -8 114.5 8.5 c 128,-1,2
 98 25 98 25 98 56 c 2,3,-1
 98 395 l 1,4,-1
 52 395 l 2,5,6
 28 395 28 395 15 407.5 c 128,-1,7
 2 420 2 420 2 442 c 0,8,9
 2 465 2 465 15 477 c 128,-1,10
 28 489 28 489 52 489 c 2,11,-1
 134 489 l 1,12,-1
 98 456 l 1,13,-1
 98 490 l 2,14,15
 98 593 98 593 150 644.5 c 128,-1,16
 202 696 202 696 300 705 c 2,17,-1
 334 708 l 2,18,19
 354 710 354 710 366 701.5 c 128,-1,20
 378 693 378 693 382 679.5 c 128,-1,21
 386 666 386 666 383 652 c 128,-1,22
 380 638 380 638 370.5 627.5 c 128,-1,23
 361 617 361 617 346 616 c 2,24,-1
 332 615 l 2,25,26
 275 611 275 611 249 586 c 128,-1,27
 223 561 223 561 223 510 c 2,28,-1
 223 473 l 1,29,-1
 207 489 l 1,30,-1
 308 489 l 2,31,32
 332 489 332 489 345 477 c 128,-1,33
 358 465 358 465 358 442 c 0,34,35
 358 420 358 420 345 407.5 c 128,-1,36
 332 395 332 395 308 395 c 2,37,-1
 223 395 l 1,38,-1
 223 56 l 2,39,40
 223 -8 223 -8 161 -8 c 0,0,1
EndSplineSet
EndChar

StartChar: g
Encoding: 103 103 315
Width: 604
GlyphClass: 2
Flags: W
AnchorPoint: "Anchor-0" 303 484 basechar 0
LayerCount: 2
Fore
SplineSet
293 -190 m 0,0,1
 239 -190 239 -190 188.5 -180 c 128,-1,2
 138 -170 138 -170 97 -149 c 0,3,4
 78 -139 78 -139 71.5 -125 c 128,-1,5
 65 -111 65 -111 67.5 -96.5 c 128,-1,6
 70 -82 70 -82 79.5 -71 c 128,-1,7
 89 -60 89 -60 103 -56 c 128,-1,8
 117 -52 117 -52 132 -60 c 0,9,10
 176 -82 176 -82 215.5 -88.5 c 128,-1,11
 255 -95 255 -95 283 -95 c 0,12,13
 350 -95 350 -95 383.5 -62.5 c 128,-1,14
 417 -30 417 -30 417 34 c 2,15,-1
 417 124 l 1,16,-1
 426 124 l 1,17,18
 411 73 411 73 363.5 42.5 c 128,-1,19
 316 12 316 12 256 12 c 0,20,21
 190 12 190 12 141 42.5 c 128,-1,22
 92 73 92 73 65 128 c 128,-1,23
 38 183 38 183 38 256 c 0,24,25
 38 311 38 311 53.5 355.5 c 128,-1,26
 69 400 69 400 97.5 432 c 128,-1,27
 126 464 126 464 166.5 481.5 c 128,-1,28
 207 499 207 499 256 499 c 0,29,30
 318 499 318 499 364.5 468.5 c 128,-1,31
 411 438 411 438 425 388 c 1,32,-1
 415 363 l 1,33,-1
 415 434 l 2,34,35
 415 465 415 465 431.5 481 c 128,-1,36
 448 497 448 497 477 497 c 0,37,38
 507 497 507 497 523 481 c 128,-1,39
 539 465 539 465 539 434 c 2,40,-1
 539 49 l 2,41,42
 539 -70 539 -70 476 -130 c 128,-1,43
 413 -190 413 -190 293 -190 c 0,0,1
290 107 m 0,44,45
 329 107 329 107 357 125 c 128,-1,46
 385 143 385 143 400.5 176.5 c 128,-1,47
 416 210 416 210 416 256 c 0,48,49
 416 325 416 325 382 364.5 c 128,-1,50
 348 404 348 404 290 404 c 0,51,52
 251 404 251 404 223 386 c 128,-1,53
 195 368 195 368 179.5 335 c 128,-1,54
 164 302 164 302 164 256 c 0,55,56
 164 187 164 187 198 147 c 128,-1,57
 232 107 232 107 290 107 c 0,44,45
EndSplineSet
EndChar

StartChar: uni01E5
Encoding: 485 485 322
Width: 604
GlyphClass: 1
Flags: W
LayerCount: 2
Fore
SplineSet
293 -190 m 0,0,1
 239 -190 239 -190 189.5 -180.5 c 128,-1,2
 140 -171 140 -171 97 -149 c 0,3,4
 78 -139 78 -139 71.5 -125 c 128,-1,5
 65 -111 65 -111 68 -96 c 128,-1,6
 71 -81 71 -81 80.5 -70 c 128,-1,7
 90 -59 90 -59 103.5 -55.5 c 128,-1,8
 117 -52 117 -52 132 -60 c 0,9,10
 167 -79 167 -79 211 -87 c 128,-1,11
 255 -95 255 -95 283 -95 c 0,12,13
 324 -95 324 -95 352 -83 c 128,-1,14
 380 -71 380 -71 396 -48 c 1,15,-1
 402 -57 l 1,16,-1
 325 -57 l 2,17,18
 308 -57 308 -57 296.5 -45.5 c 128,-1,19
 285 -34 285 -34 285 -18 c 0,20,21
 285 -1 285 -1 296.5 10 c 128,-1,22
 308 21 308 21 325 21 c 2,23,-1
 424 21 l 1,24,-1
 413 -6 l 1,25,26
 415 4 415 4 416 13 c 128,-1,27
 417 22 417 22 417 34 c 2,28,-1
 417 154 l 1,29,-1
 425 154 l 1,30,31
 411 104 411 104 364.5 73.5 c 128,-1,32
 318 43 318 43 257 43 c 0,33,34
 192 43 192 43 142.5 72.5 c 128,-1,35
 93 102 93 102 65.5 154 c 128,-1,36
 38 206 38 206 38 271 c 0,37,38
 38 320 38 320 53.5 361.5 c 128,-1,39
 69 403 69 403 98 434 c 128,-1,40
 127 465 127 465 167.5 482 c 128,-1,41
 208 499 208 499 257 499 c 0,42,43
 318 499 318 499 364.5 468.5 c 128,-1,44
 411 438 411 438 425 388 c 1,45,-1
 415 388 l 1,46,-1
 415 436 l 2,47,48
 415 465 415 465 431.5 481 c 128,-1,49
 448 497 448 497 477 497 c 0,50,51
 507 497 507 497 523 481 c 128,-1,52
 539 465 539 465 539 436 c 2,53,-1
 539 49 l 2,54,55
 539 31 539 31 537.5 16 c 128,-1,56
 536 1 536 1 534 -13 c 1,57,-1
 526 21 l 1,58,-1
 564 21 l 2,59,60
 581 21 581 21 592.5 10 c 128,-1,61
 604 -1 604 -1 604 -18 c 0,62,63
 604 -34 604 -34 592.5 -45.5 c 128,-1,64
 581 -57 581 -57 564 -57 c 2,65,-1
 504 -57 l 1,66,-1
 526 -47 l 1,67,68
 503 -119 503 -119 444.5 -154.5 c 128,-1,69
 386 -190 386 -190 293 -190 c 0,0,1
290 138 m 0,70,71
 327 138 327 138 355 155 c 128,-1,72
 383 172 383 172 399 202 c 128,-1,73
 415 232 415 232 415 271 c 0,74,75
 415 330 415 330 380.5 367 c 128,-1,76
 346 404 346 404 290 404 c 0,77,78
 253 404 253 404 224.5 387.5 c 128,-1,79
 196 371 196 371 180 341 c 128,-1,80
 164 311 164 311 164 271 c 0,81,82
 164 211 164 211 199.5 174.5 c 128,-1,83
 235 138 235 138 290 138 c 0,70,71
EndSplineSet
EndChar

StartChar: h
Encoding: 104 104 323
Width: 585
GlyphClass: 2
Flags: W
AnchorPoint: "Anchor-5" 294 248 basechar 0
AnchorPoint: "Anchor-4" 178 588 basechar 0
AnchorPoint: "Anchor-2" 294 0 basechar 0
AnchorPoint: "Anchor-1" 220 705 basechar 0
AnchorPoint: "Anchor-0" 294 705 basechar 0
LayerCount: 2
Fore
SplineSet
127 -8 m 0,0,1
 97 -8 97 -8 81 8.5 c 128,-1,2
 65 25 65 25 65 56 c 2,3,-1
 65 650 l 2,4,5
 65 681 65 681 81 697 c 128,-1,6
 97 713 97 713 127 713 c 256,7,8
 157 713 157 713 173.5 697 c 128,-1,9
 190 681 190 681 190 650 c 2,10,-1
 190 391 l 1,11,-1
 176 391 l 1,12,13
 198 444 198 444 244.5 471.5 c 128,-1,14
 291 499 291 499 350 499 c 256,15,16
 409 499 409 499 447 477 c 128,-1,17
 485 455 485 455 504 410.5 c 128,-1,18
 523 366 523 366 523 298 c 2,19,-1
 523 56 l 2,20,21
 523 25 523 25 507 8.5 c 128,-1,22
 491 -8 491 -8 461 -8 c 256,23,24
 431 -8 431 -8 414.5 8.5 c 128,-1,25
 398 25 398 25 398 56 c 2,26,-1
 398 292 l 2,27,28
 398 349 398 349 376.5 375 c 128,-1,29
 355 401 355 401 310 401 c 0,30,31
 255 401 255 401 222.5 366.5 c 128,-1,32
 190 332 190 332 190 275 c 2,33,-1
 190 56 l 2,34,35
 190 -8 190 -8 127 -8 c 0,0,1
EndSplineSet
EndChar

StartChar: hbar
Encoding: 295 295 324
Width: 585
GlyphClass: 1
Flags: W
LayerCount: 2
Fore
SplineSet
127 -8 m 0,0,1
 97 -8 97 -8 81 8.5 c 128,-1,2
 65 25 65 25 65 56 c 2,3,-1
 65 544 l 1,4,-1
 21 544 l 2,5,6
 -2 544 -2 544 -14 555.5 c 128,-1,7
 -26 567 -26 567 -26 588 c 0,8,9
 -26 632 -26 632 21 632 c 2,10,-1
 93 632 l 1,11,-1
 65 584 l 1,12,-1
 65 655 l 2,13,14
 65 682 65 682 81 697.5 c 128,-1,15
 97 713 97 713 127 713 c 256,16,17
 157 713 157 713 173.5 697.5 c 128,-1,18
 190 682 190 682 190 655 c 2,19,-1
 190 584 l 1,20,-1
 162 632 l 1,21,-1
 335 632 l 2,22,23
 358 632 358 632 369.5 620.5 c 128,-1,24
 381 609 381 609 381 588 c 0,25,26
 381 544 381 544 335 544 c 2,27,-1
 190 544 l 1,28,-1
 190 391 l 1,29,-1
 176 391 l 1,30,31
 198 444 198 444 244.5 471.5 c 128,-1,32
 291 499 291 499 350 499 c 256,33,34
 409 499 409 499 447 477 c 128,-1,35
 485 455 485 455 504 410.5 c 128,-1,36
 523 366 523 366 523 298 c 2,37,-1
 523 56 l 2,38,39
 523 25 523 25 507 8.5 c 128,-1,40
 491 -8 491 -8 461 -8 c 256,41,42
 431 -8 431 -8 414.5 8.5 c 128,-1,43
 398 25 398 25 398 56 c 2,44,-1
 398 292 l 2,45,46
 398 349 398 349 376.5 375 c 128,-1,47
 355 401 355 401 310 401 c 0,48,49
 255 401 255 401 222.5 366.5 c 128,-1,50
 190 332 190 332 190 275 c 2,51,-1
 190 56 l 2,52,53
 190 -8 190 -8 127 -8 c 0,0,1
EndSplineSet
EndChar

StartChar: i
Encoding: 105 105 329
Width: 255
GlyphClass: 2
Flags: W
AnchorPoint: "Anchor-3" 164 0 basechar 0
AnchorPoint: "Anchor-2" 127 0 basechar 0
LayerCount: 2
Fore
SplineSet
127 -7 m 0,0,1
 97 -7 97 -7 81 11 c 128,-1,2
 65 29 65 29 65 61 c 2,3,-1
 65 428 l 2,4,5
 65 461 65 461 81 478.5 c 128,-1,6
 97 496 97 496 127 496 c 256,7,8
 157 496 157 496 173.5 478.5 c 128,-1,9
 190 461 190 461 190 428 c 2,10,-1
 190 61 l 2,11,12
 190 29 190 29 174 11 c 128,-1,13
 158 -7 158 -7 127 -7 c 0,0,1
127 589 m 0,14,15
 92 589 92 589 72.5 606.5 c 128,-1,16
 53 624 53 624 53 655 c 0,17,18
 53 687 53 687 72.5 704 c 128,-1,19
 92 721 92 721 127 721 c 0,20,21
 163 721 163 721 182 704 c 128,-1,22
 201 687 201 687 201 655 c 0,23,24
 201 624 201 624 182 606.5 c 128,-1,25
 163 589 163 589 127 589 c 0,14,15
EndSplineSet
Substitution2: "'locl' Localized Forms in Latin lookup 10 subtable" i.loclTRK
Substitution2: "Single Substitution lookup 4 subtable" dotlessi
Substitution2: "Single Substitution lookup 3 subtable" dotlessi
Substitution2: "'aalt' Access All Alternates lookup 0 subtable" i.loclTRK
EndChar

StartChar: dotlessi
Encoding: 305 305 330
Width: 255
GlyphClass: 2
Flags: W
AnchorPoint: "Anchor-3" 164 0 basechar 0
AnchorPoint: "Anchor-2" 127 0 basechar 0
AnchorPoint: "Anchor-0" 127 484 basechar 0
LayerCount: 2
Fore
SplineSet
127 -7 m 0,0,1
 97 -7 97 -7 81 11 c 128,-1,2
 65 29 65 29 65 61 c 2,3,-1
 65 428 l 2,4,5
 65 461 65 461 81 478.5 c 128,-1,6
 97 496 97 496 127 496 c 256,7,8
 157 496 157 496 173.5 478.5 c 128,-1,9
 190 461 190 461 190 428 c 2,10,-1
 190 61 l 2,11,12
 190 29 190 29 174 11 c 128,-1,13
 158 -7 158 -7 127 -7 c 0,0,1
EndSplineSet
EndChar

StartChar: iogonek
Encoding: 303 303 343
Width: 255
GlyphClass: 1
Flags: W
LayerCount: 2
Fore
SplineSet
143 -195 m 0,0,1
 88 -195 88 -195 56.5 -167 c 128,-1,2
 25 -139 25 -139 25 -91 c 0,3,4
 25 -58 25 -58 42 -29 c 128,-1,5
 59 0 59 0 89 21 c 1,6,-1
 86 6 l 1,7,8
 76 15 76 15 70.5 29 c 128,-1,9
 65 43 65 43 65 61 c 2,10,-1
 65 428 l 2,11,12
 65 461 65 461 81 478.5 c 128,-1,13
 97 496 97 496 127 496 c 256,14,15
 157 496 157 496 173.5 478.5 c 128,-1,16
 190 461 190 461 190 428 c 2,17,-1
 190 61 l 2,18,19
 190 38 190 38 181 21.5 c 128,-1,20
 172 5 172 5 156 -4 c 0,21,22
 136 -16 136 -16 120 -34.5 c 128,-1,23
 104 -53 104 -53 104 -77 c 0,24,25
 104 -102 104 -102 120 -115 c 128,-1,26
 136 -128 136 -128 160 -128 c 0,27,28
 167 -128 167 -128 174.5 -127 c 128,-1,29
 182 -126 182 -126 190 -124 c 0,30,31
 208 -119 208 -119 218 -125.5 c 128,-1,32
 228 -132 228 -132 230.5 -144.5 c 128,-1,33
 233 -157 233 -157 227 -168.5 c 128,-1,34
 221 -180 221 -180 206 -186 c 0,35,36
 190 -192 190 -192 173.5 -193.5 c 128,-1,37
 157 -195 157 -195 143 -195 c 0,0,1
127 589 m 0,38,39
 92 589 92 589 72.5 606.5 c 128,-1,40
 53 624 53 624 53 655 c 0,41,42
 53 687 53 687 72.5 704 c 128,-1,43
 92 721 92 721 127 721 c 0,44,45
 163 721 163 721 182 704 c 128,-1,46
 201 687 201 687 201 655 c 0,47,48
 201 624 201 624 182 606.5 c 128,-1,49
 163 589 163 589 127 589 c 0,38,39
EndSplineSet
EndChar

StartChar: j
Encoding: 106 106 345
Width: 259
GlyphClass: 1
Flags: W
LayerCount: 2
Fore
SplineSet
5 -189 m 0,0,1
 -17 -191 -17 -191 -31 -182.5 c 128,-1,2
 -45 -174 -45 -174 -50.5 -161 c 128,-1,3
 -56 -148 -56 -148 -54 -134 c 128,-1,4
 -52 -120 -52 -120 -42.5 -109.5 c 128,-1,5
 -33 -99 -33 -99 -17 -98 c 0,6,7
 28 -94 28 -94 48.5 -72.5 c 128,-1,8
 69 -51 69 -51 69 -7 c 2,9,-1
 69 434 l 2,10,11
 69 465 69 465 85.5 481 c 128,-1,12
 102 497 102 497 132 497 c 256,13,14
 162 497 162 497 178 481 c 128,-1,15
 194 465 194 465 194 434 c 2,16,-1
 194 4 l 2,17,18
 194 -60 194 -60 173.5 -101 c 128,-1,19
 153 -142 153 -142 111.5 -163 c 128,-1,20
 70 -184 70 -184 5 -189 c 0,0,1
131 589 m 0,21,22
 96 589 96 589 76.5 606.5 c 128,-1,23
 57 624 57 624 57 655 c 0,24,25
 57 687 57 687 76.5 704 c 128,-1,26
 96 721 96 721 131 721 c 0,27,28
 167 721 167 721 186 704 c 128,-1,29
 205 687 205 687 205 655 c 0,30,31
 205 624 205 624 186 606.5 c 128,-1,32
 167 589 167 589 131 589 c 0,21,22
EndSplineSet
Substitution2: "Single Substitution lookup 4 subtable" uni0237
Substitution2: "Single Substitution lookup 3 subtable" uni0237
EndChar

StartChar: uni0237
Encoding: 567 567 346
Width: 259
GlyphClass: 2
Flags: W
AnchorPoint: "Anchor-2" 131 0 basechar 0
AnchorPoint: "Anchor-0" 131 484 basechar 0
LayerCount: 2
Fore
SplineSet
5 -189 m 0,0,1
 -17 -191 -17 -191 -31 -182.5 c 128,-1,2
 -45 -174 -45 -174 -50.5 -161 c 128,-1,3
 -56 -148 -56 -148 -54 -134 c 128,-1,4
 -52 -120 -52 -120 -42.5 -109.5 c 128,-1,5
 -33 -99 -33 -99 -17 -98 c 0,6,7
 28 -94 28 -94 48.5 -72.5 c 128,-1,8
 69 -51 69 -51 69 -7 c 2,9,-1
 69 434 l 2,10,11
 69 465 69 465 85.5 481 c 128,-1,12
 102 497 102 497 132 497 c 256,13,14
 162 497 162 497 178 481 c 128,-1,15
 194 465 194 465 194 434 c 2,16,-1
 194 4 l 2,17,18
 194 -60 194 -60 173.5 -101 c 128,-1,19
 153 -142 153 -142 111.5 -163 c 128,-1,20
 70 -184 70 -184 5 -189 c 0,0,1
EndSplineSet
EndChar

StartChar: k
Encoding: 107 107 348
Width: 536
GlyphClass: 2
Flags: W
AnchorPoint: "Anchor-2" 268 0 basechar 0
AnchorPoint: "Anchor-0" 294 705 basechar 0
LayerCount: 2
Fore
SplineSet
127 -8 m 0,0,1
 97 -8 97 -8 81 8.5 c 128,-1,2
 65 25 65 25 65 56 c 2,3,-1
 65 650 l 2,4,5
 65 681 65 681 81 697 c 128,-1,6
 97 713 97 713 127 713 c 256,7,8
 157 713 157 713 173.5 697 c 128,-1,9
 190 681 190 681 190 650 c 2,10,-1
 190 281 l 1,11,-1
 192 281 l 1,12,-1
 357 455 l 2,13,14
 377 475 377 475 392 486 c 128,-1,15
 407 497 407 497 433 497 c 256,16,17
 459 497 459 497 472.5 483.5 c 128,-1,18
 486 470 486 470 486 451 c 128,-1,19
 486 432 486 432 468 413 c 2,20,-1
 294 229 l 1,21,-1
 294 281 l 1,22,-1
 485 75 l 2,23,24
 503 56 503 56 501.5 36.5 c 128,-1,25
 500 17 500 17 485 4.5 c 128,-1,26
 470 -8 470 -8 447 -8 c 0,27,28
 419 -8 419 -8 402.5 3 c 128,-1,29
 386 14 386 14 366 36 c 2,30,-1
 192 218 l 1,31,-1
 190 218 l 1,32,-1
 190 56 l 2,33,34
 190 -8 190 -8 127 -8 c 0,0,1
EndSplineSet
EndChar

StartChar: kgreenlandic
Encoding: 312 312 351
Width: 536
GlyphClass: 2
Flags: W
AnchorPoint: "Anchor-2" 268 0 basechar 0
AnchorPoint: "Anchor-0" 268 484 basechar 0
LayerCount: 2
Fore
SplineSet
127 -8 m 0,0,1
 97 -8 97 -8 81 8.5 c 128,-1,2
 65 25 65 25 65 56 c 2,3,-1
 65 434 l 2,4,5
 65 465 65 465 81 481 c 128,-1,6
 97 497 97 497 127 497 c 256,7,8
 157 497 157 497 173.5 481 c 128,-1,9
 190 465 190 465 190 434 c 2,10,-1
 190 281 l 1,11,-1
 192 281 l 1,12,-1
 357 455 l 2,13,14
 377 475 377 475 392 486 c 128,-1,15
 407 497 407 497 433 497 c 256,16,17
 459 497 459 497 472.5 483.5 c 128,-1,18
 486 470 486 470 486 451 c 128,-1,19
 486 432 486 432 468 413 c 2,20,-1
 294 229 l 1,21,-1
 294 281 l 1,22,-1
 485 75 l 2,23,24
 503 56 503 56 501.5 36.5 c 128,-1,25
 500 17 500 17 485 4.5 c 128,-1,26
 470 -8 470 -8 447 -8 c 0,27,28
 419 -8 419 -8 402.5 3 c 128,-1,29
 386 14 386 14 366 36 c 2,30,-1
 192 218 l 1,31,-1
 190 218 l 1,32,-1
 190 56 l 2,33,34
 190 25 190 25 174 8.5 c 128,-1,35
 158 -8 158 -8 127 -8 c 0,0,1
EndSplineSet
EndChar

StartChar: l
Encoding: 108 108 352
Width: 319
GlyphClass: 2
Flags: W
AnchorPoint: "Anchor-5" 137 357 basechar 0
AnchorPoint: "Anchor-2" 192 0 basechar 0
AnchorPoint: "Anchor-1" 230 705 basechar 0
AnchorPoint: "Anchor-0" 127 705 basechar 0
LayerCount: 2
Fore
SplineSet
232 -10 m 0,0,1
 149 -10 149 -10 107 37.5 c 128,-1,2
 65 85 65 85 65 177 c 2,3,-1
 65 650 l 2,4,5
 65 681 65 681 81 697 c 128,-1,6
 97 713 97 713 127 713 c 256,7,8
 157 713 157 713 173.5 697 c 128,-1,9
 190 681 190 681 190 650 c 2,10,-1
 190 183 l 2,11,12
 190 137 190 137 209.5 115 c 128,-1,13
 229 93 229 93 265 93 c 0,14,15
 273 93 273 93 280 93.5 c 128,-1,16
 287 94 287 94 294 95 c 0,17,18
 308 97 308 97 313 87.5 c 128,-1,19
 318 78 318 78 318 49 c 0,20,21
 318 24 318 24 308 10 c 128,-1,22
 298 -4 298 -4 275 -7 c 0,23,24
 265 -8 265 -8 254 -9 c 128,-1,25
 243 -10 243 -10 232 -10 c 0,0,1
EndSplineSet
Substitution2: "'ss02' Style Set 2 lookup 36 subtable" l.ss02
Substitution2: "'aalt' Access All Alternates lookup 0 subtable" l.ss02
EndChar

StartChar: m
Encoding: 109 109 361
Width: 877
GlyphClass: 2
Flags: W
AnchorPoint: "Anchor-2" 440 0 basechar 0
AnchorPoint: "Anchor-0" 440 484 basechar 0
LayerCount: 2
Fore
SplineSet
129 -8 m 0,0,1
 99 -8 99 -8 83 8.5 c 128,-1,2
 67 25 67 25 67 56 c 2,3,-1
 67 434 l 2,4,5
 67 465 67 465 83 481 c 128,-1,6
 99 497 99 497 128 497 c 256,7,8
 157 497 157 497 173 481 c 128,-1,9
 189 465 189 465 189 434 c 2,10,-1
 189 361 l 1,11,-1
 178 391 l 1,12,13
 198 441 198 441 240 470 c 128,-1,14
 282 499 282 499 340 499 c 0,15,16
 399 499 399 499 437 471 c 128,-1,17
 475 443 475 443 490 385 c 1,18,-1
 476 385 l 1,19,20
 496 438 496 438 542 468.5 c 128,-1,21
 588 499 588 499 648 499 c 0,22,23
 704 499 704 499 740.5 477 c 128,-1,24
 777 455 777 455 795 410.5 c 128,-1,25
 813 366 813 366 813 298 c 2,26,-1
 813 56 l 2,27,28
 813 25 813 25 796.5 8.5 c 128,-1,29
 780 -8 780 -8 750 -8 c 256,30,31
 720 -8 720 -8 704 8.5 c 128,-1,32
 688 25 688 25 688 56 c 2,33,-1
 688 293 l 2,34,35
 688 349 688 349 669.5 375 c 128,-1,36
 651 401 651 401 607 401 c 0,37,38
 558 401 558 401 530 366.5 c 128,-1,39
 502 332 502 332 502 271 c 2,40,-1
 502 56 l 2,41,42
 502 25 502 25 486 8.5 c 128,-1,43
 470 -8 470 -8 440 -8 c 256,44,45
 410 -8 410 -8 393.5 8.5 c 128,-1,46
 377 25 377 25 377 56 c 2,47,-1
 377 293 l 2,48,49
 377 349 377 349 358.5 375 c 128,-1,50
 340 401 340 401 297 401 c 0,51,52
 248 401 248 401 220 366.5 c 128,-1,53
 192 332 192 332 192 271 c 2,54,-1
 192 56 l 2,55,56
 192 -8 192 -8 129 -8 c 0,0,1
EndSplineSet
EndChar

StartChar: n
Encoding: 110 110 363
Width: 585
GlyphClass: 2
Flags: W
AnchorPoint: "Anchor-2" 294 0 basechar 0
AnchorPoint: "Anchor-0" 294 484 basechar 0
LayerCount: 2
Fore
SplineSet
127 -8 m 0,0,1
 97 -8 97 -8 81 8.5 c 128,-1,2
 65 25 65 25 65 56 c 2,3,-1
 65 434 l 2,4,5
 65 465 65 465 81 481 c 128,-1,6
 97 497 97 497 126 497 c 256,7,8
 155 497 155 497 171 481 c 128,-1,9
 187 465 187 465 187 434 c 2,10,-1
 187 366 l 1,11,-1
 176 391 l 1,12,13
 198 444 198 444 244.5 471.5 c 128,-1,14
 291 499 291 499 350 499 c 256,15,16
 409 499 409 499 447 477 c 128,-1,17
 485 455 485 455 504 410.5 c 128,-1,18
 523 366 523 366 523 298 c 2,19,-1
 523 56 l 2,20,21
 523 25 523 25 507 8.5 c 128,-1,22
 491 -8 491 -8 461 -8 c 256,23,24
 431 -8 431 -8 414.5 8.5 c 128,-1,25
 398 25 398 25 398 56 c 2,26,-1
 398 292 l 2,27,28
 398 349 398 349 376.5 375 c 128,-1,29
 355 401 355 401 310 401 c 0,30,31
 255 401 255 401 222.5 366.5 c 128,-1,32
 190 332 190 332 190 275 c 2,33,-1
 190 56 l 2,34,35
 190 -8 190 -8 127 -8 c 0,0,1
EndSplineSet
EndChar

StartChar: eng
Encoding: 331 331 373
Width: 585
GlyphClass: 1
Flags: W
LayerCount: 2
Fore
SplineSet
326 -191 m 0,0,1
 304 -193 304 -193 290.5 -185 c 128,-1,2
 277 -177 277 -177 271.5 -163.5 c 128,-1,3
 266 -150 266 -150 268.5 -136 c 128,-1,4
 271 -122 271 -122 281 -111.5 c 128,-1,5
 291 -101 291 -101 307 -99 c 0,6,7
 355 -92 355 -92 376.5 -72.5 c 128,-1,8
 398 -53 398 -53 398 -7 c 2,9,-1
 398 292 l 2,10,11
 398 349 398 349 376.5 375 c 128,-1,12
 355 401 355 401 310 401 c 0,13,14
 255 401 255 401 222.5 366.5 c 128,-1,15
 190 332 190 332 190 275 c 2,16,-1
 190 56 l 2,17,18
 190 -8 190 -8 127 -8 c 0,19,20
 97 -8 97 -8 81 8.5 c 128,-1,21
 65 25 65 25 65 56 c 2,22,-1
 65 434 l 2,23,24
 65 465 65 465 81 481 c 128,-1,25
 97 497 97 497 126 497 c 256,26,27
 155 497 155 497 171 481 c 128,-1,28
 187 465 187 465 187 434 c 2,29,-1
 187 366 l 1,30,-1
 176 391 l 1,31,32
 198 444 198 444 244.5 471.5 c 128,-1,33
 291 499 291 499 350 499 c 256,34,35
 409 499 409 499 447 477 c 128,-1,36
 485 455 485 455 504 410.5 c 128,-1,37
 523 366 523 366 523 298 c 2,38,-1
 523 4 l 2,39,40
 523 -60 523 -60 502.5 -101 c 128,-1,41
 482 -142 482 -142 438.5 -163.5 c 128,-1,42
 395 -185 395 -185 326 -191 c 0,0,1
EndSplineSet
EndChar

StartChar: o
Encoding: 111 111 374
Width: 576
GlyphClass: 2
Flags: W
AnchorPoint: "Anchor-5" 288 245 basechar 0
AnchorPoint: "Anchor-3" 347 0 basechar 0
AnchorPoint: "Anchor-2" 288 0 basechar 0
AnchorPoint: "Anchor-1" 347 484 basechar 0
AnchorPoint: "Anchor-0" 288 484 basechar 0
LayerCount: 2
Fore
SplineSet
288 -10 m 0,0,1
 212 -10 212 -10 156 21 c 128,-1,2
 100 52 100 52 69 109.5 c 128,-1,3
 38 167 38 167 38 245 c 0,4,5
 38 304 38 304 55.5 350.5 c 128,-1,6
 73 397 73 397 106 430.5 c 128,-1,7
 139 464 139 464 185 481.5 c 128,-1,8
 231 499 231 499 288 499 c 0,9,10
 364 499 364 499 420 468 c 128,-1,11
 476 437 476 437 507 380 c 128,-1,12
 538 323 538 323 538 245 c 0,13,14
 538 186 538 186 520.5 139 c 128,-1,15
 503 92 503 92 470 58.5 c 128,-1,16
 437 25 437 25 391 7.5 c 128,-1,17
 345 -10 345 -10 288 -10 c 0,0,1
288 85 m 0,18,19
 325 85 325 85 353 103 c 128,-1,20
 381 121 381 121 396.5 156.5 c 128,-1,21
 412 192 412 192 412 245 c 0,22,23
 412 325 412 325 378 364.5 c 128,-1,24
 344 404 344 404 288 404 c 0,25,26
 251 404 251 404 223 386.5 c 128,-1,27
 195 369 195 369 179.5 333.5 c 128,-1,28
 164 298 164 298 164 245 c 0,29,30
 164 166 164 166 198 125.5 c 128,-1,31
 232 85 232 85 288 85 c 0,18,19
EndSplineSet
Substitution2: "Single Substitution lookup 29 subtable" ordmasculine
Substitution2: "'aalt' Access All Alternates lookup 0 subtable" ordmasculine
EndChar

StartChar: oslash
Encoding: 248 248 402
Width: 576
GlyphClass: 2
Flags: W
AnchorPoint: "Anchor-5" 289 245 basechar 0
AnchorPoint: "Anchor-0" 288 484 basechar 0
LayerCount: 2
Fore
SplineSet
288 -10 m 0,0,1
 212 -10 212 -10 156 21 c 128,-1,2
 100 52 100 52 69 109.5 c 128,-1,3
 38 167 38 167 38 245 c 0,4,5
 38 304 38 304 55.5 350.5 c 128,-1,6
 73 397 73 397 106 430.5 c 128,-1,7
 139 464 139 464 185 481.5 c 128,-1,8
 231 499 231 499 288 499 c 0,9,10
 364 499 364 499 420 468 c 128,-1,11
 476 437 476 437 507 380 c 128,-1,12
 538 323 538 323 538 245 c 0,13,14
 538 186 538 186 520.5 139 c 128,-1,15
 503 92 503 92 470 58.5 c 128,-1,16
 437 25 437 25 391 7.5 c 128,-1,17
 345 -10 345 -10 288 -10 c 0,0,1
288 85 m 0,18,19
 325 85 325 85 353 103 c 128,-1,20
 381 121 381 121 396.5 156.5 c 128,-1,21
 412 192 412 192 412 245 c 0,22,23
 412 325 412 325 378 364.5 c 128,-1,24
 344 404 344 404 288 404 c 0,25,26
 251 404 251 404 223 386.5 c 128,-1,27
 195 369 195 369 179.5 333.5 c 128,-1,28
 164 298 164 298 164 245 c 0,29,30
 164 166 164 166 198 125.5 c 128,-1,31
 232 85 232 85 288 85 c 0,18,19
171 -34 m 2,32,33
 161 -51 161 -51 145.5 -53.5 c 128,-1,34
 130 -56 130 -56 116.5 -48 c 128,-1,35
 103 -40 103 -40 98 -25 c 128,-1,36
 93 -10 93 -10 104 8 c 2,37,-1
 406 524 l 2,38,39
 416 541 416 541 431.5 543 c 128,-1,40
 447 545 447 545 460.5 537 c 128,-1,41
 474 529 474 529 479.5 514 c 128,-1,42
 485 499 485 499 474 481 c 2,43,-1
 171 -34 l 2,32,33
EndSplineSet
EndChar

StartChar: oe
Encoding: 339 339 408
Width: 915
GlyphClass: 2
Flags: W
AnchorPoint: "Anchor-2" 474 0 basechar 0
AnchorPoint: "Anchor-0" 473 484 basechar 0
LayerCount: 2
Fore
SplineSet
284 -10 m 0,0,1
 210 -10 210 -10 154.5 21 c 128,-1,2
 99 52 99 52 68.5 109.5 c 128,-1,3
 38 167 38 167 38 245 c 0,4,5
 38 304 38 304 55.5 350.5 c 128,-1,6
 73 397 73 397 105.5 430.5 c 128,-1,7
 138 464 138 464 183 481.5 c 128,-1,8
 228 499 228 499 284 499 c 0,9,10
 356 499 356 499 408 467.5 c 128,-1,11
 460 436 460 436 488 378 c 1,12,-1
 460 378 l 1,13,14
 484 431 484 431 537 465 c 128,-1,15
 590 499 590 499 658 499 c 0,16,17
 727 499 727 499 776.5 469 c 128,-1,18
 826 439 826 439 853 384 c 128,-1,19
 880 329 880 329 880 253 c 0,20,21
 880 235 880 235 867.5 225.5 c 128,-1,22
 855 216 855 216 832 216 c 2,23,-1
 518 216 l 1,24,-1
 518 288 l 1,25,-1
 792 288 l 1,26,-1
 776 273 l 1,27,28
 776 319 776 319 762.5 350 c 128,-1,29
 749 381 749 381 723.5 397.5 c 128,-1,30
 698 414 698 414 660 414 c 0,31,32
 618 414 618 414 590.5 394.5 c 128,-1,33
 563 375 563 375 549 339.5 c 128,-1,34
 535 304 535 304 535 255 c 2,35,-1
 535 248 l 2,36,37
 535 166 535 166 571.5 125.5 c 128,-1,38
 608 85 608 85 680 85 c 0,39,40
 706 85 706 85 738.5 91.5 c 128,-1,41
 771 98 771 98 800 114 c 0,42,43
 821 126 821 126 837 124.5 c 128,-1,44
 853 123 853 123 862.5 113 c 128,-1,45
 872 103 872 103 874 88.5 c 128,-1,46
 876 74 876 74 868.5 59 c 128,-1,47
 861 44 861 44 843 33 c 0,48,49
 808 11 808 11 763.5 0.5 c 128,-1,50
 719 -10 719 -10 680 -10 c 0,51,52
 599 -10 599 -10 540.5 22.5 c 128,-1,53
 482 55 482 55 457 116 c 1,54,-1
 488 116 l 1,55,56
 460 57 460 57 408 23.5 c 128,-1,57
 356 -10 356 -10 284 -10 c 0,0,1
288 85 m 0,58,59
 325 85 325 85 353 103 c 128,-1,60
 381 121 381 121 396.5 156.5 c 128,-1,61
 412 192 412 192 412 245 c 0,62,63
 412 325 412 325 378 364.5 c 128,-1,64
 344 404 344 404 288 404 c 0,65,66
 251 404 251 404 223 386.5 c 128,-1,67
 195 369 195 369 179.5 333.5 c 128,-1,68
 164 298 164 298 164 245 c 0,69,70
 164 166 164 166 198 125.5 c 128,-1,71
 232 85 232 85 288 85 c 0,58,59
EndSplineSet
EndChar

StartChar: p
Encoding: 112 112 409
Width: 600
GlyphClass: 2
Flags: W
AnchorPoint: "Anchor-2" 299 0 basechar 0
AnchorPoint: "Anchor-0" 299 484 basechar 0
LayerCount: 2
Fore
SplineSet
127 -188 m 256,0,1
 97 -188 97 -188 81 -172 c 128,-1,2
 65 -156 65 -156 65 -125 c 2,3,-1
 65 434 l 2,4,5
 65 465 65 465 81 481 c 128,-1,6
 97 497 97 497 126 497 c 0,7,8
 156 497 156 497 172 481 c 128,-1,9
 188 465 188 465 188 434 c 2,10,-1
 188 356 l 1,11,-1
 177 386 l 1,12,13
 192 437 192 437 238.5 468 c 128,-1,14
 285 499 285 499 347 499 c 0,15,16
 411 499 411 499 459.5 468 c 128,-1,17
 508 437 508 437 535 380.5 c 128,-1,18
 562 324 562 324 562 245 c 0,19,20
 562 167 562 167 535 109.5 c 128,-1,21
 508 52 508 52 460 21 c 128,-1,22
 412 -10 412 -10 347 -10 c 0,23,24
 286 -10 286 -10 240 20.5 c 128,-1,25
 194 51 194 51 178 100 c 1,26,-1
 190 100 l 1,27,-1
 190 -125 l 2,28,29
 190 -156 190 -156 173.5 -172 c 128,-1,30
 157 -188 157 -188 127 -188 c 256,0,1
312 85 m 0,31,32
 349 85 349 85 377 103 c 128,-1,33
 405 121 405 121 420.5 156.5 c 128,-1,34
 436 192 436 192 436 245 c 0,35,36
 436 325 436 325 402 364.5 c 128,-1,37
 368 404 368 404 312 404 c 0,38,39
 275 404 275 404 247 386.5 c 128,-1,40
 219 369 219 369 203.5 333.5 c 128,-1,41
 188 298 188 298 188 245 c 0,42,43
 188 166 188 166 222 125.5 c 128,-1,44
 256 85 256 85 312 85 c 0,31,32
EndSplineSet
EndChar

StartChar: thorn
Encoding: 254 254 410
Width: 600
GlyphClass: 2
Flags: W
AnchorPoint: "Anchor-2" 301 0 basechar 0
AnchorPoint: "Anchor-0" 301 484 basechar 0
LayerCount: 2
Fore
SplineSet
127 -188 m 256,0,1
 97 -188 97 -188 81 -172 c 128,-1,2
 65 -156 65 -156 65 -125 c 2,3,-1
 65 650 l 2,4,5
 65 681 65 681 81.5 697 c 128,-1,6
 98 713 98 713 127 713 c 0,7,8
 157 713 157 713 173.5 697 c 128,-1,9
 190 681 190 681 190 650 c 2,10,-1
 190 386 l 1,11,-1
 177 386 l 1,12,13
 192 437 192 437 238.5 468 c 128,-1,14
 285 499 285 499 347 499 c 0,15,16
 411 499 411 499 459.5 468 c 128,-1,17
 508 437 508 437 535 380.5 c 128,-1,18
 562 324 562 324 562 245 c 0,19,20
 562 167 562 167 535 109.5 c 128,-1,21
 508 52 508 52 460 21 c 128,-1,22
 412 -10 412 -10 347 -10 c 0,23,24
 286 -10 286 -10 240 20.5 c 128,-1,25
 194 51 194 51 178 100 c 1,26,-1
 190 100 l 1,27,-1
 190 -125 l 2,28,29
 190 -156 190 -156 173.5 -172 c 128,-1,30
 157 -188 157 -188 127 -188 c 256,0,1
312 85 m 0,31,32
 349 85 349 85 377 103 c 128,-1,33
 405 121 405 121 420.5 156.5 c 128,-1,34
 436 192 436 192 436 245 c 0,35,36
 436 325 436 325 402 364.5 c 128,-1,37
 368 404 368 404 312 404 c 0,38,39
 275 404 275 404 247 386.5 c 128,-1,40
 219 369 219 369 203.5 333.5 c 128,-1,41
 188 298 188 298 188 245 c 0,42,43
 188 166 188 166 222 125.5 c 128,-1,44
 256 85 256 85 312 85 c 0,31,32
EndSplineSet
EndChar

StartChar: q
Encoding: 113 113 411
Width: 600
GlyphClass: 2
Flags: W
AnchorPoint: "Anchor-2" 301 0 basechar 0
AnchorPoint: "Anchor-0" 301 484 basechar 0
LayerCount: 2
Fore
SplineSet
472 -188 m 256,0,1
 442 -188 442 -188 426 -172 c 128,-1,2
 410 -156 410 -156 410 -125 c 2,3,-1
 410 100 l 1,4,-1
 421 100 l 1,5,6
 405 51 405 51 359.5 20.5 c 128,-1,7
 314 -10 314 -10 253 -10 c 0,8,9
 189 -10 189 -10 140.5 21 c 128,-1,10
 92 52 92 52 65 109.5 c 128,-1,11
 38 167 38 167 38 245 c 0,12,13
 38 324 38 324 65 380.5 c 128,-1,14
 92 437 92 437 140.5 468 c 128,-1,15
 189 499 189 499 253 499 c 0,16,17
 315 499 315 499 361 468 c 128,-1,18
 407 437 407 437 422 386 c 1,19,-1
 411 356 l 1,20,-1
 411 434 l 2,21,22
 411 465 411 465 427 481 c 128,-1,23
 443 497 443 497 473 497 c 256,24,25
 503 497 503 497 519 481 c 128,-1,26
 535 465 535 465 535 434 c 2,27,-1
 535 -125 l 2,28,29
 535 -156 535 -156 518.5 -172 c 128,-1,30
 502 -188 502 -188 472 -188 c 256,0,1
288 85 m 0,31,32
 325 85 325 85 353 103 c 128,-1,33
 381 121 381 121 396.5 156.5 c 128,-1,34
 412 192 412 192 412 245 c 0,35,36
 412 325 412 325 378 364.5 c 128,-1,37
 344 404 344 404 288 404 c 0,38,39
 251 404 251 404 223 386.5 c 128,-1,40
 195 369 195 369 179.5 333.5 c 128,-1,41
 164 298 164 298 164 245 c 0,42,43
 164 166 164 166 198 125.5 c 128,-1,44
 232 85 232 85 288 85 c 0,31,32
EndSplineSet
EndChar

StartChar: r
Encoding: 114 114 412
Width: 392
GlyphClass: 2
Flags: W
AnchorPoint: "Anchor-2" 128 0 basechar 0
AnchorPoint: "Anchor-0" 227 484 basechar 0
LayerCount: 2
Fore
SplineSet
129 -8 m 256,0,1
 98 -8 98 -8 81.5 8.5 c 128,-1,2
 65 25 65 25 65 56 c 2,3,-1
 65 434 l 2,4,5
 65 465 65 465 81 481 c 128,-1,6
 97 497 97 497 126 497 c 256,7,8
 155 497 155 497 171 481 c 128,-1,9
 187 465 187 465 187 434 c 2,10,-1
 187 371 l 1,11,-1
 177 371 l 1,12,13
 191 431 191 431 232 462 c 128,-1,14
 273 493 273 493 341 499 c 0,15,16
 362 501 362 501 374.5 488.5 c 128,-1,17
 387 476 387 476 389 450 c 0,18,19
 391 425 391 425 377.5 409.5 c 128,-1,20
 364 394 364 394 337 391 c 2,21,-1
 315 389 l 2,22,23
 254 383 254 383 223 351.5 c 128,-1,24
 192 320 192 320 192 263 c 2,25,-1
 192 56 l 2,26,27
 192 25 192 25 176 8.5 c 128,-1,28
 160 -8 160 -8 129 -8 c 256,0,1
EndSplineSet
EndChar

StartChar: s
Encoding: 115 115 420
Width: 488
GlyphClass: 2
Flags: W
AnchorPoint: "Anchor-2" 244 0 basechar 0
AnchorPoint: "Anchor-0" 253 484 basechar 0
LayerCount: 2
Fore
SplineSet
244 -10 m 0,0,1
 201 -10 201 -10 153 -1 c 128,-1,2
 105 8 105 8 67 30 c 0,3,4
 51 40 51 40 44.5 53.5 c 128,-1,5
 38 67 38 67 39.5 80.5 c 128,-1,6
 41 94 41 94 49.5 104 c 128,-1,7
 58 114 58 114 71.5 117 c 128,-1,8
 85 120 85 120 101 112 c 0,9,10
 141 93 141 93 176 85.5 c 128,-1,11
 211 78 211 78 245 78 c 0,12,13
 293 78 293 78 316.5 94.5 c 128,-1,14
 340 111 340 111 340 138 c 0,15,16
 340 161 340 161 324.5 173.5 c 128,-1,17
 309 186 309 186 278 192 c 2,18,-1
 178 211 l 2,19,20
 116 223 116 223 83.5 256.5 c 128,-1,21
 51 290 51 290 51 343 c 0,22,23
 51 391 51 391 77.5 426 c 128,-1,24
 104 461 104 461 151 480 c 128,-1,25
 198 499 198 499 259 499 c 0,26,27
 303 499 303 499 341.5 489.5 c 128,-1,28
 380 480 380 480 416 460 c 0,29,30
 431 452 431 452 436.5 439 c 128,-1,31
 442 426 442 426 439 412.5 c 128,-1,32
 436 399 436 399 427 388.5 c 128,-1,33
 418 378 418 378 404.5 375.5 c 128,-1,34
 391 373 391 373 374 381 c 0,35,36
 343 397 343 397 314.5 404 c 128,-1,37
 286 411 286 411 260 411 c 0,38,39
 211 411 211 411 187.5 394 c 128,-1,40
 164 377 164 377 164 349 c 0,41,42
 164 328 164 328 178 314 c 128,-1,43
 192 300 192 300 221 295 c 2,44,-1
 321 276 l 2,45,46
 386 264 386 264 419.5 232 c 128,-1,47
 453 200 453 200 453 146 c 0,48,49
 453 73 453 73 396 31.5 c 128,-1,50
 339 -10 339 -10 244 -10 c 0,0,1
EndSplineSet
EndChar

StartChar: germandbls
Encoding: 223 223 431
Width: 653
GlyphClass: 1
Flags: W
LayerCount: 2
Fore
SplineSet
436 -10 m 0,0,1
 393 -10 393 -10 348.5 1 c 128,-1,2
 304 12 304 12 267 34 c 0,3,4
 251 44 251 44 245 58 c 128,-1,5
 239 72 239 72 241.5 86.5 c 128,-1,6
 244 101 244 101 253.5 111.5 c 128,-1,7
 263 122 263 122 277 124.5 c 128,-1,8
 291 127 291 127 307 118 c 0,9,10
 340 99 340 99 375.5 91.5 c 128,-1,11
 411 84 411 84 438 84 c 0,12,13
 475 84 475 84 496 99 c 128,-1,14
 517 114 517 114 517 142 c 0,15,16
 517 165 517 165 496.5 180.5 c 128,-1,17
 476 196 476 196 422 212 c 0,18,19
 343 236 343 236 311 269 c 128,-1,20
 279 302 279 302 279 351 c 0,21,22
 279 372 279 372 285 392 c 128,-1,23
 291 412 291 412 307 434 c 128,-1,24
 323 456 323 456 351 482 c 0,25,26
 377 507 377 507 387.5 525.5 c 128,-1,27
 398 544 398 544 398 565 c 0,28,29
 398 592 398 592 378.5 608 c 128,-1,30
 359 624 359 624 321 624 c 0,31,32
 257 624 257 624 223.5 586 c 128,-1,33
 190 548 190 548 190 478 c 2,34,-1
 190 56 l 2,35,36
 190 25 190 25 173.5 8.5 c 128,-1,37
 157 -8 157 -8 127 -8 c 256,38,39
 97 -8 97 -8 81 8.5 c 128,-1,40
 65 25 65 25 65 56 c 2,41,-1
 65 459 l 2,42,43
 65 582 65 582 131.5 648.5 c 128,-1,44
 198 715 198 715 322 715 c 0,45,46
 383 715 383 715 426.5 698 c 128,-1,47
 470 681 470 681 493 650 c 128,-1,48
 516 619 516 619 516 576 c 0,49,50
 516 541 516 541 501 511 c 128,-1,51
 486 481 486 481 448 446 c 0,52,53
 427 426 427 426 415 412.5 c 128,-1,54
 403 399 403 399 398.5 388.5 c 128,-1,55
 394 378 394 378 394 366 c 0,56,57
 394 345 394 345 414.5 329.5 c 128,-1,58
 435 314 435 314 492 297 c 0,59,60
 566 275 566 275 598.5 239 c 128,-1,61
 631 203 631 203 631 149 c 0,62,63
 631 101 631 101 607 65.5 c 128,-1,64
 583 30 583 30 539 10 c 128,-1,65
 495 -10 495 -10 436 -10 c 0,0,1
EndSplineSet
Substitution2: "Single Substitution lookup 39 subtable" germandbls.calt
Substitution2: "Single Substitution lookup 38 subtable" germandbls.calt
Substitution2: "'aalt' Access All Alternates lookup 0 subtable" germandbls.calt
EndChar

StartChar: t
Encoding: 116 116 432
Width: 384
GlyphClass: 2
Flags: W
AnchorPoint: "Anchor-5" 180 261 basechar 0
AnchorPoint: "Anchor-2" 230 0 basechar 0
AnchorPoint: "Anchor-1" 275 705 basechar 0
AnchorPoint: "Anchor-0" 158 635 basechar 0
LayerCount: 2
Fore
SplineSet
289 -10 m 0,0,1
 224 -10 224 -10 180.5 12 c 128,-1,2
 137 34 137 34 116 76.5 c 128,-1,3
 95 119 95 119 95 182 c 2,4,-1
 95 395 l 1,5,-1
 43 395 l 2,6,7
 19 395 19 395 6 407.5 c 128,-1,8
 -7 420 -7 420 -7 442 c 0,9,10
 -7 465 -7 465 6 477 c 128,-1,11
 19 489 19 489 43 489 c 2,12,-1
 95 489 l 1,13,-1
 95 580 l 2,14,15
 95 611 95 611 111.5 627 c 128,-1,16
 128 643 128 643 158 643 c 256,17,18
 188 643 188 643 204 627 c 128,-1,19
 220 611 220 611 220 580 c 2,20,-1
 220 489 l 1,21,-1
 326 489 l 2,22,23
 350 489 350 489 363 477 c 128,-1,24
 376 465 376 465 376 442 c 0,25,26
 376 420 376 420 363 407.5 c 128,-1,27
 350 395 350 395 326 395 c 2,28,-1
 220 395 l 1,29,-1
 220 189 l 2,30,31
 220 141 220 141 241 117 c 128,-1,32
 262 93 262 93 309 93 c 0,33,34
 326 93 326 93 339 96 c 128,-1,35
 352 99 352 99 362 100 c 0,36,37
 374 101 374 101 382 92.5 c 128,-1,38
 390 84 390 84 390 58 c 0,39,40
 390 38 390 38 383.5 22.5 c 128,-1,41
 377 7 377 7 360 1 c 0,42,43
 347 -3 347 -3 326 -6.5 c 128,-1,44
 305 -10 305 -10 289 -10 c 0,0,1
EndSplineSet
EndChar

StartChar: u
Encoding: 117 117 440
Width: 579
GlyphClass: 2
Flags: W
AnchorPoint: "Anchor-3" 479 0 basechar 0
AnchorPoint: "Anchor-2" 289 0 basechar 0
AnchorPoint: "Anchor-1" 421 484 basechar 0
AnchorPoint: "Anchor-0" 289 485 basechar 0
LayerCount: 2
Fore
SplineSet
242 -10 m 0,0,1
 181 -10 181 -10 141 12.5 c 128,-1,2
 101 35 101 35 81.5 80 c 128,-1,3
 62 125 62 125 62 192 c 2,4,-1
 62 434 l 2,5,6
 62 466 62 466 78 481.5 c 128,-1,7
 94 497 94 497 124 497 c 256,8,9
 154 497 154 497 170.5 481.5 c 128,-1,10
 187 466 187 466 187 434 c 2,11,-1
 187 190 l 2,12,13
 187 138 187 138 208 113 c 128,-1,14
 229 88 229 88 275 88 c 0,15,16
 325 88 325 88 357 122.5 c 128,-1,17
 389 157 389 157 389 214 c 2,18,-1
 389 434 l 2,19,20
 389 466 389 466 405 481.5 c 128,-1,21
 421 497 421 497 451 497 c 256,22,23
 481 497 481 497 497.5 481.5 c 128,-1,24
 514 466 514 466 514 434 c 2,25,-1
 514 56 l 2,26,27
 514 -8 514 -8 453 -8 c 0,28,29
 424 -8 424 -8 408 8.5 c 128,-1,30
 392 25 392 25 392 56 c 2,31,-1
 392 132 l 1,32,-1
 406 102 l 1,33,34
 385 48 385 48 342.5 19 c 128,-1,35
 300 -10 300 -10 242 -10 c 0,0,1
EndSplineSet
EndChar

StartChar: uhorn
Encoding: 432 432 450
Width: 579
GlyphClass: 2
Flags: W
AnchorPoint: "Anchor-2" 290 0 basechar 0
AnchorPoint: "Anchor-0" 289 484 basechar 0
LayerCount: 2
Fore
SplineSet
242 -10 m 0,0,1
 181 -10 181 -10 141 12.5 c 128,-1,2
 101 35 101 35 81.5 80 c 128,-1,3
 62 125 62 125 62 192 c 2,4,-1
 62 434 l 2,5,6
 62 465 62 465 78 481 c 128,-1,7
 94 497 94 497 124 497 c 256,8,9
 154 497 154 497 170.5 481 c 128,-1,10
 187 465 187 465 187 434 c 2,11,-1
 187 190 l 2,12,13
 187 138 187 138 208 113 c 128,-1,14
 229 88 229 88 275 88 c 0,15,16
 325 88 325 88 357 122.5 c 128,-1,17
 389 157 389 157 389 214 c 2,18,-1
 389 428 l 2,19,20
 389 459 389 459 405 472.5 c 128,-1,21
 421 486 421 486 451 491 c 0,22,23
 473 495 473 495 488 504.5 c 128,-1,24
 503 514 503 514 510.5 531.5 c 128,-1,25
 518 549 518 549 518 578 c 0,26,27
 518 619 518 619 573 619 c 0,28,29
 599 619 599 619 613 609 c 128,-1,30
 627 599 627 599 627 579 c 0,31,32
 627 520 627 520 597 480 c 128,-1,33
 567 440 567 440 514 428 c 1,34,-1
 514 56 l 2,35,36
 514 -8 514 -8 453 -8 c 0,37,38
 424 -8 424 -8 408 8.5 c 128,-1,39
 392 25 392 25 392 56 c 2,40,-1
 392 132 l 1,41,-1
 406 102 l 1,42,43
 385 48 385 48 342.5 19 c 128,-1,44
 300 -10 300 -10 242 -10 c 0,0,1
EndSplineSet
EndChar

StartChar: uogonek
Encoding: 371 371 460
Width: 579
GlyphClass: 1
Flags: W
LayerCount: 2
Fore
SplineSet
392 132 m 1,0,-1
 406 102 l 1,1,2
 385 48 385 48 342.5 19 c 128,-1,3
 300 -10 300 -10 242 -10 c 0,4,5
 181 -10 181 -10 141 12.5 c 128,-1,6
 101 35 101 35 81.5 80 c 128,-1,7
 62 125 62 125 62 192 c 2,8,-1
 62 434 l 2,9,10
 62 465 62 465 78 481 c 128,-1,11
 94 497 94 497 124 497 c 256,12,13
 154 497 154 497 170.5 481 c 128,-1,14
 187 465 187 465 187 434 c 2,15,-1
 187 190 l 2,16,17
 187 138 187 138 208 113 c 128,-1,18
 229 88 229 88 275 88 c 0,19,20
 325 88 325 88 357 122.5 c 128,-1,21
 389 157 389 157 389 214 c 2,22,-1
 389 434 l 2,23,24
 389 465 389 465 405 481 c 128,-1,25
 421 497 421 497 451 497 c 256,26,27
 481 497 481 497 497.5 481 c 128,-1,28
 514 465 514 465 514 434 c 2,29,-1
 514 56 l 2,30,31
 514 29 514 29 503.5 15 c 128,-1,32
 493 1 493 1 474 -7 c 0,33,34
 451 -16 451 -16 435 -34.5 c 128,-1,35
 419 -53 419 -53 419 -77 c 0,36,37
 419 -102 419 -102 435 -115 c 128,-1,38
 451 -128 451 -128 475 -128 c 0,39,40
 482 -128 482 -128 489.5 -127 c 128,-1,41
 497 -126 497 -126 505 -124 c 0,42,43
 523 -119 523 -119 533 -125.5 c 128,-1,44
 543 -132 543 -132 545.5 -144.5 c 128,-1,45
 548 -157 548 -157 542 -168.5 c 128,-1,46
 536 -180 536 -180 521 -186 c 0,47,48
 505 -192 505 -192 488.5 -193.5 c 128,-1,49
 472 -195 472 -195 458 -195 c 0,50,51
 403 -195 403 -195 371.5 -167 c 128,-1,52
 340 -139 340 -139 340 -91 c 0,53,54
 340 -56 340 -56 360 -24.5 c 128,-1,55
 380 7 380 7 414 28 c 1,56,-1
 407 9 l 1,57,58
 399 19 399 19 395.5 30 c 128,-1,59
 392 41 392 41 392 56 c 2,60,-1
 392 132 l 1,0,-1
EndSplineSet
EndChar

StartChar: v
Encoding: 118 118 464
Width: 527
GlyphClass: 2
Flags: W
AnchorPoint: "Anchor-2" 265 0 basechar 0
AnchorPoint: "Anchor-0" 265 484 basechar 0
LayerCount: 2
Fore
SplineSet
263 -8 m 0,0,1
 238 -8 238 -8 219.5 5 c 128,-1,2
 201 18 201 18 189 45 c 2,3,-1
 30 414 l 2,4,5
 21 436 21 436 23.5 455 c 128,-1,6
 26 474 26 474 41.5 485.5 c 128,-1,7
 57 497 57 497 84 497 c 0,8,9
 107 497 107 497 121 486.5 c 128,-1,10
 135 476 135 476 146 447 c 2,11,-1
 281 110 l 1,12,-1
 251 110 l 1,13,-1
 390 448 l 2,14,15
 401 476 401 476 415.5 486.5 c 128,-1,16
 430 497 430 497 455 497 c 0,17,18
 477 497 477 497 490 485.5 c 128,-1,19
 503 474 503 474 506 455.5 c 128,-1,20
 509 437 509 437 499 415 c 2,21,-1
 337 45 l 2,22,23
 326 18 326 18 307.5 5 c 128,-1,24
 289 -8 289 -8 263 -8 c 0,0,1
EndSplineSet
EndChar

StartChar: w
Encoding: 119 119 465
Width: 853
GlyphClass: 2
Flags: W
AnchorPoint: "Anchor-2" 427 0 basechar 0
AnchorPoint: "Anchor-0" 427 484 basechar 0
LayerCount: 2
Fore
SplineSet
254 -8 m 0,0,1
 229 -8 229 -8 211 4.5 c 128,-1,2
 193 17 193 17 182 44 c 2,3,-1
 37 414 l 2,4,5
 28 438 28 438 31.5 456.5 c 128,-1,6
 35 475 35 475 50 486 c 128,-1,7
 65 497 65 497 90 497 c 0,8,9
 112 497 112 497 126 486.5 c 128,-1,10
 140 476 140 476 150 447 c 2,11,-1
 271 114 l 1,12,-1
 248 114 l 1,13,-1
 373 455 l 2,14,15
 381 477 381 477 394.5 487 c 128,-1,16
 408 497 408 497 430 497 c 256,17,18
 452 497 452 497 466 486.5 c 128,-1,19
 480 476 480 476 487 455 c 2,20,-1
 610 114 l 1,21,-1
 589 114 l 1,22,-1
 711 450 l 2,23,24
 721 477 721 477 736.5 487 c 128,-1,25
 752 497 752 497 771 497 c 0,26,27
 795 497 795 497 808 485 c 128,-1,28
 821 473 821 473 823 454.5 c 128,-1,29
 825 436 825 436 816 414 c 2,30,-1
 672 44 l 2,31,32
 662 18 662 18 643.5 5 c 128,-1,33
 625 -8 625 -8 600 -8 c 256,34,35
 575 -8 575 -8 556.5 5 c 128,-1,36
 538 18 538 18 528 44 c 2,37,-1
 397 391 l 1,38,-1
 454 391 l 1,39,-1
 326 45 l 2,40,41
 316 18 316 18 298 5 c 128,-1,42
 280 -8 280 -8 254 -8 c 0,0,1
EndSplineSet
EndChar

StartChar: x
Encoding: 120 120 470
Width: 546
GlyphClass: 2
Flags: W
AnchorPoint: "Anchor-2" 274 0 basechar 0
AnchorPoint: "Anchor-0" 274 484 basechar 0
LayerCount: 2
Fore
SplineSet
99 -5 m 0,0,1
 77 -5 77 -5 62.5 7.5 c 128,-1,2
 48 20 48 20 47.5 40 c 128,-1,3
 47 60 47 60 64 82 c 2,4,-1
 226 282 l 1,5,-1
 226 223 l 1,6,-1
 74 410 l 2,7,8
 56 432 56 432 57 452 c 128,-1,9
 58 472 58 472 72.5 484.5 c 128,-1,10
 87 497 87 497 109 497 c 0,11,12
 132 497 132 497 147.5 489 c 128,-1,13
 163 481 163 481 176 464 c 2,14,-1
 296 310 l 1,15,-1
 252 310 l 1,16,-1
 373 464 l 2,17,18
 387 481 387 481 402 489 c 128,-1,19
 417 497 417 497 439 497 c 0,20,21
 462 497 462 497 476 484 c 128,-1,22
 490 471 490 471 490.5 451 c 128,-1,23
 491 431 491 431 473 409 c 2,24,-1
 322 224 l 1,25,-1
 322 280 l 1,26,-1
 484 82 l 2,27,28
 502 61 502 61 501 41 c 128,-1,29
 500 21 500 21 485.5 8 c 128,-1,30
 471 -5 471 -5 448 -5 c 0,31,32
 426 -5 426 -5 411 3 c 128,-1,33
 396 11 396 11 382 28 c 2,34,-1
 252 192 l 1,35,-1
 294 192 l 1,36,-1
 165 28 l 2,37,38
 152 12 152 12 137 3.5 c 128,-1,39
 122 -5 122 -5 99 -5 c 0,0,1
EndSplineSet
EndChar

StartChar: y
Encoding: 121 121 471
Width: 526
GlyphClass: 2
Flags: W
AnchorPoint: "Anchor-2" 410 0 basechar 0
AnchorPoint: "Anchor-0" 264 484 basechar 0
LayerCount: 2
Fore
SplineSet
189 -188 m 0,0,1
 167 -188 167 -188 153 -176.5 c 128,-1,2
 139 -165 139 -165 136.5 -146 c 128,-1,3
 134 -127 134 -127 143 -106 c 2,4,-1
 211 45 l 1,5,-1
 211 -7 l 1,6,-1
 29 414 l 2,7,8
 20 436 20 436 23 455 c 128,-1,9
 26 474 26 474 41.5 485.5 c 128,-1,10
 57 497 57 497 84 497 c 0,11,12
 107 497 107 497 121 486.5 c 128,-1,13
 135 476 135 476 146 447 c 2,14,-1
 281 110 l 1,15,-1
 251 110 l 1,16,-1
 389 448 l 2,17,18
 400 476 400 476 415 486.5 c 128,-1,19
 430 497 430 497 455 497 c 0,20,21
 477 497 477 497 490 485.5 c 128,-1,22
 503 474 503 474 506 455.5 c 128,-1,23
 509 437 509 437 499 415 c 2,24,-1
 256 -140 l 2,25,26
 243 -168 243 -168 228 -178 c 128,-1,27
 213 -188 213 -188 189 -188 c 0,0,1
EndSplineSet
EndChar

StartChar: uni01B4
Encoding: 436 436 478
Width: 571
GlyphClass: 1
Flags: W
LayerCount: 2
Fore
SplineSet
189 -188 m 0,0,1
 167 -188 167 -188 153 -176 c 128,-1,2
 139 -164 139 -164 136.5 -144.5 c 128,-1,3
 134 -125 134 -125 144 -104 c 2,4,-1
 211 45 l 1,5,-1
 211 -7 l 1,6,-1
 28 414 l 2,7,8
 19 436 19 436 22 455 c 128,-1,9
 25 474 25 474 41 485.5 c 128,-1,10
 57 497 57 497 84 497 c 0,11,12
 107 497 107 497 121 486.5 c 128,-1,13
 135 476 135 476 146 447 c 2,14,-1
 281 110 l 1,15,-1
 251 110 l 1,16,-1
 364 384 l 2,17,18
 379 420 379 420 400 445.5 c 128,-1,19
 421 471 421 471 453 485 c 128,-1,20
 485 499 485 499 531 499 c 0,21,22
 580 499 580 499 596 486 c 128,-1,23
 612 473 612 473 612 450 c 0,24,25
 612 426 612 426 604 412.5 c 128,-1,26
 596 399 596 399 579 399 c 0,27,28
 574 399 574 399 566 400 c 128,-1,29
 558 401 558 401 547 401 c 0,30,31
 519 401 519 401 498.5 385 c 128,-1,32
 478 369 478 369 461 330 c 2,33,-1
 256 -140 l 2,34,35
 244 -168 244 -168 228.5 -178 c 128,-1,36
 213 -188 213 -188 189 -188 c 0,0,1
EndSplineSet
EndChar

StartChar: z
Encoding: 122 122 482
Width: 474
GlyphClass: 2
Flags: W
AnchorPoint: "Anchor-2" 243 0 basechar 0
AnchorPoint: "Anchor-0" 243 484 basechar 0
LayerCount: 2
Fore
SplineSet
95 0 m 2,0,1
 76 0 76 0 63.5 9.5 c 128,-1,2
 51 19 51 19 47 34 c 128,-1,3
 43 49 43 49 47.5 66.5 c 128,-1,4
 52 84 52 84 66 100 c 2,5,-1
 325 425 l 1,6,-1
 325 395 l 1,7,-1
 89 395 l 2,8,9
 66 395 66 395 53.5 407.5 c 128,-1,10
 41 420 41 420 41 442 c 0,11,12
 41 465 41 465 53.5 477 c 128,-1,13
 66 489 66 489 89 489 c 2,14,-1
 385 489 l 2,15,16
 407 489 407 489 421 479.5 c 128,-1,17
 435 470 435 470 439.5 455 c 128,-1,18
 444 440 444 440 440 423 c 128,-1,19
 436 406 436 406 422 391 c 2,20,-1
 158 61 l 1,21,-1
 158 94 l 1,22,-1
 408 94 l 2,23,24
 456 94 456 94 456 47 c 0,25,26
 456 25 456 25 443.5 12.5 c 128,-1,27
 431 0 431 0 408 0 c 2,28,-1
 95 0 l 2,0,1
EndSplineSet
EndChar

StartChar: germandbls.calt
Encoding: 65540 -1 487
Width: 730
GlyphClass: 1
Flags: W
LayerCount: 2
Fore
SplineSet
452 -10 m 0,0,1
 403 -10 403 -10 360.5 0.5 c 128,-1,2
 318 11 318 11 286 30 c 0,3,4
 269 41 269 41 263.5 56 c 128,-1,5
 258 71 258 71 261 86 c 128,-1,6
 264 101 264 101 273.5 112.5 c 128,-1,7
 283 124 283 124 296.5 127.5 c 128,-1,8
 310 131 310 131 326 122 c 0,9,10
 355 106 355 106 382 99.5 c 128,-1,11
 409 93 409 93 439 93 c 0,12,13
 495 93 495 93 524.5 121.5 c 128,-1,14
 554 150 554 150 554 199 c 0,15,16
 554 250 554 250 520.5 276.5 c 128,-1,17
 487 303 487 303 417 303 c 2,18,-1
 345 303 l 2,19,20
 323 303 323 303 308.5 316 c 128,-1,21
 294 329 294 329 294 354 c 256,22,23
 294 379 294 379 307 391 c 128,-1,24
 320 403 320 403 340 403 c 2,25,-1
 398 403 l 2,26,27
 453 403 453 403 485 430 c 128,-1,28
 517 457 517 457 517 507 c 0,29,30
 517 558 517 558 481.5 584.5 c 128,-1,31
 446 611 446 611 378 611 c 0,32,33
 292 611 292 611 248.5 571 c 128,-1,34
 205 531 205 531 205 449 c 2,35,-1
 205 58 l 2,36,37
 205 27 205 27 188.5 9.5 c 128,-1,38
 172 -8 172 -8 141 -8 c 256,39,40
 110 -8 110 -8 93.5 9.5 c 128,-1,41
 77 27 77 27 77 58 c 2,42,-1
 77 450 l 2,43,44
 77 537 77 537 113 596 c 128,-1,45
 149 655 149 655 217.5 685 c 128,-1,46
 286 715 286 715 384 715 c 0,47,48
 463 715 463 715 520.5 692 c 128,-1,49
 578 669 578 669 609.5 626.5 c 128,-1,50
 641 584 641 584 641 525 c 0,51,52
 641 463 641 463 607.5 417 c 128,-1,53
 574 371 574 371 515 354 c 1,54,-1
 515 371 l 1,55,56
 565 366 565 366 601.5 342.5 c 128,-1,57
 638 319 638 319 658 280.5 c 128,-1,58
 678 242 678 242 678 191 c 0,59,60
 678 127 678 127 651 82.5 c 128,-1,61
 624 38 624 38 573.5 14 c 128,-1,62
 523 -10 523 -10 452 -10 c 0,0,1
EndSplineSet
EndChar

StartChar: a.ss01
Encoding: 65542 -1 489
Width: 600
GlyphClass: 2
Flags: W
AnchorPoint: "Anchor-3" 501 0 basechar 0
AnchorPoint: "Anchor-2" 298 0 basechar 0
AnchorPoint: "Anchor-0" 298 484 basechar 0
LayerCount: 2
Fore
SplineSet
253 -10 m 0,0,1
 189 -10 189 -10 140.5 21 c 128,-1,2
 92 52 92 52 65 109.5 c 128,-1,3
 38 167 38 167 38 245 c 0,4,5
 38 324 38 324 65 380.5 c 128,-1,6
 92 437 92 437 140.5 468 c 128,-1,7
 189 499 189 499 253 499 c 0,8,9
 314 499 314 499 359.5 469 c 128,-1,10
 405 439 405 439 421 390 c 1,11,-1
 411 365 l 1,12,-1
 411 434 l 2,13,14
 411 465 411 465 427.5 481 c 128,-1,15
 444 497 444 497 473 497 c 0,16,17
 503 497 503 497 519 481 c 128,-1,18
 535 465 535 465 535 434 c 2,19,-1
 535 56 l 2,20,21
 535 25 535 25 519 8.5 c 128,-1,22
 503 -8 503 -8 473 -8 c 256,23,24
 443 -8 443 -8 427 8.5 c 128,-1,25
 411 25 411 25 411 56 c 2,26,-1
 411 124 l 1,27,-1
 422 104 l 1,28,29
 407 52 407 52 361 21 c 128,-1,30
 315 -10 315 -10 253 -10 c 0,0,1
288 85 m 0,31,32
 325 85 325 85 353 103 c 128,-1,33
 381 121 381 121 396.5 156.5 c 128,-1,34
 412 192 412 192 412 245 c 0,35,36
 412 325 412 325 378 364.5 c 128,-1,37
 344 404 344 404 288 404 c 0,38,39
 251 404 251 404 223 386.5 c 128,-1,40
 195 369 195 369 179.5 333.5 c 128,-1,41
 164 298 164 298 164 245 c 0,42,43
 164 166 164 166 198 125.5 c 128,-1,44
 232 85 232 85 288 85 c 0,31,32
EndSplineSet
EndChar

StartChar: l.ss02
Encoding: 65569 -1 516
Width: 254
GlyphClass: 2
Flags: W
AnchorPoint: "Anchor-5" 127 357 basechar 0
AnchorPoint: "Anchor-2" 127 0 basechar 0
AnchorPoint: "Anchor-1" 230 705 basechar 0
AnchorPoint: "Anchor-0" 127 705 basechar 0
LayerCount: 2
Fore
SplineSet
127 -8 m 0,0,1
 97 -8 97 -8 81 8.5 c 128,-1,2
 65 25 65 25 65 56 c 2,3,-1
 65 650 l 2,4,5
 65 682 65 682 81 697.5 c 128,-1,6
 97 713 97 713 127 713 c 256,7,8
 157 713 157 713 173.5 697.5 c 128,-1,9
 190 682 190 682 190 650 c 2,10,-1
 190 56 l 2,11,12
 190 -8 190 -8 127 -8 c 0,0,1
EndSplineSet
EndChar

StartChar: fi
Encoding: 64257 64257 525
Width: 611
GlyphClass: 3
LigCaretCntFixed: 1
Flags: W
LayerCount: 2
Fore
SplineSet
161 -8 m 0,0,1
 131 -8 131 -8 114.5 8.5 c 128,-1,2
 98 25 98 25 98 56 c 2,3,-1
 98 395 l 1,4,-1
 52 395 l 2,5,6
 28 395 28 395 15 407.5 c 128,-1,7
 2 420 2 420 2 442 c 0,8,9
 2 465 2 465 15 477 c 128,-1,10
 28 489 28 489 52 489 c 2,11,-1
 134 489 l 1,12,-1
 98 456 l 1,13,-1
 98 490 l 2,14,15
 98 591 98 591 149 643 c 128,-1,16
 200 695 200 695 297 705 c 2,17,-1
 327 708 l 2,18,19
 350 710 350 710 363.5 702 c 128,-1,20
 377 694 377 694 381.5 680.5 c 128,-1,21
 386 667 386 667 383 652.5 c 128,-1,22
 380 638 380 638 371 627.5 c 128,-1,23
 362 617 362 617 348 616 c 2,24,-1
 324 614 l 2,25,26
 271 610 271 610 247 585 c 128,-1,27
 223 560 223 560 223 510 c 2,28,-1
 223 473 l 1,29,-1
 207 489 l 1,30,-1
 484 489 l 2,31,32
 514 489 514 489 530 471.5 c 128,-1,33
 546 454 546 454 546 422 c 2,34,-1
 546 61 l 2,35,36
 546 29 546 29 530.5 11 c 128,-1,37
 515 -7 515 -7 484 -7 c 0,38,39
 454 -7 454 -7 437.5 11 c 128,-1,40
 421 29 421 29 421 61 c 2,41,-1
 421 395 l 1,42,-1
 223 395 l 1,43,-1
 223 56 l 2,44,45
 223 -8 223 -8 161 -8 c 0,0,1
486 589 m 0,46,47
 452 589 452 589 433.5 606.5 c 128,-1,48
 415 624 415 624 415 655 c 0,49,50
 415 687 415 687 433.5 704 c 128,-1,51
 452 721 452 721 486 721 c 0,52,53
 521 721 521 721 539.5 704 c 128,-1,54
 558 687 558 687 558 655 c 0,55,56
 558 624 558 624 539.5 606.5 c 128,-1,57
 521 589 521 589 486 589 c 0,46,47
EndSplineSet
Ligature2: "'liga' Standard Ligatures lookup 33 subtable" f i
LCarets2: 1 306
EndChar

StartChar: ordfeminine
Encoding: 170 170 529
Width: 339
GlyphClass: 1
Flags: W
LayerCount: 2
Fore
SplineSet
135 408 m 0,0,1
 85 408 85 408 53.5 435 c 128,-1,2
 22 462 22 462 22 502 c 0,3,4
 22 549 22 549 63.5 569 c 128,-1,5
 105 589 105 589 185 589 c 2,6,-1
 237 589 l 1,7,-1
 237 545 l 1,8,-1
 188 545 l 2,9,10
 143 545 143 545 123 535 c 128,-1,11
 103 525 103 525 103 504 c 0,12,13
 103 487 103 487 115.5 475 c 128,-1,14
 128 463 128 463 156 463 c 0,15,16
 177 463 177 463 193 472.5 c 128,-1,17
 209 482 209 482 218.5 500 c 128,-1,18
 228 518 228 518 228 542 c 2,19,-1
 228 600 l 2,20,21
 228 628 228 628 212 641 c 128,-1,22
 196 654 196 654 162 654 c 0,23,24
 146 654 146 654 126.5 650.5 c 128,-1,25
 107 647 107 647 84 639 c 0,26,27
 67 634 67 634 56.5 640 c 128,-1,28
 46 646 46 646 42.5 657.5 c 128,-1,29
 39 669 39 669 45 680 c 128,-1,30
 51 691 51 691 67 697 c 0,31,32
 93 708 93 708 118.5 711.5 c 128,-1,33
 144 715 144 715 168 715 c 0,34,35
 215 715 215 715 246 701.5 c 128,-1,36
 277 688 277 688 292.5 662 c 128,-1,37
 308 636 308 636 308 596 c 2,38,-1
 308 447 l 2,39,40
 308 408 308 408 270 408 c 0,41,42
 251 408 251 408 241 419.5 c 128,-1,43
 231 431 231 431 231 448 c 2,44,-1
 231 469 l 1,45,-1
 229 469 l 1,46,47
 213 438 213 438 191 423 c 128,-1,48
 169 408 169 408 135 408 c 0,0,1
EndSplineSet
EndChar

StartChar: ordmasculine
Encoding: 186 186 530
Width: 353
GlyphClass: 1
Flags: W
LayerCount: 2
Fore
SplineSet
177 409 m 256,0,1
 132 409 132 409 96 428 c 128,-1,2
 60 447 60 447 39.5 481.5 c 128,-1,3
 19 516 19 516 19 563 c 256,4,5
 19 610 19 610 39.5 644 c 128,-1,6
 60 678 60 678 96 696.5 c 128,-1,7
 132 715 132 715 177 715 c 256,8,9
 222 715 222 715 257.5 696.5 c 128,-1,10
 293 678 293 678 313.5 644 c 128,-1,11
 334 610 334 610 334 563 c 256,12,13
 334 516 334 516 313.5 481.5 c 128,-1,14
 293 447 293 447 257.5 428 c 128,-1,15
 222 409 222 409 177 409 c 256,0,1
177 472 m 256,16,17
 211 472 211 472 231 495.5 c 128,-1,18
 251 519 251 519 251 563 c 256,19,20
 251 607 251 607 231 630 c 128,-1,21
 211 653 211 653 177 653 c 256,22,23
 143 653 143 653 122.5 630.5 c 128,-1,24
 102 608 102 608 102 563 c 256,25,26
 102 518 102 518 122.5 495 c 128,-1,27
 143 472 143 472 177 472 c 256,16,17
EndSplineSet
EndChar

StartChar: uni0411
Encoding: 1041 1041 532
Width: 673
GlyphClass: 1
Flags: W
LayerCount: 2
Fore
SplineSet
145 0 m 2,0,1
 112 0 112 0 94.5 17.5 c 128,-1,2
 77 35 77 35 77 68 c 2,3,-1
 77 637 l 2,4,5
 77 670 77 670 94.5 687.5 c 128,-1,6
 112 705 112 705 145 705 c 2,7,-1
 523 705 l 2,8,9
 548 705 548 705 561.5 692 c 128,-1,10
 575 679 575 679 575 655 c 0,11,12
 575 630 575 630 561.5 616.5 c 128,-1,13
 548 603 548 603 523 603 c 2,14,-1
 200 603 l 1,15,-1
 200 411 l 1,16,-1
 396 411 l 2,17,18
 509 411 509 411 572.5 359 c 128,-1,19
 636 307 636 307 636 206 c 0,20,21
 636 106 636 106 572.5 53 c 128,-1,22
 509 0 509 0 396 0 c 2,23,-1
 145 0 l 2,0,1
200 102 m 1,24,-1
 380 102 l 2,25,26
 448 102 448 102 480 127.5 c 128,-1,27
 512 153 512 153 512 206 c 256,28,29
 512 259 512 259 480 284 c 128,-1,30
 448 309 448 309 380 309 c 2,31,-1
 200 309 l 1,32,-1
 200 102 l 1,24,-1
EndSplineSet
EndChar

StartChar: uni0413
Encoding: 1043 1043 534
Width: 559
GlyphClass: 2
Flags: W
AnchorPoint: "Anchor-4" 162 356 basechar 0
AnchorPoint: "Anchor-0" 280 705 basechar 0
LayerCount: 2
Fore
SplineSet
141 -8 m 0,0,1
 110 -8 110 -8 93.5 9.5 c 128,-1,2
 77 27 77 27 77 58 c 2,3,-1
 77 639 l 2,4,5
 77 671 77 671 94 688 c 128,-1,6
 111 705 111 705 143 705 c 2,7,-1
 496 705 l 2,8,9
 523 705 523 705 537 691.5 c 128,-1,10
 551 678 551 678 551 652 c 0,11,12
 551 627 551 627 537 612.5 c 128,-1,13
 523 598 523 598 496 598 c 2,14,-1
 205 598 l 1,15,-1
 205 58 l 2,16,17
 205 27 205 27 189 9.5 c 128,-1,18
 173 -8 173 -8 141 -8 c 0,0,1
EndSplineSet
EndChar

StartChar: uni0490
Encoding: 1168 1168 536
Width: 559
GlyphClass: 1
Flags: W
LayerCount: 2
Fore
SplineSet
141 -8 m 0,0,1
 110 -8 110 -8 93.5 9.5 c 128,-1,2
 77 27 77 27 77 58 c 2,3,-1
 77 639 l 2,4,5
 77 671 77 671 94 688 c 128,-1,6
 111 705 111 705 143 705 c 2,7,-1
 429 705 l 1,8,-1
 429 815 l 2,9,10
 429 873 429 873 486 873 c 0,11,12
 513 873 513 873 528 858 c 128,-1,13
 543 843 543 843 543 815 c 2,14,-1
 543 665 l 2,15,16
 543 633 543 633 526 615.5 c 128,-1,17
 509 598 509 598 477 598 c 2,18,-1
 205 598 l 1,19,-1
 205 58 l 2,20,21
 205 27 205 27 189 9.5 c 128,-1,22
 173 -8 173 -8 141 -8 c 0,0,1
EndSplineSet
EndChar

StartChar: uni04F6
Encoding: 1270 1270 537
Width: 559
GlyphClass: 1
Flags: W
LayerCount: 2
Fore
SplineSet
249 -173 m 0,0,1
 221 -173 221 -173 206 -158 c 128,-1,2
 191 -143 191 -143 191 -115 c 2,3,-1
 191 0 l 1,4,-1
 141 0 l 2,5,6
 110 0 110 0 93.5 17.5 c 128,-1,7
 77 35 77 35 77 66 c 2,8,-1
 77 639 l 2,9,10
 77 671 77 671 94 688 c 128,-1,11
 111 705 111 705 143 705 c 2,12,-1
 496 705 l 2,13,14
 523 705 523 705 537 691.5 c 128,-1,15
 551 678 551 678 551 652 c 0,16,17
 551 627 551 627 537 612.5 c 128,-1,18
 523 598 523 598 496 598 c 2,19,-1
 205 598 l 1,20,-1
 205 45 l 1,21,-1
 147 103 l 1,22,-1
 245 103 l 2,23,24
 274 103 274 103 289.5 87.5 c 128,-1,25
 305 72 305 72 305 43 c 2,26,-1
 305 -115 l 2,27,28
 305 -143 305 -143 290.5 -158 c 128,-1,29
 276 -173 276 -173 249 -173 c 0,0,1
EndSplineSet
EndChar

StartChar: uni0492
Encoding: 1170 1170 538
Width: 601
GlyphClass: 1
Flags: W
LayerCount: 2
Fore
SplineSet
183 -8 m 0,0,1
 152 -8 152 -8 135.5 9.5 c 128,-1,2
 119 27 119 27 119 58 c 2,3,-1
 119 301 l 1,4,-1
 74 301 l 2,5,6
 50 301 50 301 37 313.5 c 128,-1,7
 24 326 24 326 24 348 c 0,8,9
 24 371 24 371 37 382.5 c 128,-1,10
 50 394 50 394 74 394 c 2,11,-1
 119 394 l 1,12,-1
 119 639 l 2,13,14
 119 671 119 671 136 688 c 128,-1,15
 153 705 153 705 185 705 c 2,16,-1
 538 705 l 2,17,18
 565 705 565 705 579 691.5 c 128,-1,19
 593 678 593 678 593 652 c 0,20,21
 593 627 593 627 579 612.5 c 128,-1,22
 565 598 565 598 538 598 c 2,23,-1
 247 598 l 1,24,-1
 247 394 l 1,25,-1
 377 394 l 2,26,27
 401 394 401 394 414 382.5 c 128,-1,28
 427 371 427 371 427 348 c 0,29,30
 427 326 427 326 414 313.5 c 128,-1,31
 401 301 401 301 377 301 c 2,32,-1
 247 301 l 1,33,-1
 247 58 l 2,34,35
 247 27 247 27 231 9.5 c 128,-1,36
 215 -8 215 -8 183 -8 c 0,0,1
EndSplineSet
Substitution2: "'locl' Localized Forms in Cyrillic lookup 16 subtable" uni0492.loclBSH
Substitution2: "'aalt' Access All Alternates lookup 0 subtable" uni0492.loclBSH
EndChar

StartChar: uni0494
Encoding: 1172 1172 539
Width: 700
GlyphClass: 1
Flags: W
LayerCount: 2
Fore
SplineSet
423 -190 m 0,0,1
 404 -190 404 -190 377.5 -187.5 c 128,-1,2
 351 -185 351 -185 332 -180 c 0,3,4
 312 -174 312 -174 302 -161.5 c 128,-1,5
 292 -149 292 -149 291.5 -134 c 128,-1,6
 291 -119 291 -119 297.5 -106 c 128,-1,7
 304 -93 304 -93 317 -85.5 c 128,-1,8
 330 -78 330 -78 348 -82 c 0,9,10
 363 -85 363 -85 377 -86.5 c 128,-1,11
 391 -88 391 -88 407 -88 c 0,12,13
 460 -88 460 -88 490 -51.5 c 128,-1,14
 520 -15 520 -15 520 55 c 2,15,-1
 520 140 l 2,16,17
 520 241 520 241 473 286.5 c 128,-1,18
 426 332 426 332 338 332 c 0,19,20
 301 332 301 332 267 324.5 c 128,-1,21
 233 317 233 317 205 302 c 1,22,-1
 205 58 l 2,23,24
 205 27 205 27 189 9.5 c 128,-1,25
 173 -8 173 -8 141 -8 c 0,26,27
 110 -8 110 -8 93.5 9.5 c 128,-1,28
 77 27 77 27 77 58 c 2,29,-1
 77 639 l 2,30,31
 77 671 77 671 94 688 c 128,-1,32
 111 705 111 705 143 705 c 2,33,-1
 520 705 l 2,34,35
 546 705 546 705 560.5 691.5 c 128,-1,36
 575 678 575 678 575 652 c 0,37,38
 575 627 575 627 560.5 612.5 c 128,-1,39
 546 598 546 598 520 598 c 2,40,-1
 205 598 l 1,41,-1
 205 413 l 1,42,43
 230 426 230 426 270 434 c 128,-1,44
 310 442 310 442 352 442 c 0,45,46
 424 442 424 442 479 424 c 128,-1,47
 534 406 534 406 571.5 369 c 128,-1,48
 609 332 609 332 628.5 276.5 c 128,-1,49
 648 221 648 221 648 146 c 2,50,-1
 648 60 l 2,51,52
 648 -20 648 -20 620 -76 c 128,-1,53
 592 -132 592 -132 541.5 -161 c 128,-1,54
 491 -190 491 -190 423 -190 c 0,0,1
EndSplineSet
EndChar

StartChar: uni0414
Encoding: 1044 1044 540
Width: 799
GlyphClass: 1
Flags: W
AnchorPoint: "Anchor-0" 426 704 basechar 0
LayerCount: 2
Fore
SplineSet
71 -173 m 0,0,1
 43 -173 43 -173 28.5 -158 c 128,-1,2
 14 -143 14 -143 14 -115 c 2,3,-1
 14 43 l 2,4,5
 14 102 14 102 74 102 c 2,6,-1
 142 102 l 1,7,-1
 66 82 l 1,8,9
 123 139 123 139 150.5 247 c 128,-1,10
 178 355 178 355 178 521 c 2,11,-1
 178 637 l 2,12,13
 178 670 178 670 195.5 687.5 c 128,-1,14
 213 705 213 705 246 705 c 2,15,-1
 609 705 l 2,16,17
 642 705 642 705 659.5 687.5 c 128,-1,18
 677 670 677 670 677 637 c 2,19,-1
 677 54 l 1,20,-1
 629 102 l 1,21,-1
 717 102 l 2,22,23
 746 102 746 102 761.5 87 c 128,-1,24
 777 72 777 72 777 43 c 2,25,-1
 777 -115 l 2,26,27
 777 -173 777 -173 721 -173 c 0,28,29
 693 -173 693 -173 678 -158 c 128,-1,30
 663 -143 663 -143 663 -115 c 2,31,-1
 663 0 l 1,32,-1
 128 0 l 1,33,-1
 128 -115 l 2,34,35
 128 -173 128 -173 71 -173 c 0,0,1
214 102 m 1,36,-1
 548 102 l 1,37,-1
 548 603 l 1,38,-1
 297 603 l 1,39,-1
 297 509 l 2,40,41
 297 365 297 365 276.5 266 c 128,-1,42
 256 167 256 167 214 102 c 1,36,-1
EndSplineSet
EndChar

StartChar: uni0416
Encoding: 1046 1046 544
Width: 1014
GlyphClass: 2
Flags: W
AnchorPoint: "Anchor-0" 507 705 basechar 0
LayerCount: 2
Fore
SplineSet
508 -8 m 0,0,1
 478 -8 478 -8 462 9.5 c 128,-1,2
 446 27 446 27 446 58 c 2,3,-1
 446 299 l 1,4,-1
 379 299 l 2,5,6
 328 299 328 299 294.5 276.5 c 128,-1,7
 261 254 261 254 237 203 c 2,8,-1
 158 33 l 2,9,10
 147 10 147 10 128.5 0.5 c 128,-1,11
 110 -9 110 -9 90.5 -7 c 128,-1,12
 71 -5 71 -5 55.5 6.5 c 128,-1,13
 40 18 40 18 35.5 38 c 128,-1,14
 31 58 31 58 44 83 c 2,15,-1
 126 251 l 2,16,17
 158 318 158 318 204 354.5 c 128,-1,18
 250 391 250 391 314 401 c 1,19,-1
 264 364 l 1,20,-1
 96 621 l 2,21,22
 82 643 82 643 83.5 662 c 128,-1,23
 85 681 85 681 98 694 c 128,-1,24
 111 707 111 707 129 711 c 128,-1,25
 147 715 147 715 166 708 c 128,-1,26
 185 701 185 701 198 680 c 2,27,-1
 382 389 l 1,28,-1
 358 406 l 1,29,-1
 446 406 l 1,30,-1
 446 648 l 2,31,32
 446 680 446 680 462 696.5 c 128,-1,33
 478 713 478 713 508 713 c 0,34,35
 537 713 537 713 553 696.5 c 128,-1,36
 569 680 569 680 569 648 c 2,37,-1
 569 406 l 1,38,-1
 658 406 l 1,39,-1
 633 389 l 1,40,-1
 817 680 l 2,41,42
 831 701 831 701 849.5 708 c 128,-1,43
 868 715 868 715 886 711 c 128,-1,44
 904 707 904 707 917 694 c 128,-1,45
 930 681 930 681 931.5 662 c 128,-1,46
 933 643 933 643 919 621 c 2,47,-1
 751 364 l 1,48,-1
 701 401 l 1,49,50
 744 395 744 395 778 376 c 128,-1,51
 812 357 812 357 839.5 326 c 128,-1,52
 867 295 867 295 888 251 c 2,53,-1
 970 83 l 2,54,55
 983 58 983 58 978.5 38 c 128,-1,56
 974 18 974 18 958.5 6.5 c 128,-1,57
 943 -5 943 -5 923.5 -7 c 128,-1,58
 904 -9 904 -9 885.5 0.5 c 128,-1,59
 867 10 867 10 856 33 c 2,60,-1
 777 203 l 2,61,62
 753 255 753 255 719.5 277 c 128,-1,63
 686 299 686 299 636 299 c 2,64,-1
 569 299 l 1,65,-1
 569 58 l 2,66,67
 569 27 569 27 553 9.5 c 128,-1,68
 537 -8 537 -8 508 -8 c 0,0,1
EndSplineSet
EndChar

StartChar: uni0417
Encoding: 1047 1047 545
Width: 635
GlyphClass: 2
Flags: W
AnchorPoint: "Anchor-2" 314 0 basechar 0
AnchorPoint: "Anchor-0" 308 705 basechar 0
LayerCount: 2
Fore
SplineSet
304 -10 m 0,0,1
 231 -10 231 -10 168.5 6.5 c 128,-1,2
 106 23 106 23 59 54 c 0,3,4
 40 66 40 66 33.5 82.5 c 128,-1,5
 27 99 27 99 30.5 114.5 c 128,-1,6
 34 130 34 130 45 141 c 128,-1,7
 56 152 56 152 73 154 c 128,-1,8
 90 156 90 156 110 144 c 0,9,10
 136 129 136 129 165 119 c 128,-1,11
 194 109 194 109 226.5 104 c 128,-1,12
 259 99 259 99 294 99 c 0,13,14
 350 99 350 99 385.5 111 c 128,-1,15
 421 123 421 123 438.5 147 c 128,-1,16
 456 171 456 171 456 208 c 0,17,18
 456 258 456 258 424 282.5 c 128,-1,19
 392 307 392 307 324 307 c 2,20,-1
 199 307 l 2,21,22
 173 307 173 307 159 320 c 128,-1,23
 145 333 145 333 145 358 c 0,24,25
 145 382 145 382 159 395 c 128,-1,26
 173 408 173 408 199 408 c 2,27,-1
 307 408 l 2,28,29
 373 408 373 408 405.5 432 c 128,-1,30
 438 456 438 456 438 505 c 0,31,32
 438 536 438 536 422.5 559 c 128,-1,33
 407 582 407 582 375.5 594.5 c 128,-1,34
 344 607 344 607 295 607 c 0,35,36
 252 607 252 607 208.5 596.5 c 128,-1,37
 165 586 165 586 129 566 c 0,38,39
 108 554 108 554 91.5 556.5 c 128,-1,40
 75 559 75 559 64.5 570.5 c 128,-1,41
 54 582 54 582 51 598 c 128,-1,42
 48 614 48 614 55 630 c 128,-1,43
 62 646 62 646 80 657 c 0,44,45
 128 686 128 686 187.5 700.5 c 128,-1,46
 247 715 247 715 309 715 c 0,47,48
 395 715 395 715 451.5 690.5 c 128,-1,49
 508 666 508 666 536.5 622.5 c 128,-1,50
 565 579 565 579 565 522 c 0,51,52
 565 458 565 458 527.5 414 c 128,-1,53
 490 370 490 370 427 355 c 1,54,-1
 427 370 l 1,55,56
 500 359 500 359 541 314 c 128,-1,57
 582 269 582 269 582 197 c 0,58,59
 582 135 582 135 552 88 c 128,-1,60
 522 41 522 41 460.5 15.5 c 128,-1,61
 399 -10 399 -10 304 -10 c 0,0,1
EndSplineSet
EndChar

StartChar: uni0418
Encoding: 1048 1048 546
Width: 748
GlyphClass: 2
Flags: W
AnchorPoint: "Anchor-0" 374 705 basechar 0
LayerCount: 2
Fore
SplineSet
131 -8 m 0,0,1
 118 -8 118 -8 108 -4 c 128,-1,2
 98 0 98 0 91 8.5 c 128,-1,3
 84 17 84 17 80.5 29 c 128,-1,4
 77 41 77 41 77 57 c 2,5,-1
 77 652 l 2,6,7
 77 681 77 681 92.5 697 c 128,-1,8
 108 713 108 713 137 713 c 256,9,10
 166 713 166 713 181 697 c 128,-1,11
 196 681 196 681 196 652 c 2,12,-1
 196 179 l 1,13,-1
 173 179 l 1,14,-1
 553 676 l 2,15,16
 568 696 568 696 582 704.5 c 128,-1,17
 596 713 596 713 619 713 c 0,18,19
 635 713 635 713 646.5 706 c 128,-1,20
 658 699 658 699 664.5 685.5 c 128,-1,21
 671 672 671 672 671 654 c 2,22,-1
 671 54 l 2,23,24
 671 24 671 24 656 8 c 128,-1,25
 641 -8 641 -8 612 -8 c 256,26,27
 583 -8 583 -8 567.5 8 c 128,-1,28
 552 24 552 24 552 54 c 2,29,-1
 552 527 l 1,30,-1
 574 527 l 1,31,-1
 195 30 l 2,32,33
 179 10 179 10 166.5 1 c 128,-1,34
 154 -8 154 -8 131 -8 c 0,0,1
EndSplineSet
EndChar

StartChar: uni048A
Encoding: 1162 1162 549
Width: 774
GlyphClass: 1
Flags: W
LayerCount: 2
Fore
SplineSet
711 -135 m 2,0,1
 704 -154 704 -154 690 -163.5 c 128,-1,2
 676 -173 676 -173 659.5 -173.5 c 128,-1,3
 643 -174 643 -174 629.5 -166.5 c 128,-1,4
 616 -159 616 -159 610 -143.5 c 128,-1,5
 604 -128 604 -128 611 -106 c 2,6,-1
 650 12 l 1,7,-1
 667 0 l 1,8,-1
 616 0 l 2,9,10
 585 0 585 0 568.5 13.5 c 128,-1,11
 552 27 552 27 552 58 c 2,12,-1
 552 527 l 1,13,-1
 574 527 l 1,14,-1
 195 30 l 2,15,16
 179 10 179 10 166.5 1 c 128,-1,17
 154 -8 154 -8 131 -8 c 0,18,19
 118 -8 118 -8 108 -4 c 128,-1,20
 98 0 98 0 91 8.5 c 128,-1,21
 84 17 84 17 80.5 29 c 128,-1,22
 77 41 77 41 77 57 c 2,23,-1
 77 652 l 2,24,25
 77 681 77 681 92.5 697 c 128,-1,26
 108 713 108 713 137 713 c 256,27,28
 166 713 166 713 181 697 c 128,-1,29
 196 681 196 681 196 652 c 2,30,-1
 196 179 l 1,31,-1
 173 179 l 1,32,-1
 553 676 l 2,33,34
 568 696 568 696 582 704.5 c 128,-1,35
 596 713 596 713 619 713 c 0,36,37
 635 713 635 713 646.5 706 c 128,-1,38
 658 699 658 699 664.5 685.5 c 128,-1,39
 671 672 671 672 671 654 c 2,40,-1
 671 77 l 1,41,-1
 644 103 l 1,42,-1
 710 103 l 2,43,44
 747 103 747 103 762 83.5 c 128,-1,45
 777 64 777 64 766 29 c 2,46,-1
 711 -135 l 2,0,1
374 760 m 256,47,48
 305 760 305 760 256.5 789 c 128,-1,49
 208 818 208 818 185 870 c 0,50,51
 177 889 177 889 183 901.5 c 128,-1,52
 189 914 189 914 204 919 c 0,53,54
 220 924 220 924 231 918 c 128,-1,55
 242 912 242 912 252 895 c 0,56,57
 270 863 270 863 300 846.5 c 128,-1,58
 330 830 330 830 374 830 c 256,59,60
 418 830 418 830 448 846.5 c 128,-1,61
 478 863 478 863 496 895 c 0,62,63
 506 912 506 912 517 918 c 128,-1,64
 528 924 528 924 544 919 c 0,65,66
 559 914 559 914 565 901.5 c 128,-1,67
 571 889 571 889 563 870 c 0,68,69
 540 818 540 818 491.5 789 c 128,-1,70
 443 760 443 760 374 760 c 256,47,48
EndSplineSet
EndChar

StartChar: uni041A
Encoding: 1050 1050 550
Width: 675
GlyphClass: 2
Flags: W
AnchorPoint: "Anchor-5" 344 353 basechar 0
AnchorPoint: "Anchor-0" 339 705 basechar 0
LayerCount: 2
Fore
SplineSet
141 -8 m 0,0,1
 110 -8 110 -8 93.5 9.5 c 128,-1,2
 77 27 77 27 77 58 c 2,3,-1
 77 648 l 2,4,5
 77 680 77 680 93.5 696.5 c 128,-1,6
 110 713 110 713 141 713 c 256,7,8
 172 713 172 713 188.5 696.5 c 128,-1,9
 205 680 205 680 205 648 c 2,10,-1
 205 406 l 1,11,-1
 319 406 l 1,12,-1
 294 389 l 1,13,-1
 478 680 l 2,14,15
 492 701 492 701 510.5 708 c 128,-1,16
 529 715 529 715 547 711 c 128,-1,17
 565 707 565 707 578 694 c 128,-1,18
 591 681 591 681 592.5 662 c 128,-1,19
 594 643 594 643 580 621 c 2,20,-1
 412 364 l 1,21,-1
 362 401 l 1,22,23
 427 391 427 391 472 354 c 128,-1,24
 517 317 517 317 549 251 c 2,25,-1
 631 83 l 2,26,27
 644 58 644 58 639.5 38 c 128,-1,28
 635 18 635 18 619.5 6.5 c 128,-1,29
 604 -5 604 -5 584.5 -7 c 128,-1,30
 565 -9 565 -9 546.5 0.5 c 128,-1,31
 528 10 528 10 517 33 c 2,32,-1
 438 203 l 2,33,34
 414 255 414 255 380.5 277 c 128,-1,35
 347 299 347 299 297 299 c 2,36,-1
 205 299 l 1,37,-1
 205 58 l 2,38,39
 205 27 205 27 189 9.5 c 128,-1,40
 173 -8 173 -8 141 -8 c 0,0,1
EndSplineSet
EndChar

StartChar: uni041B
Encoding: 1051 1051 552
Width: 752
GlyphClass: 2
Flags: W
LayerCount: 2
Fore
SplineSet
611 -8 m 256,0,1
 580 -8 580 -8 563.5 9.5 c 128,-1,2
 547 27 547 27 547 58 c 2,3,-1
 547 598 l 1,4,-1
 295 598 l 1,5,-1
 295 458 l 2,6,7
 295 367 295 367 283 296 c 128,-1,8
 271 225 271 225 248.5 170 c 128,-1,9
 226 115 226 115 192.5 74 c 128,-1,10
 159 33 159 33 116 3 c 0,11,12
 94 -13 94 -13 71 -8.5 c 128,-1,13
 48 -4 48 -4 31 18 c 0,14,15
 15 41 15 41 20.5 63 c 128,-1,16
 26 85 26 85 49 101 c 0,17,18
 81 123 81 123 105 155 c 128,-1,19
 129 187 129 187 145 233 c 128,-1,20
 161 279 161 279 169 342.5 c 128,-1,21
 177 406 177 406 177 491 c 2,22,-1
 177 637 l 2,23,24
 177 670 177 670 194.5 687.5 c 128,-1,25
 212 705 212 705 245 705 c 2,26,-1
 607 705 l 2,27,28
 640 705 640 705 657.5 687.5 c 128,-1,29
 675 670 675 670 675 637 c 2,30,-1
 675 58 l 2,31,32
 675 27 675 27 658.5 9.5 c 128,-1,33
 642 -8 642 -8 611 -8 c 256,0,1
EndSplineSet
EndChar

StartChar: uni041F
Encoding: 1055 1055 556
Width: 766
GlyphClass: 2
Flags: W
LayerCount: 2
Fore
SplineSet
141 -8 m 0,0,1
 110 -8 110 -8 93.5 9.5 c 128,-1,2
 77 27 77 27 77 58 c 2,3,-1
 77 637 l 2,4,5
 77 670 77 670 94.5 687.5 c 128,-1,6
 112 705 112 705 145 705 c 2,7,-1
 622 705 l 2,8,9
 655 705 655 705 672.5 687.5 c 128,-1,10
 690 670 690 670 690 637 c 2,11,-1
 690 58 l 2,12,13
 690 27 690 27 673.5 9.5 c 128,-1,14
 657 -8 657 -8 626 -8 c 256,15,16
 595 -8 595 -8 578.5 9.5 c 128,-1,17
 562 27 562 27 562 58 c 2,18,-1
 562 598 l 1,19,-1
 205 598 l 1,20,-1
 205 58 l 2,21,22
 205 27 205 27 189 9.5 c 128,-1,23
 173 -8 173 -8 141 -8 c 0,0,1
EndSplineSet
EndChar

StartChar: uni0423
Encoding: 1059 1059 560
Width: 661
GlyphClass: 2
Flags: W
AnchorPoint: "Anchor-0" 334 705 basechar 0
LayerCount: 2
Fore
SplineSet
269 -8 m 0,0,1
 247 -8 247 -8 231 3.5 c 128,-1,2
 215 15 215 15 211.5 34.5 c 128,-1,3
 208 54 208 54 221 79 c 2,4,-1
 301 235 l 1,5,-1
 301 195 l 1,6,-1
 33 628 l 2,7,8
 20 650 20 650 22.5 669.5 c 128,-1,9
 25 689 25 689 41 701 c 128,-1,10
 57 713 57 713 81 713 c 0,11,12
 106 713 106 713 119.5 701 c 128,-1,13
 133 689 133 689 146 667 c 2,14,-1
 363 310 l 1,15,-1
 340 310 l 1,16,-1
 521 666 l 2,17,18
 531 685 531 685 544.5 699 c 128,-1,19
 558 713 558 713 585 713 c 0,20,21
 608 713 608 713 623.5 702 c 128,-1,22
 639 691 639 691 643 671.5 c 128,-1,23
 647 652 647 652 633 626 c 2,24,-1
 334 39 l 2,25,26
 325 21 325 21 310.5 6.5 c 128,-1,27
 296 -8 296 -8 269 -8 c 0,0,1
EndSplineSet
EndChar

StartChar: uni0424
Encoding: 1060 1060 562
Width: 885
GlyphClass: 1
Flags: W
LayerCount: 2
Fore
SplineSet
443 -33 m 0,0,1
 412 -33 412 -33 395 -16 c 128,-1,2
 378 1 378 1 378 33 c 2,3,-1
 378 89 l 1,4,-1
 410 55 l 1,5,-1
 384 55 l 2,6,7
 282 55 282 55 208 91 c 128,-1,8
 134 127 134 127 94 194.5 c 128,-1,9
 54 262 54 262 54 358 c 0,10,11
 54 431 54 431 76 487.5 c 128,-1,12
 98 544 98 544 140.5 582.5 c 128,-1,13
 183 621 183 621 244.5 641 c 128,-1,14
 306 661 306 661 384 661 c 2,15,-1
 410 661 l 1,16,-1
 378 627 l 1,17,-1
 378 678 l 2,18,19
 378 710 378 710 395 726.5 c 128,-1,20
 412 743 412 743 443 743 c 256,21,22
 474 743 474 743 490.5 726.5 c 128,-1,23
 507 710 507 710 507 678 c 2,24,-1
 507 627 l 1,25,-1
 475 661 l 1,26,-1
 501 661 l 2,27,28
 606 661 606 661 679.5 625.5 c 128,-1,29
 753 590 753 590 792 522.5 c 128,-1,30
 831 455 831 455 831 358 c 0,31,32
 831 286 831 286 808.5 229.5 c 128,-1,33
 786 173 786 173 743 134.5 c 128,-1,34
 700 96 700 96 639 75.5 c 128,-1,35
 578 55 578 55 501 55 c 2,36,-1
 475 55 l 1,37,-1
 507 89 l 1,38,-1
 507 33 l 2,39,40
 507 1 507 1 491 -16 c 128,-1,41
 475 -33 475 -33 443 -33 c 0,0,1
379 131 m 1,42,-1
 379 585 l 1,43,-1
 406 563 l 1,44,-1
 371 563 l 2,45,46
 330 563 330 563 296 550 c 128,-1,47
 262 537 262 537 237 511.5 c 128,-1,48
 212 486 212 486 198.5 447.5 c 128,-1,49
 185 409 185 409 185 358 c 0,50,51
 185 291 185 291 209 245.5 c 128,-1,52
 233 200 233 200 275.5 176.5 c 128,-1,53
 318 153 318 153 371 153 c 2,54,-1
 406 153 l 1,55,-1
 379 131 l 1,42,-1
506 131 m 1,56,-1
 479 153 l 1,57,-1
 514 153 l 2,58,59
 554 153 554 153 588 166 c 128,-1,60
 622 179 622 179 647 205 c 128,-1,61
 672 231 672 231 686 269.5 c 128,-1,62
 700 308 700 308 700 358 c 0,63,64
 700 427 700 427 676.5 472.5 c 128,-1,65
 653 518 653 518 611 540.5 c 128,-1,66
 569 563 569 563 514 563 c 2,67,-1
 479 563 l 1,68,-1
 506 585 l 1,69,-1
 506 131 l 1,56,-1
EndSplineSet
EndChar

StartChar: uni0427
Encoding: 1063 1063 564
Width: 696
GlyphClass: 2
Flags: W
AnchorPoint: "Anchor-5" 306 295 basechar 0
AnchorPoint: "Anchor-0" 331 705 basechar 0
LayerCount: 2
Fore
SplineSet
556 -8 m 0,0,1
 525 -8 525 -8 508.5 9.5 c 128,-1,2
 492 27 492 27 492 58 c 2,3,-1
 492 275 l 1,4,5
 465 262 465 262 422.5 254 c 128,-1,6
 380 246 380 246 338 246 c 0,7,8
 247 246 247 246 183 279 c 128,-1,9
 119 312 119 312 86 377.5 c 128,-1,10
 53 443 53 443 53 542 c 2,11,-1
 53 647 l 2,12,13
 53 679 53 679 69.5 696 c 128,-1,14
 86 713 86 713 117 713 c 256,15,16
 148 713 148 713 164.5 696 c 128,-1,17
 181 679 181 679 181 647 c 2,18,-1
 181 548 l 2,19,20
 181 448 181 448 224 402 c 128,-1,21
 267 356 267 356 352 356 c 0,22,23
 388 356 388 356 424.5 363.5 c 128,-1,24
 461 371 461 371 492 387 c 1,25,-1
 492 647 l 2,26,27
 492 679 492 679 508.5 696 c 128,-1,28
 525 713 525 713 556 713 c 256,29,30
 587 713 587 713 603.5 696 c 128,-1,31
 620 679 620 679 620 647 c 2,32,-1
 620 58 l 2,33,34
 620 27 620 27 604 9.5 c 128,-1,35
 588 -8 588 -8 556 -8 c 0,0,1
EndSplineSet
EndChar

StartChar: uni0426
Encoding: 1062 1062 565
Width: 812
GlyphClass: 1
Flags: W
LayerCount: 2
Fore
SplineSet
734 -176 m 0,0,1
 706 -176 706 -176 691 -161 c 128,-1,2
 676 -146 676 -146 676 -118 c 2,3,-1
 676 0 l 1,4,-1
 145 0 l 2,5,6
 112 0 112 0 94.5 17.5 c 128,-1,7
 77 35 77 35 77 68 c 2,8,-1
 77 647 l 2,9,10
 77 679 77 679 93.5 696 c 128,-1,11
 110 713 110 713 141 713 c 256,12,13
 172 713 172 713 188.5 696 c 128,-1,14
 205 679 205 679 205 647 c 2,15,-1
 205 107 l 1,16,-1
 562 107 l 1,17,-1
 562 647 l 2,18,19
 562 679 562 679 578.5 696 c 128,-1,20
 595 713 595 713 626 713 c 256,21,22
 657 713 657 713 673.5 696 c 128,-1,23
 690 679 690 679 690 647 c 2,24,-1
 690 49 l 1,25,-1
 632 107 l 1,26,-1
 730 107 l 2,27,28
 759 107 759 107 774.5 91.5 c 128,-1,29
 790 76 790 76 790 47 c 2,30,-1
 790 -118 l 2,31,32
 790 -176 790 -176 734 -176 c 0,0,1
EndSplineSet
EndChar

StartChar: uni0428
Encoding: 1064 1064 566
Width: 1070
GlyphClass: 1
Flags: W
LayerCount: 2
Fore
SplineSet
145 0 m 2,0,1
 112 0 112 0 94.5 17.5 c 128,-1,2
 77 35 77 35 77 68 c 2,3,-1
 77 647 l 2,4,5
 77 679 77 679 93.5 696 c 128,-1,6
 110 713 110 713 140 713 c 0,7,8
 171 713 171 713 187 696 c 128,-1,9
 203 679 203 679 203 647 c 2,10,-1
 203 107 l 1,11,-1
 472 107 l 1,12,-1
 472 647 l 2,13,14
 472 679 472 679 488.5 696 c 128,-1,15
 505 713 505 713 535 713 c 0,16,17
 566 713 566 713 582 696 c 128,-1,18
 598 679 598 679 598 647 c 2,19,-1
 598 107 l 1,20,-1
 867 107 l 1,21,-1
 867 647 l 2,22,23
 867 679 867 679 883.5 696 c 128,-1,24
 900 713 900 713 930 713 c 0,25,26
 961 713 961 713 977 696 c 128,-1,27
 993 679 993 679 993 647 c 2,28,-1
 993 68 l 2,29,30
 993 35 993 35 975.5 17.5 c 128,-1,31
 958 0 958 0 925 0 c 2,32,-1
 145 0 l 2,0,1
EndSplineSet
EndChar

StartChar: uni0429
Encoding: 1065 1065 567
Width: 1115
GlyphClass: 1
Flags: W
LayerCount: 2
Fore
SplineSet
1037 -173 m 0,0,1
 1009 -173 1009 -173 994.5 -158 c 128,-1,2
 980 -143 980 -143 980 -115 c 2,3,-1
 980 0 l 1,4,-1
 145 0 l 2,5,6
 112 0 112 0 94.5 17.5 c 128,-1,7
 77 35 77 35 77 68 c 2,8,-1
 77 647 l 2,9,10
 77 679 77 679 93.5 696 c 128,-1,11
 110 713 110 713 140 713 c 0,12,13
 171 713 171 713 187 696 c 128,-1,14
 203 679 203 679 203 647 c 2,15,-1
 203 107 l 1,16,-1
 472 107 l 1,17,-1
 472 647 l 2,18,19
 472 679 472 679 488.5 696 c 128,-1,20
 505 713 505 713 535 713 c 0,21,22
 566 713 566 713 582 696 c 128,-1,23
 598 679 598 679 598 647 c 2,24,-1
 598 107 l 1,25,-1
 867 107 l 1,26,-1
 867 647 l 2,27,28
 867 679 867 679 883.5 696 c 128,-1,29
 900 713 900 713 930 713 c 0,30,31
 961 713 961 713 977 696 c 128,-1,32
 993 679 993 679 993 647 c 2,33,-1
 993 49 l 1,34,-1
 935 107 l 1,35,-1
 1033 107 l 2,36,37
 1062 107 1062 107 1077.5 91.5 c 128,-1,38
 1093 76 1093 76 1093 47 c 2,39,-1
 1093 -115 l 2,40,41
 1093 -143 1093 -143 1078.5 -158 c 128,-1,42
 1064 -173 1064 -173 1037 -173 c 0,0,1
EndSplineSet
EndChar

StartChar: uni040F
Encoding: 1039 1039 568
Width: 766
GlyphClass: 1
Flags: W
LayerCount: 2
Fore
SplineSet
384 -173 m 0,0,1
 356 -173 356 -173 341.5 -158 c 128,-1,2
 327 -143 327 -143 327 -115 c 2,3,-1
 327 0 l 1,4,-1
 145 0 l 2,5,6
 112 0 112 0 94.5 17.5 c 128,-1,7
 77 35 77 35 77 68 c 2,8,-1
 77 647 l 2,9,10
 77 679 77 679 93.5 696 c 128,-1,11
 110 713 110 713 141 713 c 256,12,13
 172 713 172 713 188.5 696 c 128,-1,14
 205 679 205 679 205 647 c 2,15,-1
 205 107 l 1,16,-1
 562 107 l 1,17,-1
 562 647 l 2,18,19
 562 679 562 679 578.5 696 c 128,-1,20
 595 713 595 713 626 713 c 256,21,22
 657 713 657 713 673.5 696 c 128,-1,23
 690 679 690 679 690 647 c 2,24,-1
 690 68 l 2,25,26
 690 35 690 35 672.5 17.5 c 128,-1,27
 655 0 655 0 622 0 c 2,28,-1
 440 0 l 1,29,-1
 440 -115 l 2,30,31
 440 -143 440 -143 425.5 -158 c 128,-1,32
 411 -173 411 -173 384 -173 c 0,0,1
EndSplineSet
EndChar

StartChar: uni042C
Encoding: 1068 1068 569
Width: 673
GlyphClass: 1
Flags: W
LayerCount: 2
Fore
SplineSet
145 0 m 2,0,1
 112 0 112 0 94.5 17.5 c 128,-1,2
 77 35 77 35 77 68 c 2,3,-1
 77 647 l 2,4,5
 77 679 77 679 93.5 696 c 128,-1,6
 110 713 110 713 141 713 c 256,7,8
 172 713 172 713 188.5 696 c 128,-1,9
 205 679 205 679 205 647 c 2,10,-1
 205 411 l 1,11,-1
 396 411 l 2,12,13
 471 411 471 411 525 387.5 c 128,-1,14
 579 364 579 364 607.5 318.5 c 128,-1,15
 636 273 636 273 636 206 c 0,16,17
 636 106 636 106 572.5 53 c 128,-1,18
 509 0 509 0 396 0 c 2,19,-1
 145 0 l 2,0,1
205 102 m 1,20,-1
 380 102 l 2,21,22
 448 102 448 102 480 127.5 c 128,-1,23
 512 153 512 153 512 206 c 256,24,25
 512 259 512 259 480 284 c 128,-1,26
 448 309 448 309 380 309 c 2,27,-1
 205 309 l 1,28,-1
 205 102 l 1,20,-1
EndSplineSet
EndChar

StartChar: uni042B
Encoding: 1067 1067 570
Width: 901
GlyphClass: 2
Flags: W
AnchorPoint: "Anchor-0" 451 705 basechar 0
LayerCount: 2
Fore
SplineSet
145 0 m 2,0,1
 112 0 112 0 94.5 17.5 c 128,-1,2
 77 35 77 35 77 68 c 2,3,-1
 77 647 l 2,4,5
 77 679 77 679 93.5 696 c 128,-1,6
 110 713 110 713 141 713 c 256,7,8
 172 713 172 713 188.5 696 c 128,-1,9
 205 679 205 679 205 647 c 2,10,-1
 205 411 l 1,11,-1
 366 411 l 2,12,13
 441 411 441 411 495 387.5 c 128,-1,14
 549 364 549 364 577.5 318.5 c 128,-1,15
 606 273 606 273 606 206 c 0,16,17
 606 106 606 106 542.5 53 c 128,-1,18
 479 0 479 0 366 0 c 2,19,-1
 145 0 l 2,0,1
205 102 m 1,20,-1
 350 102 l 2,21,22
 418 102 418 102 450 127.5 c 128,-1,23
 482 153 482 153 482 206 c 256,24,25
 482 259 482 259 450 284 c 128,-1,26
 418 309 418 309 350 309 c 2,27,-1
 205 309 l 1,28,-1
 205 102 l 1,20,-1
760 -8 m 0,29,30
 729 -8 729 -8 712.5 9.5 c 128,-1,31
 696 27 696 27 696 58 c 2,32,-1
 696 647 l 2,33,34
 696 679 696 679 712.5 696 c 128,-1,35
 729 713 729 713 760 713 c 256,36,37
 791 713 791 713 807.5 696 c 128,-1,38
 824 679 824 679 824 647 c 2,39,-1
 824 58 l 2,40,41
 824 27 824 27 808 9.5 c 128,-1,42
 792 -8 792 -8 760 -8 c 0,29,30
EndSplineSet
EndChar

StartChar: uni042A
Encoding: 1066 1066 571
Width: 807
GlyphClass: 1
Flags: W
LayerCount: 2
Fore
SplineSet
278 0 m 2,0,1
 245 0 245 0 227.5 17.5 c 128,-1,2
 210 35 210 35 210 68 c 2,3,-1
 210 598 l 1,4,-1
 53 598 l 2,5,6
 26 598 26 598 11.5 612.5 c 128,-1,7
 -3 627 -3 627 -3 652 c 0,8,9
 -3 678 -3 678 11.5 691.5 c 128,-1,10
 26 705 26 705 53 705 c 2,11,-1
 271 705 l 2,12,13
 304 705 304 705 321.5 687.5 c 128,-1,14
 339 670 339 670 339 637 c 2,15,-1
 339 411 l 1,16,-1
 529 411 l 2,17,18
 605 411 605 411 658.5 387.5 c 128,-1,19
 712 364 712 364 740.5 318.5 c 128,-1,20
 769 273 769 273 769 206 c 0,21,22
 769 106 769 106 705.5 53 c 128,-1,23
 642 0 642 0 529 0 c 2,24,-1
 278 0 l 2,0,1
339 102 m 1,25,-1
 514 102 l 2,26,27
 581 102 581 102 613.5 127.5 c 128,-1,28
 646 153 646 153 646 206 c 256,29,30
 646 259 646 259 613.5 284 c 128,-1,31
 581 309 581 309 514 309 c 2,32,-1
 339 309 l 1,33,-1
 339 102 l 1,25,-1
EndSplineSet
EndChar

StartChar: uni0409
Encoding: 1033 1033 572
Width: 1133
GlyphClass: 1
Flags: W
LayerCount: 2
Fore
SplineSet
605 0 m 2,0,1
 572 0 572 0 554.5 17.5 c 128,-1,2
 537 35 537 35 537 68 c 2,3,-1
 537 598 l 1,4,-1
 295 598 l 1,5,-1
 295 458 l 2,6,7
 295 368 295 368 283.5 296.5 c 128,-1,8
 272 225 272 225 249 169.5 c 128,-1,9
 226 114 226 114 192.5 73 c 128,-1,10
 159 32 159 32 114 4 c 0,11,12
 99 -6 99 -6 84 -8 c 128,-1,13
 69 -10 69 -10 55.5 -3.5 c 128,-1,14
 42 3 42 3 31 18 c 0,15,16
 15 41 15 41 21 62 c 128,-1,17
 27 83 27 83 49 101 c 0,18,19
 81 123 81 123 105 155 c 128,-1,20
 129 187 129 187 145 233 c 128,-1,21
 161 279 161 279 169 342.5 c 128,-1,22
 177 406 177 406 177 491 c 2,23,-1
 177 637 l 2,24,25
 177 670 177 670 194.5 687.5 c 128,-1,26
 212 705 212 705 245 705 c 2,27,-1
 597 705 l 2,28,29
 630 705 630 705 647.5 687.5 c 128,-1,30
 665 670 665 670 665 637 c 2,31,-1
 665 411 l 1,32,-1
 856 411 l 2,33,34
 931 411 931 411 985 387.5 c 128,-1,35
 1039 364 1039 364 1067.5 318.5 c 128,-1,36
 1096 273 1096 273 1096 206 c 0,37,38
 1096 106 1096 106 1032.5 53 c 128,-1,39
 969 0 969 0 856 0 c 2,40,-1
 605 0 l 2,0,1
665 102 m 1,41,-1
 840 102 l 2,42,43
 908 102 908 102 940 127.5 c 128,-1,44
 972 153 972 153 972 206 c 256,45,46
 972 259 972 259 940 284 c 128,-1,47
 908 309 908 309 840 309 c 2,48,-1
 665 309 l 1,49,-1
 665 102 l 1,41,-1
EndSplineSet
EndChar

StartChar: uni040A
Encoding: 1034 1034 573
Width: 1164
GlyphClass: 1
Flags: W
LayerCount: 2
Fore
SplineSet
141 -8 m 0,0,1
 110 -8 110 -8 93.5 9.5 c 128,-1,2
 77 27 77 27 77 58 c 2,3,-1
 77 647 l 2,4,5
 77 679 77 679 93.5 696 c 128,-1,6
 110 713 110 713 141 713 c 256,7,8
 172 713 172 713 188.5 696 c 128,-1,9
 205 679 205 679 205 647 c 2,10,-1
 205 411 l 1,11,-1
 568 411 l 1,12,-1
 568 647 l 2,13,14
 568 679 568 679 584.5 696 c 128,-1,15
 601 713 601 713 632 713 c 256,16,17
 663 713 663 713 679.5 696 c 128,-1,18
 696 679 696 679 696 647 c 2,19,-1
 696 411 l 1,20,-1
 887 411 l 2,21,22
 962 411 962 411 1016 387.5 c 128,-1,23
 1070 364 1070 364 1098.5 318.5 c 128,-1,24
 1127 273 1127 273 1127 206 c 0,25,26
 1127 106 1127 106 1063.5 53 c 128,-1,27
 1000 0 1000 0 887 0 c 2,28,-1
 636 0 l 2,29,30
 603 0 603 0 585.5 17.5 c 128,-1,31
 568 35 568 35 568 68 c 2,32,-1
 568 304 l 1,33,-1
 205 304 l 1,34,-1
 205 58 l 2,35,36
 205 27 205 27 189 9.5 c 128,-1,37
 173 -8 173 -8 141 -8 c 0,0,1
696 102 m 1,38,-1
 871 102 l 2,39,40
 939 102 939 102 971 127.5 c 128,-1,41
 1003 153 1003 153 1003 206 c 256,42,43
 1003 259 1003 259 971 284 c 128,-1,44
 939 309 939 309 871 309 c 2,45,-1
 696 309 l 1,46,-1
 696 102 l 1,38,-1
EndSplineSet
EndChar

StartChar: uni0404
Encoding: 1028 1028 575
Width: 680
GlyphClass: 2
Flags: W
AnchorPoint: "Anchor-2" 391 0 basechar 0
AnchorPoint: "Anchor-0" 392 705 basechar 0
LayerCount: 2
Fore
SplineSet
405 -10 m 0,0,1
 295 -10 295 -10 216.5 34.5 c 128,-1,2
 138 79 138 79 96 160.5 c 128,-1,3
 54 242 54 242 54 353 c 0,4,5
 54 436 54 436 78 502.5 c 128,-1,6
 102 569 102 569 147 616.5 c 128,-1,7
 192 664 192 664 257.5 689.5 c 128,-1,8
 323 715 323 715 405 715 c 0,9,10
 460 715 460 715 513.5 701 c 128,-1,11
 567 687 567 687 613 656 c 0,12,13
 633 643 633 643 639 626 c 128,-1,14
 645 609 645 609 641 592.5 c 128,-1,15
 637 576 637 576 624.5 564.5 c 128,-1,16
 612 553 612 553 594 551 c 128,-1,17
 576 549 576 549 555 562 c 0,18,19
 521 582 521 582 485.5 591.5 c 128,-1,20
 450 601 450 601 409 601 c 0,21,22
 342 601 342 601 294.5 575 c 128,-1,23
 247 549 247 549 220 499 c 128,-1,24
 193 449 193 449 189 378 c 1,25,-1
 152 410 l 1,26,-1
 464 410 l 2,27,28
 490 410 490 410 504 396.5 c 128,-1,29
 518 383 518 383 518 359 c 0,30,31
 518 334 518 334 504 321 c 128,-1,32
 490 308 490 308 464 308 c 2,33,-1
 150 308 l 1,34,-1
 188 338 l 1,35,36
 192 261 192 261 219 209 c 128,-1,37
 246 157 246 157 294 130.5 c 128,-1,38
 342 104 342 104 409 104 c 0,39,40
 450 104 450 104 487 114 c 128,-1,41
 524 124 524 124 561 147 c 0,42,43
 582 161 582 161 599 158.5 c 128,-1,44
 616 156 616 156 626.5 143.5 c 128,-1,45
 637 131 637 131 639.5 113 c 128,-1,46
 642 95 642 95 635 77.5 c 128,-1,47
 628 60 628 60 610 48 c 0,48,49
 567 20 567 20 514.5 5 c 128,-1,50
 462 -10 462 -10 405 -10 c 0,0,1
EndSplineSet
EndChar

StartChar: uni042D
Encoding: 1069 1069 576
Width: 680
GlyphClass: 2
Flags: W
AnchorPoint: "Anchor-2" 305 0 basechar 0
AnchorPoint: "Anchor-0" 305 705 basechar 0
LayerCount: 2
Fore
SplineSet
275 -10 m 0,0,1
 218 -10 218 -10 165.5 5 c 128,-1,2
 113 20 113 20 70 48 c 0,3,4
 52 60 52 60 45 77.5 c 128,-1,5
 38 95 38 95 40.5 113 c 128,-1,6
 43 131 43 131 53.5 143.5 c 128,-1,7
 64 156 64 156 81 158.5 c 128,-1,8
 98 161 98 161 119 147 c 0,9,10
 156 124 156 124 193 114 c 128,-1,11
 230 104 230 104 271 104 c 0,12,13
 338 104 338 104 386 130.5 c 128,-1,14
 434 157 434 157 461.5 209 c 128,-1,15
 489 261 489 261 492 338 c 1,16,-1
 530 308 l 1,17,-1
 216 308 l 2,18,19
 190 308 190 308 176 321 c 128,-1,20
 162 334 162 334 162 359 c 0,21,22
 162 383 162 383 176 396.5 c 128,-1,23
 190 410 190 410 216 410 c 2,24,-1
 528 410 l 1,25,-1
 491 378 l 1,26,27
 486 449 486 449 460.5 499 c 128,-1,28
 435 549 435 549 389 575 c 128,-1,29
 343 601 343 601 277 601 c 0,30,31
 237 601 237 601 199.5 590.5 c 128,-1,32
 162 580 162 580 127 560 c 0,33,34
 106 547 106 547 88 549 c 128,-1,35
 70 551 70 551 57.5 562.5 c 128,-1,36
 45 574 45 574 41 590.5 c 128,-1,37
 37 607 37 607 43.5 624 c 128,-1,38
 50 641 50 641 69 654 c 0,39,40
 116 685 116 685 172 700 c 128,-1,41
 228 715 228 715 283 715 c 0,42,43
 391 715 391 715 467.5 670 c 128,-1,44
 544 625 544 625 585 544 c 128,-1,45
 626 463 626 463 626 353 c 0,46,47
 626 270 626 270 602 203 c 128,-1,48
 578 136 578 136 533 88.5 c 128,-1,49
 488 41 488 41 423 15.5 c 128,-1,50
 358 -10 358 -10 275 -10 c 0,0,1
EndSplineSet
EndChar

StartChar: uni040B
Encoding: 1035 1035 580
Width: 866
GlyphClass: 1
Flags: W
LayerCount: 2
Fore
SplineSet
311 -8 m 0,0,1
 280 -8 280 -8 263.5 9.5 c 128,-1,2
 247 27 247 27 247 58 c 2,3,-1
 247 598 l 1,4,-1
 52 598 l 2,5,6
 26 598 26 598 11.5 612.5 c 128,-1,7
 -3 627 -3 627 -3 652 c 0,8,9
 -3 678 -3 678 11.5 691.5 c 128,-1,10
 26 705 26 705 52 705 c 2,11,-1
 570 705 l 2,12,13
 596 705 596 705 610.5 691.5 c 128,-1,14
 625 678 625 678 625 652 c 0,15,16
 625 627 625 627 610.5 612.5 c 128,-1,17
 596 598 596 598 570 598 c 2,18,-1
 375 598 l 1,19,-1
 375 413 l 1,20,21
 402 427 402 427 444 434.5 c 128,-1,22
 486 442 486 442 528 442 c 0,23,24
 620 442 620 442 684 409.5 c 128,-1,25
 748 377 748 377 781 311.5 c 128,-1,26
 814 246 814 246 814 146 c 2,27,-1
 814 58 l 2,28,29
 814 27 814 27 797 9.5 c 128,-1,30
 780 -8 780 -8 749 -8 c 256,31,32
 718 -8 718 -8 702 9.5 c 128,-1,33
 686 27 686 27 686 58 c 2,34,-1
 686 140 l 2,35,36
 686 241 686 241 642 286.5 c 128,-1,37
 598 332 598 332 513 332 c 0,38,39
 477 332 477 332 441.5 325.5 c 128,-1,40
 406 319 406 319 375 302 c 1,41,-1
 375 58 l 2,42,43
 375 27 375 27 359 9.5 c 128,-1,44
 343 -8 343 -8 311 -8 c 0,0,1
EndSplineSet
EndChar

StartChar: uni042E
Encoding: 1070 1070 581
Width: 1047
GlyphClass: 1
Flags: W
AnchorPoint: "Anchor-0" 545 680 basechar 0
LayerCount: 2
Fore
SplineSet
663 -10 m 0,0,1
 571 -10 571 -10 501.5 28.5 c 128,-1,2
 432 67 432 67 389.5 137.5 c 128,-1,3
 347 208 347 208 337 304 c 1,4,-1
 205 304 l 1,5,-1
 205 58 l 2,6,7
 205 27 205 27 189 9.5 c 128,-1,8
 173 -8 173 -8 141 -8 c 0,9,10
 110 -8 110 -8 93.5 9.5 c 128,-1,11
 77 27 77 27 77 58 c 2,12,-1
 77 647 l 2,13,14
 77 679 77 679 93.5 696 c 128,-1,15
 110 713 110 713 141 713 c 256,16,17
 172 713 172 713 188.5 696 c 128,-1,18
 205 679 205 679 205 647 c 2,19,-1
 205 411 l 1,20,-1
 338 411 l 1,21,22
 349 505 349 505 391.5 573 c 128,-1,23
 434 641 434 641 503 678 c 128,-1,24
 572 715 572 715 663 715 c 0,25,26
 764 715 764 715 838 670.5 c 128,-1,27
 912 626 912 626 952.5 545 c 128,-1,28
 993 464 993 464 993 353 c 0,29,30
 993 270 993 270 969.5 203 c 128,-1,31
 946 136 946 136 903 88.5 c 128,-1,32
 860 41 860 41 799 15.5 c 128,-1,33
 738 -10 738 -10 663 -10 c 0,0,1
663 100 m 0,34,35
 725 100 725 100 769 130 c 128,-1,36
 813 160 813 160 836 217 c 128,-1,37
 859 274 859 274 859 353 c 0,38,39
 859 473 859 473 808 539 c 128,-1,40
 757 605 757 605 663 605 c 0,41,42
 601 605 601 605 557 575.5 c 128,-1,43
 513 546 513 546 490 489.5 c 128,-1,44
 467 433 467 433 467 353 c 0,45,46
 467 234 467 234 518.5 167 c 128,-1,47
 570 100 570 100 663 100 c 0,34,35
EndSplineSet
EndChar

StartChar: uni042F
Encoding: 1071 1071 582
Width: 688
GlyphClass: 1
Flags: W
AnchorPoint: "Anchor-0" 356 692 basechar 0
LayerCount: 2
Fore
SplineSet
548 -8 m 256,0,1
 517 -8 517 -8 500.5 9.5 c 128,-1,2
 484 27 484 27 484 58 c 2,3,-1
 484 282 l 1,4,-1
 398 282 l 2,5,6
 374 282 374 282 355 277 c 128,-1,7
 336 272 336 272 321 260 c 128,-1,8
 306 248 306 248 294 225 c 2,9,-1
 188 31 l 2,10,11
 175 7 175 7 156 -1.5 c 128,-1,12
 137 -10 137 -10 118 -6.5 c 128,-1,13
 99 -3 99 -3 85 10 c 128,-1,14
 71 23 71 23 67.5 43 c 128,-1,15
 64 63 64 63 77 87 c 2,16,-1
 148 217 l 2,17,18
 170 258 170 258 201 279 c 128,-1,19
 232 300 232 300 273 300 c 2,20,-1
 307 300 l 1,21,-1
 305 285 l 1,22,23
 190 285 190 285 126.5 340.5 c 128,-1,24
 63 396 63 396 63 494 c 0,25,26
 63 561 63 561 91 608 c 128,-1,27
 119 655 119 655 173.5 680 c 128,-1,28
 228 705 228 705 305 705 c 2,29,-1
 544 705 l 2,30,31
 577 705 577 705 594.5 687.5 c 128,-1,32
 612 670 612 670 612 637 c 2,33,-1
 612 58 l 2,34,35
 612 27 612 27 595.5 9.5 c 128,-1,36
 579 -8 579 -8 548 -8 c 256,0,1
327 377 m 2,37,-1
 484 377 l 1,38,-1
 484 604 l 1,39,-1
 327 604 l 2,40,41
 258 604 258 604 222.5 575.5 c 128,-1,42
 187 547 187 547 187 491 c 0,43,44
 187 434 187 434 222.5 405.5 c 128,-1,45
 258 377 258 377 327 377 c 2,37,-1
EndSplineSet
EndChar

StartChar: uni0402
Encoding: 1026 1026 583
Width: 870
GlyphClass: 1
Flags: W
LayerCount: 2
Fore
SplineSet
590 -190 m 0,0,1
 570 -190 570 -190 546 -187.5 c 128,-1,2
 522 -185 522 -185 503 -180 c 0,3,4
 483 -174 483 -174 473.5 -161.5 c 128,-1,5
 464 -149 464 -149 462.5 -134 c 128,-1,6
 461 -119 461 -119 467.5 -106 c 128,-1,7
 474 -93 474 -93 486.5 -85.5 c 128,-1,8
 499 -78 499 -78 517 -82 c 0,9,10
 532 -85 532 -85 546 -86.5 c 128,-1,11
 560 -88 560 -88 576 -88 c 0,12,13
 629 -88 629 -88 659.5 -51.5 c 128,-1,14
 690 -15 690 -15 690 55 c 2,15,-1
 690 140 l 2,16,17
 690 241 690 241 643.5 286.5 c 128,-1,18
 597 332 597 332 508 332 c 0,19,20
 471 332 471 332 437 324.5 c 128,-1,21
 403 317 403 317 375 302 c 1,22,-1
 375 58 l 2,23,24
 375 27 375 27 359 9.5 c 128,-1,25
 343 -8 343 -8 311 -8 c 0,26,27
 280 -8 280 -8 263.5 9.5 c 128,-1,28
 247 27 247 27 247 58 c 2,29,-1
 247 598 l 1,30,-1
 52 598 l 2,31,32
 26 598 26 598 11.5 612.5 c 128,-1,33
 -3 627 -3 627 -3 652 c 0,34,35
 -3 678 -3 678 11.5 691.5 c 128,-1,36
 26 705 26 705 52 705 c 2,37,-1
 570 705 l 2,38,39
 596 705 596 705 610.5 691.5 c 128,-1,40
 625 678 625 678 625 652 c 0,41,42
 625 627 625 627 610.5 612.5 c 128,-1,43
 596 598 596 598 570 598 c 2,44,-1
 375 598 l 1,45,-1
 375 413 l 1,46,47
 400 426 400 426 440 434 c 128,-1,48
 480 442 480 442 522 442 c 0,49,50
 594 442 594 442 649 423.5 c 128,-1,51
 704 405 704 405 741.5 368.5 c 128,-1,52
 779 332 779 332 798.5 276.5 c 128,-1,53
 818 221 818 221 818 146 c 2,54,-1
 818 60 l 2,55,56
 818 -20 818 -20 790 -76 c 128,-1,57
 762 -132 762 -132 710.5 -161 c 128,-1,58
 659 -190 659 -190 590 -190 c 0,0,1
EndSplineSet
EndChar

StartChar: uni0462
Encoding: 1122 1122 584
Width: 744
GlyphClass: 1
Flags: W
LayerCount: 2
Fore
SplineSet
220 0 m 2,0,1
 187 0 187 0 169.5 17.5 c 128,-1,2
 152 35 152 35 152 68 c 2,3,-1
 152 523 l 1,4,-1
 21 523 l 2,5,6
 -3 523 -3 523 -15.5 535.5 c 128,-1,7
 -28 548 -28 548 -28 570 c 0,8,9
 -28 616 -28 616 21 616 c 2,10,-1
 185 616 l 1,11,-1
 152 558 l 1,12,-1
 152 647 l 2,13,14
 152 679 152 679 168.5 696 c 128,-1,15
 185 713 185 713 214 713 c 0,16,17
 244 713 244 713 260 696 c 128,-1,18
 276 679 276 679 276 647 c 2,19,-1
 276 558 l 1,20,-1
 243 616 l 1,21,-1
 471 616 l 2,22,23
 495 616 495 616 507.5 604.5 c 128,-1,24
 520 593 520 593 520 570 c 0,25,26
 520 523 520 523 471 523 c 2,27,-1
 276 523 l 1,28,-1
 276 411 l 1,29,-1
 466 411 l 2,30,31
 579 411 579 411 642.5 359 c 128,-1,32
 706 307 706 307 706 206 c 0,33,34
 706 106 706 106 642.5 53 c 128,-1,35
 579 0 579 0 466 0 c 2,36,-1
 220 0 l 2,0,1
275 102 m 1,37,-1
 451 102 l 2,38,39
 518 102 518 102 550.5 127.5 c 128,-1,40
 583 153 583 153 583 206 c 256,41,42
 583 259 583 259 550.5 284 c 128,-1,43
 518 309 518 309 451 309 c 2,44,-1
 275 309 l 1,45,-1
 275 102 l 1,37,-1
EndSplineSet
EndChar

StartChar: uni046A
Encoding: 1130 1130 585
Width: 1009
GlyphClass: 1
Flags: W
LayerCount: 2
Fore
SplineSet
504 -8 m 0,0,1
 473 -8 473 -8 456.5 9.5 c 128,-1,2
 440 27 440 27 440 58 c 2,3,-1
 440 299 l 1,4,-1
 378 299 l 2,5,6
 324 299 324 299 292.5 276 c 128,-1,7
 261 253 261 253 238 203 c 2,8,-1
 158 33 l 2,9,10
 147 10 147 10 128.5 0.5 c 128,-1,11
 110 -9 110 -9 90.5 -7 c 128,-1,12
 71 -5 71 -5 55.5 6.5 c 128,-1,13
 40 18 40 18 35.5 38 c 128,-1,14
 31 58 31 58 44 83 c 2,15,-1
 128 255 l 2,16,17
 151 301 151 301 184 334.5 c 128,-1,18
 217 368 217 368 263 386 c 128,-1,19
 309 404 309 404 369 404 c 2,20,-1
 411 404 l 1,21,-1
 409 374 l 1,22,-1
 186 628 l 2,23,24
 170 647 170 647 169 664.5 c 128,-1,25
 168 682 168 682 182 693.5 c 128,-1,26
 196 705 196 705 225 705 c 2,27,-1
 783 705 l 2,28,29
 812 705 812 705 826 693.5 c 128,-1,30
 840 682 840 682 839 664.5 c 128,-1,31
 838 647 838 647 822 628 c 2,32,-1
 599 374 l 1,33,-1
 596 404 l 1,34,-1
 638 404 l 2,35,36
 698 404 698 404 744 386 c 128,-1,37
 790 368 790 368 824 334.5 c 128,-1,38
 858 301 858 301 880 255 c 2,39,-1
 964 83 l 2,40,41
 977 57 977 57 972.5 37.5 c 128,-1,42
 968 18 968 18 952.5 6 c 128,-1,43
 937 -6 937 -6 917.5 -7.5 c 128,-1,44
 898 -9 898 -9 879.5 0.5 c 128,-1,45
 861 10 861 10 850 33 c 2,46,-1
 770 203 l 2,47,48
 747 253 747 253 715.5 276 c 128,-1,49
 684 299 684 299 630 299 c 2,50,-1
 568 299 l 1,51,-1
 568 58 l 2,52,53
 568 27 568 27 552 9.5 c 128,-1,54
 536 -8 536 -8 504 -8 c 0,0,1
503 404 m 1,55,-1
 505 404 l 1,56,-1
 714 650 l 1,57,-1
 714 616 l 1,58,-1
 294 616 l 1,59,-1
 294 650 l 1,60,-1
 503 404 l 1,55,-1
EndSplineSet
EndChar

StartChar: uni0474
Encoding: 1140 1140 587
Width: 770
GlyphClass: 1
Flags: W
LayerCount: 2
Fore
SplineSet
357 -8 m 0,0,1
 330 -8 330 -8 312.5 4.5 c 128,-1,2
 295 17 295 17 284 42 c 2,3,-1
 23 628 l 2,4,5
 12 653 12 653 17 672 c 128,-1,6
 22 691 22 691 38 702 c 128,-1,7
 54 713 54 713 76 713 c 0,8,9
 105 713 105 713 119.5 700.5 c 128,-1,10
 134 688 134 688 144 663 c 2,11,-1
 380 114 l 1,12,-1
 337 114 l 1,13,-1
 501 513 l 2,14,15
 529 580 529 580 559.5 622.5 c 128,-1,16
 590 665 590 665 631 687 c 128,-1,17
 672 709 672 709 729 713 c 0,18,19
 754 715 754 715 769 705.5 c 128,-1,20
 784 696 784 696 789.5 680.5 c 128,-1,21
 795 665 795 665 791.5 649 c 128,-1,22
 788 633 788 633 776 621 c 128,-1,23
 764 609 764 609 743 606 c 0,24,25
 711 602 711 602 688.5 586.5 c 128,-1,26
 666 571 666 571 647.5 541.5 c 128,-1,27
 629 512 629 512 608 464 c 2,28,-1
 428 42 l 2,29,30
 418 17 418 17 401.5 4.5 c 128,-1,31
 385 -8 385 -8 357 -8 c 0,0,1
EndSplineSet
EndChar

StartChar: uni0496
Encoding: 1174 1174 588
Width: 1030
GlyphClass: 1
Flags: W
LayerCount: 2
Fore
SplineSet
1001 -173 m 0,0,1
 973 -173 973 -173 958.5 -158 c 128,-1,2
 944 -143 944 -143 944 -115 c 2,3,-1
 944 58 l 1,4,-1
 1002 0 l 1,5,-1
 917 0 l 2,6,7
 900 0 900 0 882 8.5 c 128,-1,8
 864 17 864 17 854 38 c 2,9,-1
 777 203 l 2,10,11
 753 255 753 255 719.5 277 c 128,-1,12
 686 299 686 299 636 299 c 2,13,-1
 569 299 l 1,14,-1
 569 58 l 2,15,16
 569 27 569 27 553 9.5 c 128,-1,17
 537 -8 537 -8 508 -8 c 0,18,19
 478 -8 478 -8 462 9.5 c 128,-1,20
 446 27 446 27 446 58 c 2,21,-1
 446 299 l 1,22,-1
 379 299 l 2,23,24
 328 299 328 299 294.5 276.5 c 128,-1,25
 261 254 261 254 237 203 c 2,26,-1
 158 33 l 2,27,28
 147 10 147 10 128.5 0.5 c 128,-1,29
 110 -9 110 -9 90.5 -7 c 128,-1,30
 71 -5 71 -5 55.5 6.5 c 128,-1,31
 40 18 40 18 35.5 38 c 128,-1,32
 31 58 31 58 44 83 c 2,33,-1
 126 251 l 2,34,35
 158 318 158 318 204 354.5 c 128,-1,36
 250 391 250 391 314 401 c 1,37,-1
 264 364 l 1,38,-1
 96 621 l 2,39,40
 82 643 82 643 83.5 662 c 128,-1,41
 85 681 85 681 98 694 c 128,-1,42
 111 707 111 707 129 711 c 128,-1,43
 147 715 147 715 166 708 c 128,-1,44
 185 701 185 701 198 680 c 2,45,-1
 382 389 l 1,46,-1
 358 406 l 1,47,-1
 446 406 l 1,48,-1
 446 648 l 2,49,50
 446 680 446 680 462 696.5 c 128,-1,51
 478 713 478 713 508 713 c 0,52,53
 537 713 537 713 553 696.5 c 128,-1,54
 569 680 569 680 569 648 c 2,55,-1
 569 406 l 1,56,-1
 658 406 l 1,57,-1
 633 389 l 1,58,-1
 817 680 l 2,59,60
 831 701 831 701 849.5 708 c 128,-1,61
 868 715 868 715 886 711 c 128,-1,62
 904 707 904 707 917 694 c 128,-1,63
 930 681 930 681 931.5 662 c 128,-1,64
 933 643 933 643 919 621 c 2,65,-1
 751 364 l 1,66,-1
 701 401 l 1,67,68
 744 395 744 395 778 376 c 128,-1,69
 812 357 812 357 839.5 326 c 128,-1,70
 867 295 867 295 888 251 c 2,71,-1
 985 51 l 1,72,-1
 939 103 l 1,73,-1
 997 103 l 2,74,75
 1026 103 1026 103 1042 87.5 c 128,-1,76
 1058 72 1058 72 1058 43 c 2,77,-1
 1058 -115 l 2,78,79
 1058 -143 1058 -143 1043 -158 c 128,-1,80
 1028 -173 1028 -173 1001 -173 c 0,0,1
EndSplineSet
EndChar

StartChar: uni0498
Encoding: 1176 1176 589
Width: 635
GlyphClass: 2
Flags: W
AnchorPoint: "Anchor-2" 314 0 basechar 0
AnchorPoint: "Anchor-0" 308 705 basechar 0
LayerCount: 2
Fore
SplineSet
313 -173 m 256,0,1
 285 -173 285 -173 270.5 -157 c 128,-1,2
 256 -141 256 -141 256 -112 c 2,3,-1
 256 61 l 1,4,-1
 370 61 l 1,5,-1
 370 -112 l 2,6,7
 370 -141 370 -141 355.5 -157 c 128,-1,8
 341 -173 341 -173 313 -173 c 256,0,1
304 -10 m 0,9,10
 231 -10 231 -10 168.5 6.5 c 128,-1,11
 106 23 106 23 59 54 c 0,12,13
 40 66 40 66 33.5 82.5 c 128,-1,14
 27 99 27 99 30.5 114.5 c 128,-1,15
 34 130 34 130 45 141 c 128,-1,16
 56 152 56 152 73 154 c 128,-1,17
 90 156 90 156 110 144 c 0,18,19
 136 129 136 129 165 119 c 128,-1,20
 194 109 194 109 226.5 104 c 128,-1,21
 259 99 259 99 294 99 c 0,22,23
 350 99 350 99 385.5 111 c 128,-1,24
 421 123 421 123 438.5 147 c 128,-1,25
 456 171 456 171 456 208 c 0,26,27
 456 258 456 258 424 282.5 c 128,-1,28
 392 307 392 307 324 307 c 2,29,-1
 199 307 l 2,30,31
 173 307 173 307 159 320 c 128,-1,32
 145 333 145 333 145 358 c 0,33,34
 145 382 145 382 159 395 c 128,-1,35
 173 408 173 408 199 408 c 2,36,-1
 307 408 l 2,37,38
 373 408 373 408 405.5 432 c 128,-1,39
 438 456 438 456 438 505 c 0,40,41
 438 536 438 536 422.5 559 c 128,-1,42
 407 582 407 582 375.5 594.5 c 128,-1,43
 344 607 344 607 295 607 c 0,44,45
 252 607 252 607 208.5 596.5 c 128,-1,46
 165 586 165 586 129 566 c 0,47,48
 108 554 108 554 91.5 556.5 c 128,-1,49
 75 559 75 559 64.5 570.5 c 128,-1,50
 54 582 54 582 51 598 c 128,-1,51
 48 614 48 614 55 630 c 128,-1,52
 62 646 62 646 80 657 c 0,53,54
 128 686 128 686 187.5 700.5 c 128,-1,55
 247 715 247 715 309 715 c 0,56,57
 395 715 395 715 451.5 690.5 c 128,-1,58
 508 666 508 666 536.5 622.5 c 128,-1,59
 565 579 565 579 565 522 c 0,60,61
 565 458 565 458 527.5 414 c 128,-1,62
 490 370 490 370 427 355 c 1,63,-1
 427 370 l 1,64,65
 500 359 500 359 541 314 c 128,-1,66
 582 269 582 269 582 197 c 0,67,68
 582 135 582 135 552 88 c 128,-1,69
 522 41 522 41 460.5 15.5 c 128,-1,70
 399 -10 399 -10 304 -10 c 0,9,10
EndSplineSet
Substitution2: "'locl' Localized Forms in Cyrillic lookup 17 subtable" uni0498.loclCHU
Substitution2: "'locl' Localized Forms in Cyrillic lookup 16 subtable" uni0498.loclBSH
AlternateSubs2: "'aalt' Access All Alternates lookup 1 subtable" uni0498.loclBSH uni0498.loclCHU
EndChar

StartChar: uni049A
Encoding: 1178 1178 590
Width: 691
GlyphClass: 1
Flags: W
LayerCount: 2
Fore
SplineSet
662 -173 m 0,0,1
 634 -173 634 -173 619.5 -158 c 128,-1,2
 605 -143 605 -143 605 -115 c 2,3,-1
 605 20 l 1,4,-1
 621 0 l 1,5,-1
 578 0 l 2,6,7
 561 0 561 0 543 8.5 c 128,-1,8
 525 17 525 17 515 38 c 2,9,-1
 438 203 l 2,10,11
 414 255 414 255 380.5 277 c 128,-1,12
 347 299 347 299 297 299 c 2,13,-1
 205 299 l 1,14,-1
 205 58 l 2,15,16
 205 27 205 27 189 9.5 c 128,-1,17
 173 -8 173 -8 141 -8 c 0,18,19
 110 -8 110 -8 93.5 9.5 c 128,-1,20
 77 27 77 27 77 58 c 2,21,-1
 77 648 l 2,22,23
 77 680 77 680 93.5 696.5 c 128,-1,24
 110 713 110 713 141 713 c 256,25,26
 172 713 172 713 188.5 696.5 c 128,-1,27
 205 680 205 680 205 648 c 2,28,-1
 205 406 l 1,29,-1
 319 406 l 1,30,-1
 294 389 l 1,31,-1
 478 680 l 2,32,33
 492 701 492 701 510.5 708 c 128,-1,34
 529 715 529 715 547 711 c 128,-1,35
 565 707 565 707 578 694 c 128,-1,36
 591 681 591 681 592.5 662 c 128,-1,37
 594 643 594 643 580 621 c 2,38,-1
 412 364 l 1,39,-1
 362 401 l 1,40,41
 427 391 427 391 472 354 c 128,-1,42
 517 317 517 317 549 251 c 2,43,-1
 646 51 l 1,44,-1
 593 103 l 1,45,-1
 658 103 l 2,46,47
 687 103 687 103 703 87.5 c 128,-1,48
 719 72 719 72 719 43 c 2,49,-1
 719 -115 l 2,50,51
 719 -143 719 -143 704 -158 c 128,-1,52
 689 -173 689 -173 662 -173 c 0,0,1
EndSplineSet
EndChar

StartChar: uni049C
Encoding: 1180 1180 591
Width: 728
GlyphClass: 1
Flags: W
LayerCount: 2
Fore
SplineSet
141 -8 m 0,0,1
 110 -8 110 -8 93.5 9.5 c 128,-1,2
 77 27 77 27 77 58 c 2,3,-1
 77 648 l 2,4,5
 77 680 77 680 93.5 696.5 c 128,-1,6
 110 713 110 713 141 713 c 256,7,8
 172 713 172 713 188.5 696.5 c 128,-1,9
 205 680 205 680 205 648 c 2,10,-1
 205 405 l 1,11,-1
 262 405 l 1,12,-1
 262 526 l 2,13,14
 262 576 262 576 308 576 c 0,15,16
 331 576 331 576 342.5 563.5 c 128,-1,17
 354 551 354 551 354 526 c 2,18,-1
 354 405 l 1,19,-1
 363 405 l 1,20,-1
 352 398 l 1,21,-1
 530 680 l 2,22,23
 543 701 543 701 561.5 708 c 128,-1,24
 580 715 580 715 598.5 710.5 c 128,-1,25
 617 706 617 706 629.5 693.5 c 128,-1,26
 642 681 642 681 644 662 c 128,-1,27
 646 643 646 643 632 621 c 2,28,-1
 464 364 l 1,29,-1
 413 401 l 1,30,31
 456 395 456 395 490.5 377 c 128,-1,32
 525 359 525 359 552.5 328 c 128,-1,33
 580 297 580 297 602 251 c 2,34,-1
 684 83 l 2,35,36
 697 57 697 57 692.5 37.5 c 128,-1,37
 688 18 688 18 672.5 6 c 128,-1,38
 657 -6 657 -6 637.5 -7.5 c 128,-1,39
 618 -9 618 -9 599.5 0.5 c 128,-1,40
 581 10 581 10 570 33 c 2,41,-1
 490 203 l 2,42,43
 466 255 466 255 432.5 278 c 128,-1,44
 399 301 399 301 349 301 c 2,45,-1
 327 301 l 1,46,-1
 354 311 l 1,47,-1
 354 184 l 2,48,49
 354 134 354 134 308 134 c 256,50,51
 262 134 262 134 262 184 c 2,52,-1
 262 301 l 1,53,-1
 205 301 l 1,54,-1
 205 58 l 2,55,56
 205 27 205 27 189 9.5 c 128,-1,57
 173 -8 173 -8 141 -8 c 0,0,1
EndSplineSet
EndChar

StartChar: uni049E
Encoding: 1182 1182 592
Width: 730
GlyphClass: 1
Flags: W
LayerCount: 2
Fore
SplineSet
193 -8 m 0,0,1
 162 -8 162 -8 145.5 9.5 c 128,-1,2
 129 27 129 27 129 58 c 2,3,-1
 129 527 l 1,4,-1
 30 527 l 2,5,6
 6 527 6 527 -7 539.5 c 128,-1,7
 -20 552 -20 552 -20 574 c 256,8,9
 -20 596 -20 596 -7 608 c 128,-1,10
 6 620 6 620 30 620 c 2,11,-1
 143 620 l 1,12,-1
 129 574 l 1,13,-1
 129 648 l 2,14,15
 129 680 129 680 145.5 696.5 c 128,-1,16
 162 713 162 713 193 713 c 256,17,18
 224 713 224 713 240.5 696.5 c 128,-1,19
 257 680 257 680 257 648 c 2,20,-1
 257 574 l 1,21,-1
 243 620 l 1,22,-1
 356 620 l 2,23,24
 380 620 380 620 392.5 608 c 128,-1,25
 405 596 405 596 405 574 c 256,26,27
 405 552 405 552 392.5 539.5 c 128,-1,28
 380 527 380 527 356 527 c 2,29,-1
 257 527 l 1,30,-1
 257 406 l 1,31,-1
 386 406 l 1,32,-1
 354 379 l 1,33,-1
 550 680 l 2,34,35
 564 702 564 702 583 709 c 128,-1,36
 602 716 602 716 620 711.5 c 128,-1,37
 638 707 638 707 650 693.5 c 128,-1,38
 662 680 662 680 663.5 661.5 c 128,-1,39
 665 643 665 643 651 621 c 2,40,-1
 472 354 l 1,41,-1
 409 401 l 1,42,43
 452 395 452 395 486 377 c 128,-1,44
 520 359 520 359 547 328 c 128,-1,45
 574 297 574 297 596 251 c 2,46,-1
 678 83 l 2,47,48
 691 58 691 58 686.5 38 c 128,-1,49
 682 18 682 18 666.5 6.5 c 128,-1,50
 651 -5 651 -5 631.5 -7 c 128,-1,51
 612 -9 612 -9 593.5 0.5 c 128,-1,52
 575 10 575 10 564 33 c 2,53,-1
 485 203 l 2,54,55
 461 255 461 255 427.5 277 c 128,-1,56
 394 299 394 299 344 299 c 2,57,-1
 257 299 l 1,58,-1
 257 58 l 2,59,60
 257 27 257 27 241 9.5 c 128,-1,61
 225 -8 225 -8 193 -8 c 0,0,1
EndSplineSet
EndChar

StartChar: uni04A0
Encoding: 1184 1184 593
Width: 809
GlyphClass: 1
Flags: W
LayerCount: 2
Fore
SplineSet
275 -8 m 0,0,1
 244 -8 244 -8 227.5 9.5 c 128,-1,2
 211 27 211 27 211 58 c 2,3,-1
 211 599 l 1,4,-1
 53 599 l 2,5,6
 26 599 26 599 11.5 613 c 128,-1,7
 -3 627 -3 627 -3 652 c 0,8,9
 -3 678 -3 678 11.5 691.5 c 128,-1,10
 26 705 26 705 53 705 c 2,11,-1
 275 705 l 2,12,13
 306 705 306 705 322.5 688.5 c 128,-1,14
 339 672 339 672 339 640 c 2,15,-1
 339 406 l 1,16,-1
 453 406 l 1,17,-1
 428 389 l 1,18,-1
 612 680 l 2,19,20
 626 701 626 701 644.5 708 c 128,-1,21
 663 715 663 715 681 711 c 128,-1,22
 699 707 699 707 712 694 c 128,-1,23
 725 681 725 681 726.5 662 c 128,-1,24
 728 643 728 643 714 621 c 2,25,-1
 546 364 l 1,26,-1
 496 401 l 1,27,28
 561 391 561 391 606 354 c 128,-1,29
 651 317 651 317 683 251 c 2,30,-1
 765 83 l 2,31,32
 778 58 778 58 773.5 38 c 128,-1,33
 769 18 769 18 753.5 6.5 c 128,-1,34
 738 -5 738 -5 718.5 -7 c 128,-1,35
 699 -9 699 -9 680.5 0.5 c 128,-1,36
 662 10 662 10 651 33 c 2,37,-1
 572 203 l 2,38,39
 548 255 548 255 514.5 277 c 128,-1,40
 481 299 481 299 431 299 c 2,41,-1
 339 299 l 1,42,-1
 339 58 l 2,43,44
 339 27 339 27 323 9.5 c 128,-1,45
 307 -8 307 -8 275 -8 c 0,0,1
EndSplineSet
EndChar

StartChar: uni04A2
Encoding: 1186 1186 594
Width: 818
GlyphClass: 1
Flags: W
LayerCount: 2
Fore
SplineSet
740 -173 m 0,0,1
 712 -173 712 -173 697 -158 c 128,-1,2
 682 -143 682 -143 682 -115 c 2,3,-1
 682 0 l 1,4,-1
 632 0 l 2,5,6
 601 0 601 0 584.5 17.5 c 128,-1,7
 568 35 568 35 568 66 c 2,8,-1
 568 304 l 1,9,-1
 205 304 l 1,10,-1
 205 58 l 2,11,12
 205 27 205 27 189 9.5 c 128,-1,13
 173 -8 173 -8 141 -8 c 0,14,15
 110 -8 110 -8 93.5 9.5 c 128,-1,16
 77 27 77 27 77 58 c 2,17,-1
 77 647 l 2,18,19
 77 679 77 679 93.5 696 c 128,-1,20
 110 713 110 713 141 713 c 256,21,22
 172 713 172 713 188.5 696 c 128,-1,23
 205 679 205 679 205 647 c 2,24,-1
 205 411 l 1,25,-1
 568 411 l 1,26,-1
 568 647 l 2,27,28
 568 679 568 679 584.5 696 c 128,-1,29
 601 713 601 713 632 713 c 256,30,31
 663 713 663 713 679.5 696 c 128,-1,32
 696 679 696 679 696 647 c 2,33,-1
 696 45 l 1,34,-1
 638 103 l 1,35,-1
 736 103 l 2,36,37
 765 103 765 103 780.5 87.5 c 128,-1,38
 796 72 796 72 796 43 c 2,39,-1
 796 -115 l 2,40,41
 796 -143 796 -143 781.5 -158 c 128,-1,42
 767 -173 767 -173 740 -173 c 0,0,1
EndSplineSet
EndChar

StartChar: uni04A4
Encoding: 1188 1188 595
Width: 943
GlyphClass: 1
Flags: W
LayerCount: 2
Fore
SplineSet
141 -8 m 0,0,1
 110 -8 110 -8 93.5 9.5 c 128,-1,2
 77 27 77 27 77 58 c 2,3,-1
 77 647 l 2,4,5
 77 679 77 679 93.5 696 c 128,-1,6
 110 713 110 713 141 713 c 256,7,8
 172 713 172 713 188.5 696 c 128,-1,9
 205 679 205 679 205 647 c 2,10,-1
 205 411 l 1,11,-1
 568 411 l 1,12,-1
 568 639 l 2,13,14
 568 671 568 671 585 688 c 128,-1,15
 602 705 602 705 634 705 c 2,16,-1
 891 705 l 2,17,18
 917 705 917 705 931.5 691.5 c 128,-1,19
 946 678 946 678 946 652 c 0,20,21
 946 627 946 627 931.5 612.5 c 128,-1,22
 917 598 917 598 891 598 c 2,23,-1
 696 598 l 1,24,-1
 696 58 l 2,25,26
 696 27 696 27 679.5 9.5 c 128,-1,27
 663 -8 663 -8 632 -8 c 256,28,29
 601 -8 601 -8 584.5 9.5 c 128,-1,30
 568 27 568 27 568 58 c 2,31,-1
 568 304 l 1,32,-1
 205 304 l 1,33,-1
 205 58 l 2,34,35
 205 27 205 27 189 9.5 c 128,-1,36
 173 -8 173 -8 141 -8 c 0,0,1
EndSplineSet
EndChar

StartChar: uni0524
Encoding: 1316 1316 596
Width: 811
GlyphClass: 1
Flags: W
LayerCount: 2
Fore
SplineSet
734 -173 m 0,0,1
 706 -173 706 -173 691 -158 c 128,-1,2
 676 -143 676 -143 676 -115 c 2,3,-1
 676 0 l 1,4,-1
 626 0 l 2,5,6
 595 0 595 0 578.5 17.5 c 128,-1,7
 562 35 562 35 562 66 c 2,8,-1
 562 598 l 1,9,-1
 205 598 l 1,10,-1
 205 58 l 2,11,12
 205 27 205 27 189 9.5 c 128,-1,13
 173 -8 173 -8 141 -8 c 0,14,15
 110 -8 110 -8 93.5 9.5 c 128,-1,16
 77 27 77 27 77 58 c 2,17,-1
 77 637 l 2,18,19
 77 670 77 670 94.5 687.5 c 128,-1,20
 112 705 112 705 145 705 c 2,21,-1
 622 705 l 2,22,23
 655 705 655 705 672.5 687.5 c 128,-1,24
 690 670 690 670 690 637 c 2,25,-1
 690 45 l 1,26,-1
 632 103 l 1,27,-1
 730 103 l 2,28,29
 759 103 759 103 774.5 87.5 c 128,-1,30
 790 72 790 72 790 43 c 2,31,-1
 790 -115 l 2,32,33
 790 -143 790 -143 775.5 -158 c 128,-1,34
 761 -173 761 -173 734 -173 c 0,0,1
EndSplineSet
EndChar

StartChar: uni04A8
Encoding: 1192 1192 597
Width: 843
GlyphClass: 1
Flags: W
LayerCount: 2
Fore
SplineSet
391 -10 m 0,0,1
 287 -10 287 -10 211 34 c 128,-1,2
 135 78 135 78 94.5 158.5 c 128,-1,3
 54 239 54 239 54 348 c 0,4,5
 54 435 54 435 78 503 c 128,-1,6
 102 571 102 571 146.5 618.5 c 128,-1,7
 191 666 191 666 253 690.5 c 128,-1,8
 315 715 315 715 392 715 c 0,9,10
 399 715 399 715 405 715 c 128,-1,11
 411 715 411 715 420 714 c 0,12,13
 446 712 446 712 458.5 697 c 128,-1,14
 471 682 471 682 470 659 c 0,15,16
 470 641 470 641 460.5 629.5 c 128,-1,17
 451 618 451 618 438 613 c 128,-1,18
 425 608 425 608 412 608 c 0,19,20
 404 608 404 608 393 608 c 128,-1,21
 382 608 382 608 375 607 c 0,22,23
 313 602 313 602 271 571 c 128,-1,24
 229 540 229 540 208 485 c 128,-1,25
 187 430 187 430 187 353 c 0,26,27
 187 267 187 267 211.5 208.5 c 128,-1,28
 236 150 236 150 284 120.5 c 128,-1,29
 332 91 332 91 403 91 c 0,30,31
 461 91 461 91 505 105.5 c 128,-1,32
 549 120 549 120 579 149 c 128,-1,33
 609 178 609 178 624 220.5 c 128,-1,34
 639 263 639 263 639 318 c 0,35,36
 639 387 639 387 615 420.5 c 128,-1,37
 591 454 591 454 549 454 c 0,38,39
 522 454 522 454 502 439 c 128,-1,40
 482 424 482 424 471 394 c 128,-1,41
 460 364 460 364 460 318 c 0,42,43
 460 243 460 243 486 192.5 c 128,-1,44
 512 142 512 142 564.5 116.5 c 128,-1,45
 617 91 617 91 696 91 c 0,46,47
 721 91 721 91 746 95 c 128,-1,48
 771 99 771 99 793 107 c 0,49,50
 813 115 813 115 827.5 109.5 c 128,-1,51
 842 104 842 104 850 91 c 128,-1,52
 858 78 858 78 858 62 c 128,-1,53
 858 46 858 46 850 32 c 128,-1,54
 842 18 842 18 825 11 c 0,55,56
 797 0 797 0 763.5 -5 c 128,-1,57
 730 -10 730 -10 692 -10 c 0,58,59
 620 -10 620 -10 556 13 c 128,-1,60
 492 36 492 36 443 79.5 c 128,-1,61
 394 123 394 123 366.5 184 c 128,-1,62
 339 245 339 245 339 321 c 0,63,64
 339 390 339 390 363 443 c 128,-1,65
 387 496 387 496 434 526.5 c 128,-1,66
 481 557 481 557 549 557 c 256,67,68
 617 557 617 557 664 526.5 c 128,-1,69
 711 496 711 496 735.5 443 c 128,-1,70
 760 390 760 390 760 321 c 0,71,72
 760 244 760 244 731.5 182.5 c 128,-1,73
 703 121 703 121 652.5 78 c 128,-1,74
 602 35 602 35 535 12.5 c 128,-1,75
 468 -10 468 -10 391 -10 c 0,0,1
EndSplineSet
EndChar

StartChar: uni04AA
Encoding: 1194 1194 598
Width: 680
GlyphClass: 2
Flags: W
AnchorPoint: "Anchor-2" 395 0 basechar 0
AnchorPoint: "Anchor-0" 392 705 basechar 0
LayerCount: 2
Fore
SplineSet
386 -173 m 256,0,1
 358 -173 358 -173 343.5 -157 c 128,-1,2
 329 -141 329 -141 329 -112 c 2,3,-1
 329 61 l 1,4,-1
 443 61 l 1,5,-1
 443 -112 l 2,6,7
 443 -141 443 -141 428.5 -157 c 128,-1,8
 414 -173 414 -173 386 -173 c 256,0,1
405 -10 m 0,9,10
 295 -10 295 -10 216.5 34.5 c 128,-1,11
 138 79 138 79 96 160.5 c 128,-1,12
 54 242 54 242 54 353 c 0,13,14
 54 436 54 436 78 502.5 c 128,-1,15
 102 569 102 569 147 616.5 c 128,-1,16
 192 664 192 664 257.5 689.5 c 128,-1,17
 323 715 323 715 405 715 c 0,18,19
 460 715 460 715 513 701 c 128,-1,20
 566 687 566 687 606 661 c 0,21,22
 627 648 627 648 634 629.5 c 128,-1,23
 641 611 641 611 637 593.5 c 128,-1,24
 633 576 633 576 620.5 564 c 128,-1,25
 608 552 608 552 589.5 550.5 c 128,-1,26
 571 549 571 549 549 563 c 0,27,28
 518 583 518 583 482 592 c 128,-1,29
 446 601 446 601 409 601 c 0,30,31
 338 601 338 601 289 572 c 128,-1,32
 240 543 240 543 215 488 c 128,-1,33
 190 433 190 433 190 353 c 0,34,35
 190 274 190 274 215 218 c 128,-1,36
 240 162 240 162 289 133 c 128,-1,37
 338 104 338 104 409 104 c 0,38,39
 447 104 447 104 484 113.5 c 128,-1,40
 521 123 521 123 554 143 c 0,41,42
 576 156 576 156 593.5 154.5 c 128,-1,43
 611 153 611 153 623 142 c 128,-1,44
 635 131 635 131 639 114.5 c 128,-1,45
 643 98 643 98 637 80.5 c 128,-1,46
 631 63 631 63 613 50 c 0,47,48
 573 21 573 21 517.5 5.5 c 128,-1,49
 462 -10 462 -10 405 -10 c 0,9,10
EndSplineSet
Substitution2: "'locl' Localized Forms in Cyrillic lookup 17 subtable" uni04AA.loclCHU
Substitution2: "'locl' Localized Forms in Cyrillic lookup 16 subtable" uni04AA.loclBSH
AlternateSubs2: "'aalt' Access All Alternates lookup 1 subtable" uni04AA.loclBSH uni04AA.loclCHU
EndChar

StartChar: uni04AC
Encoding: 1196 1196 599
Width: 599
GlyphClass: 1
Flags: W
LayerCount: 2
Fore
SplineSet
406 -173 m 0,0,1
 378 -173 378 -173 363.5 -158 c 128,-1,2
 349 -143 349 -143 349 -115 c 2,3,-1
 349 0 l 1,4,-1
 303 0 l 2,5,6
 270 0 270 0 252.5 17.5 c 128,-1,7
 235 35 235 35 235 68 c 2,8,-1
 235 598 l 1,9,-1
 46 598 l 2,10,11
 19 598 19 598 4.5 612.5 c 128,-1,12
 -10 627 -10 627 -10 652 c 0,13,14
 -10 678 -10 678 4.5 691.5 c 128,-1,15
 19 705 19 705 46 705 c 2,16,-1
 558 705 l 2,17,18
 585 705 585 705 599 691.5 c 128,-1,19
 613 678 613 678 613 652 c 0,20,21
 613 627 613 627 599 612.5 c 128,-1,22
 585 598 585 598 558 598 c 2,23,-1
 363 598 l 1,24,-1
 363 49 l 1,25,-1
 306 103 l 1,26,-1
 404 103 l 2,27,28
 433 103 433 103 448 89.5 c 128,-1,29
 463 76 463 76 463 47 c 2,30,-1
 463 -115 l 2,31,32
 463 -173 463 -173 406 -173 c 0,0,1
EndSplineSet
EndChar

StartChar: uni04B2
Encoding: 1202 1202 602
Width: 688
GlyphClass: 1
Flags: W
LayerCount: 2
Fore
SplineSet
649 -173 m 0,0,1
 621 -173 621 -173 606.5 -158 c 128,-1,2
 592 -143 592 -143 592 -115 c 2,3,-1
 592 16 l 1,4,-1
 607 0 l 1,5,-1
 571 0 l 2,6,7
 552 0 552 0 536.5 5.5 c 128,-1,8
 521 11 521 11 504 34 c 2,9,-1
 314 294 l 1,10,-1
 358 294 l 1,11,-1
 169 34 l 2,12,13
 153 12 153 12 137 2 c 128,-1,14
 121 -8 121 -8 101 -8 c 0,15,16
 76 -8 76 -8 60 5.5 c 128,-1,17
 44 19 44 19 41.5 39.5 c 128,-1,18
 39 60 39 60 55 81 c 2,19,-1
 284 386 l 1,20,-1
 284 331 l 1,21,-1
 66 623 l 2,22,23
 50 645 50 645 52 665.5 c 128,-1,24
 54 686 54 686 70 699.5 c 128,-1,25
 86 713 86 713 110 713 c 0,26,27
 130 713 130 713 145.5 703.5 c 128,-1,28
 161 694 161 694 177 672 c 2,29,-1
 357 424 l 1,30,-1
 316 424 l 1,31,-1
 495 672 l 2,32,33
 511 694 511 694 526.5 703.5 c 128,-1,34
 542 713 542 713 563 713 c 0,35,36
 588 713 588 713 604 700 c 128,-1,37
 620 687 620 687 622 666.5 c 128,-1,38
 624 646 624 646 607 623 c 2,39,-1
 389 331 l 1,40,-1
 389 386 l 1,41,-1
 636 56 l 1,42,-1
 573 103 l 1,43,-1
 645 103 l 2,44,45
 674 103 674 103 690 87.5 c 128,-1,46
 706 72 706 72 706 43 c 2,47,-1
 706 -115 l 2,48,49
 706 -143 706 -143 691 -158 c 128,-1,50
 676 -173 676 -173 649 -173 c 0,0,1
EndSplineSet
EndChar

StartChar: uni04B4
Encoding: 1204 1204 603
Width: 946
GlyphClass: 1
Flags: W
LayerCount: 2
Fore
SplineSet
868 -173 m 0,0,1
 840 -173 840 -173 825 -158 c 128,-1,2
 810 -143 810 -143 810 -115 c 2,3,-1
 810 0 l 1,4,-1
 278 0 l 2,5,6
 245 0 245 0 227.5 17.5 c 128,-1,7
 210 35 210 35 210 68 c 2,8,-1
 210 598 l 1,9,-1
 51 598 l 2,10,11
 24 598 24 598 9.5 612.5 c 128,-1,12
 -5 627 -5 627 -5 652 c 0,13,14
 -5 678 -5 678 9.5 691.5 c 128,-1,15
 24 705 24 705 51 705 c 2,16,-1
 496 705 l 2,17,18
 523 705 523 705 537 691.5 c 128,-1,19
 551 678 551 678 551 652 c 256,20,21
 551 626 551 626 537 612 c 128,-1,22
 523 598 523 598 496 598 c 2,23,-1
 338 598 l 1,24,-1
 338 107 l 1,25,-1
 696 107 l 1,26,-1
 696 643 l 2,27,28
 696 675 696 675 712.5 692 c 128,-1,29
 729 709 729 709 760 709 c 256,30,31
 791 709 791 709 807.5 692 c 128,-1,32
 824 675 824 675 824 643 c 2,33,-1
 824 49 l 1,34,-1
 766 107 l 1,35,-1
 864 107 l 2,36,37
 893 107 893 107 908.5 92 c 128,-1,38
 924 77 924 77 924 48 c 2,39,-1
 924 -115 l 2,40,41
 924 -173 924 -173 868 -173 c 0,0,1
EndSplineSet
EndChar

StartChar: uni04B6
Encoding: 1206 1206 604
Width: 741
GlyphClass: 1
Flags: W
LayerCount: 2
Fore
SplineSet
492 275 m 1,0,1
 465 262 465 262 422.5 254 c 128,-1,2
 380 246 380 246 338 246 c 0,3,4
 247 246 247 246 183 279 c 128,-1,5
 119 312 119 312 86 377.5 c 128,-1,6
 53 443 53 443 53 542 c 2,7,-1
 53 647 l 2,8,9
 53 679 53 679 69.5 696 c 128,-1,10
 86 713 86 713 117 713 c 256,11,12
 148 713 148 713 164.5 696 c 128,-1,13
 181 679 181 679 181 647 c 2,14,-1
 181 548 l 2,15,16
 181 448 181 448 224 402 c 128,-1,17
 267 356 267 356 352 356 c 0,18,19
 388 356 388 356 424.5 363.5 c 128,-1,20
 461 371 461 371 492 387 c 1,21,-1
 492 647 l 2,22,23
 492 679 492 679 508.5 696 c 128,-1,24
 525 713 525 713 556 713 c 256,25,26
 587 713 587 713 603.5 696 c 128,-1,27
 620 679 620 679 620 647 c 2,28,-1
 620 45 l 1,29,-1
 562 103 l 1,30,-1
 660 103 l 2,31,32
 689 103 689 103 704.5 87.5 c 128,-1,33
 720 72 720 72 720 43 c 2,34,-1
 720 -115 l 2,35,36
 720 -143 720 -143 705.5 -158 c 128,-1,37
 691 -173 691 -173 664 -173 c 0,38,39
 636 -173 636 -173 621 -158 c 128,-1,40
 606 -143 606 -143 606 -115 c 2,41,-1
 606 0 l 1,42,-1
 556 0 l 2,43,44
 525 0 525 0 508.5 17.5 c 128,-1,45
 492 35 492 35 492 66 c 2,46,-1
 492 275 l 1,0,1
EndSplineSet
EndChar

StartChar: uni04B8
Encoding: 1208 1208 605
Width: 696
GlyphClass: 1
Flags: W
LayerCount: 2
Fore
SplineSet
556 -8 m 0,0,1
 525 -8 525 -8 508.5 9.5 c 128,-1,2
 492 27 492 27 492 58 c 2,3,-1
 492 275 l 1,4,5
 466 262 466 262 429.5 255 c 128,-1,6
 393 248 393 248 360 247 c 1,7,-1
 388 264 l 1,8,-1
 388 148 l 2,9,10
 388 98 388 98 342 98 c 0,11,12
 320 98 320 98 308 110.5 c 128,-1,13
 296 123 296 123 296 148 c 2,14,-1
 296 264 l 1,15,-1
 320 246 l 1,16,17
 236 250 236 250 176.5 282.5 c 128,-1,18
 117 315 117 315 85 379 c 128,-1,19
 53 443 53 443 53 542 c 2,20,-1
 53 647 l 2,21,22
 53 679 53 679 69.5 696 c 128,-1,23
 86 713 86 713 117 713 c 256,24,25
 148 713 148 713 164.5 696 c 128,-1,26
 181 679 181 679 181 647 c 2,27,-1
 181 548 l 2,28,29
 181 455 181 455 219 408.5 c 128,-1,30
 257 362 257 362 330 357 c 1,31,-1
 296 346 l 1,32,-1
 296 480 l 2,33,34
 296 530 296 530 342 530 c 0,35,36
 365 530 365 530 376.5 517.5 c 128,-1,37
 388 505 388 505 388 480 c 2,38,-1
 388 346 l 1,39,-1
 353 356 l 1,40,41
 388 356 388 356 426 363.5 c 128,-1,42
 464 371 464 371 492 387 c 1,43,-1
 492 647 l 2,44,45
 492 679 492 679 508.5 696 c 128,-1,46
 525 713 525 713 556 713 c 256,47,48
 587 713 587 713 603.5 696 c 128,-1,49
 620 679 620 679 620 647 c 2,50,-1
 620 58 l 2,51,52
 620 27 620 27 604 9.5 c 128,-1,53
 588 -8 588 -8 556 -8 c 0,0,1
EndSplineSet
EndChar

StartChar: uni04BA
Encoding: 1210 1210 606
Width: 696
GlyphClass: 2
Flags: W
LayerCount: 2
Fore
SplineSet
141 -8 m 256,0,1
 110 -8 110 -8 93.5 9.5 c 128,-1,2
 77 27 77 27 77 58 c 2,3,-1
 77 647 l 2,4,5
 77 679 77 679 93.5 696 c 128,-1,6
 110 713 110 713 141 713 c 256,7,8
 172 713 172 713 188.5 696 c 128,-1,9
 205 679 205 679 205 647 c 2,10,-1
 205 430 l 1,11,12
 232 444 232 444 274 451.5 c 128,-1,13
 316 459 316 459 358 459 c 0,14,15
 450 459 450 459 514 426.5 c 128,-1,16
 578 394 578 394 611 328.5 c 128,-1,17
 644 263 644 263 644 163 c 2,18,-1
 644 58 l 2,19,20
 644 27 644 27 627 9.5 c 128,-1,21
 610 -8 610 -8 579 -8 c 256,22,23
 548 -8 548 -8 532 9.5 c 128,-1,24
 516 27 516 27 516 58 c 2,25,-1
 516 157 l 2,26,27
 516 259 516 259 472.5 304 c 128,-1,28
 429 349 429 349 344 349 c 0,29,30
 308 349 308 349 272 342.5 c 128,-1,31
 236 336 236 336 205 319 c 1,32,-1
 205 58 l 2,33,34
 205 27 205 27 188.5 9.5 c 128,-1,35
 172 -8 172 -8 141 -8 c 256,0,1
EndSplineSet
EndChar

StartChar: uni0526
Encoding: 1318 1318 607
Width: 741
GlyphClass: 1
Flags: W
LayerCount: 2
Fore
SplineSet
516 157 m 2,0,1
 516 259 516 259 472.5 304 c 128,-1,2
 429 349 429 349 344 349 c 0,3,4
 308 349 308 349 272 342.5 c 128,-1,5
 236 336 236 336 205 319 c 1,6,-1
 205 58 l 2,7,8
 205 27 205 27 188.5 9.5 c 128,-1,9
 172 -8 172 -8 141 -8 c 256,10,11
 110 -8 110 -8 93.5 9.5 c 128,-1,12
 77 27 77 27 77 58 c 2,13,-1
 77 647 l 2,14,15
 77 679 77 679 93.5 696 c 128,-1,16
 110 713 110 713 141 713 c 256,17,18
 172 713 172 713 188.5 696 c 128,-1,19
 205 679 205 679 205 647 c 2,20,-1
 205 430 l 1,21,22
 232 444 232 444 274 451.5 c 128,-1,23
 316 459 316 459 358 459 c 0,24,25
 450 459 450 459 514 426.5 c 128,-1,26
 578 394 578 394 611 328.5 c 128,-1,27
 644 263 644 263 644 163 c 2,28,-1
 644 45 l 1,29,-1
 586 103 l 1,30,-1
 684 103 l 2,31,32
 713 103 713 103 728.5 87.5 c 128,-1,33
 744 72 744 72 744 43 c 2,34,-1
 744 -115 l 2,35,36
 744 -143 744 -143 729.5 -158 c 128,-1,37
 715 -173 715 -173 688 -173 c 0,38,39
 660 -173 660 -173 645 -158 c 128,-1,40
 630 -143 630 -143 630 -115 c 2,41,-1
 630 0 l 1,42,-1
 580 0 l 2,43,44
 549 0 549 0 532.5 17.5 c 128,-1,45
 516 35 516 35 516 66 c 2,46,-1
 516 157 l 2,0,1
EndSplineSet
EndChar

StartChar: uni04BC
Encoding: 1212 1212 608
Width: 963
GlyphClass: 2
Flags: W
AnchorPoint: "Anchor-3" 665 0 basechar 0
LayerCount: 2
Fore
SplineSet
615 -10 m 0,0,1
 497 -10 497 -10 412 32.5 c 128,-1,2
 327 75 327 75 280 153.5 c 128,-1,3
 233 232 233 232 231 341 c 1,4,-1
 253 299 l 1,5,-1
 206 299 l 2,6,7
 142 299 142 299 99 322 c 128,-1,8
 56 345 56 345 35 383.5 c 128,-1,9
 14 422 14 422 14 470 c 2,10,-1
 14 493 l 2,11,12
 14 554 14 554 79 554 c 0,13,14
 115 554 115 554 128 539.5 c 128,-1,15
 141 525 141 525 141 503 c 0,16,17
 141 493 141 493 141 484.5 c 128,-1,18
 141 476 141 476 142 469 c 0,19,20
 147 431 147 431 167 417 c 128,-1,21
 187 403 187 403 222 403 c 2,22,-1
 253 403 l 1,23,-1
 231 359 l 1,24,25
 233 440 233 440 257.5 505.5 c 128,-1,26
 282 571 282 571 327.5 618 c 128,-1,27
 373 665 373 665 436 690 c 128,-1,28
 499 715 499 715 577 715 c 0,29,30
 646 715 646 715 700 696 c 128,-1,31
 754 677 754 677 793.5 643 c 128,-1,32
 833 609 833 609 858.5 564 c 128,-1,33
 884 519 884 519 896.5 467 c 128,-1,34
 909 415 909 415 909 360 c 0,35,36
 909 336 909 336 901.5 323 c 128,-1,37
 894 310 894 310 879 304.5 c 128,-1,38
 864 299 864 299 840 299 c 2,39,-1
 350 299 l 1,40,-1
 366 344 l 1,41,42
 368 265 368 265 397 210.5 c 128,-1,43
 426 156 426 156 482 128 c 128,-1,44
 538 100 538 100 620 100 c 0,45,46
 667 100 667 100 711.5 110 c 128,-1,47
 756 120 756 120 799 144 c 0,48,49
 821 156 821 156 838 153.5 c 128,-1,50
 855 151 855 151 865.5 138.5 c 128,-1,51
 876 126 876 126 878 108.5 c 128,-1,52
 880 91 880 91 872 74 c 128,-1,53
 864 57 864 57 844 46 c 0,54,55
 796 19 796 19 738 4.5 c 128,-1,56
 680 -10 680 -10 615 -10 c 0,0,1
580 610 m 256,57,58
 513 610 513 610 464.5 580.5 c 128,-1,59
 416 551 416 551 390.5 493.5 c 128,-1,60
 365 436 365 436 364 353 c 1,61,-1
 350 403 l 1,62,-1
 812 403 l 1,63,-1
 783 352 l 1,64,65
 783 438 783 438 760 495 c 128,-1,66
 737 552 737 552 692 581 c 128,-1,67
 647 610 647 610 580 610 c 256,57,58
EndSplineSet
EndChar

StartChar: uni04C3
Encoding: 1219 1219 612
Width: 700
GlyphClass: 1
Flags: W
LayerCount: 2
Fore
SplineSet
423 -190 m 0,0,1
 404 -190 404 -190 379 -187.5 c 128,-1,2
 354 -185 354 -185 334 -181 c 0,3,4
 314 -176 314 -176 304 -164 c 128,-1,5
 294 -152 294 -152 293 -136.5 c 128,-1,6
 292 -121 292 -121 298.5 -107.5 c 128,-1,7
 305 -94 305 -94 317.5 -86 c 128,-1,8
 330 -78 330 -78 348 -82 c 0,9,10
 362 -85 362 -85 376 -86.5 c 128,-1,11
 390 -88 390 -88 406 -88 c 0,12,13
 459 -88 459 -88 489.5 -51.5 c 128,-1,14
 520 -15 520 -15 520 55 c 2,15,-1
 520 109 l 2,16,17
 520 176 520 176 498.5 219.5 c 128,-1,18
 477 263 477 263 435 284 c 128,-1,19
 393 305 393 305 329 305 c 2,20,-1
 205 305 l 1,21,-1
 205 58 l 2,22,23
 205 27 205 27 189 9.5 c 128,-1,24
 173 -8 173 -8 141 -8 c 0,25,26
 110 -8 110 -8 93.5 9.5 c 128,-1,27
 77 27 77 27 77 58 c 2,28,-1
 77 648 l 2,29,30
 77 680 77 680 93.5 696.5 c 128,-1,31
 110 713 110 713 141 713 c 256,32,33
 172 713 172 713 188.5 696.5 c 128,-1,34
 205 680 205 680 205 648 c 2,35,-1
 205 412 l 1,36,-1
 333 412 l 1,37,-1
 301 389 l 1,38,-1
 485 680 l 2,39,40
 499 701 499 701 517.5 708 c 128,-1,41
 536 715 536 715 554 711 c 128,-1,42
 572 707 572 707 585 694 c 128,-1,43
 598 681 598 681 599.5 662 c 128,-1,44
 601 643 601 643 587 621 c 2,45,-1
 419 364 l 1,46,-1
 398 407 l 1,47,48
 480 400 480 400 535.5 365.5 c 128,-1,49
 591 331 591 331 619.5 268.5 c 128,-1,50
 648 206 648 206 648 115 c 2,51,-1
 648 60 l 2,52,53
 648 -20 648 -20 620.5 -76 c 128,-1,54
 593 -132 593 -132 542.5 -161 c 128,-1,55
 492 -190 492 -190 423 -190 c 0,0,1
EndSplineSet
EndChar

StartChar: uni04C5
Encoding: 1221 1221 613
Width: 778
GlyphClass: 1
Flags: W
LayerCount: 2
Fore
SplineSet
715 -135 m 2,0,1
 708 -154 708 -154 694 -163.5 c 128,-1,2
 680 -173 680 -173 663.5 -173.5 c 128,-1,3
 647 -174 647 -174 633.5 -166.5 c 128,-1,4
 620 -159 620 -159 614 -143.5 c 128,-1,5
 608 -128 608 -128 615 -106 c 2,6,-1
 655 15 l 1,7,-1
 663 0 l 1,8,-1
 611 0 l 2,9,10
 580 0 580 0 563.5 13.5 c 128,-1,11
 547 27 547 27 547 58 c 2,12,-1
 547 598 l 1,13,-1
 295 598 l 1,14,-1
 295 458 l 2,15,16
 295 367 295 367 283 296 c 128,-1,17
 271 225 271 225 248.5 170 c 128,-1,18
 226 115 226 115 192.5 74 c 128,-1,19
 159 33 159 33 116 3 c 0,20,21
 94 -13 94 -13 71 -8.5 c 128,-1,22
 48 -4 48 -4 31 18 c 0,23,24
 15 41 15 41 20.5 63 c 128,-1,25
 26 85 26 85 49 101 c 0,26,27
 81 123 81 123 105 155 c 128,-1,28
 129 187 129 187 145 233 c 128,-1,29
 161 279 161 279 169 342.5 c 128,-1,30
 177 406 177 406 177 491 c 2,31,-1
 177 637 l 2,32,33
 177 670 177 670 194.5 687.5 c 128,-1,34
 212 705 212 705 245 705 c 2,35,-1
 607 705 l 2,36,37
 640 705 640 705 657.5 687.5 c 128,-1,38
 675 670 675 670 675 637 c 2,39,-1
 675 75 l 1,40,-1
 646 103 l 1,41,-1
 714 103 l 2,42,43
 751 103 751 103 766 83.5 c 128,-1,44
 781 64 781 64 770 29 c 2,45,-1
 715 -135 l 2,0,1
EndSplineSet
EndChar

StartChar: uni04C7
Encoding: 1223 1223 614
Width: 773
GlyphClass: 1
Flags: W
LayerCount: 2
Fore
SplineSet
499 -190 m 0,0,1
 471 -192 471 -192 457 -179 c 128,-1,2
 443 -166 443 -166 441.5 -148 c 128,-1,3
 440 -130 440 -130 450 -115 c 128,-1,4
 460 -100 460 -100 480 -98 c 0,5,6
 524 -95 524 -95 546 -74 c 128,-1,7
 568 -53 568 -53 568 -7 c 2,8,-1
 568 304 l 1,9,-1
 205 304 l 1,10,-1
 205 58 l 2,11,12
 205 27 205 27 189 9.5 c 128,-1,13
 173 -8 173 -8 141 -8 c 0,14,15
 110 -8 110 -8 93.5 9.5 c 128,-1,16
 77 27 77 27 77 58 c 2,17,-1
 77 647 l 2,18,19
 77 679 77 679 93.5 696 c 128,-1,20
 110 713 110 713 141 713 c 256,21,22
 172 713 172 713 188.5 696 c 128,-1,23
 205 679 205 679 205 647 c 2,24,-1
 205 411 l 1,25,-1
 568 411 l 1,26,-1
 568 647 l 2,27,28
 568 679 568 679 584.5 696 c 128,-1,29
 601 713 601 713 632 713 c 256,30,31
 663 713 663 713 679.5 696 c 128,-1,32
 696 679 696 679 696 647 c 2,33,-1
 696 3 l 2,34,35
 696 -63 696 -63 674 -104 c 128,-1,36
 652 -145 652 -145 608 -165 c 128,-1,37
 564 -185 564 -185 499 -190 c 0,0,1
EndSplineSet
EndChar

StartChar: uni04C9
Encoding: 1225 1225 615
Width: 799
GlyphClass: 1
Flags: W
LayerCount: 2
Fore
SplineSet
736 -135 m 2,0,1
 729 -154 729 -154 715 -163.5 c 128,-1,2
 701 -173 701 -173 684.5 -173.5 c 128,-1,3
 668 -174 668 -174 654.5 -166.5 c 128,-1,4
 641 -159 641 -159 635 -143.5 c 128,-1,5
 629 -128 629 -128 636 -106 c 2,6,-1
 676 15 l 1,7,-1
 684 0 l 1,8,-1
 632 0 l 2,9,10
 601 0 601 0 584.5 13.5 c 128,-1,11
 568 27 568 27 568 58 c 2,12,-1
 568 304 l 1,13,-1
 205 304 l 1,14,-1
 205 58 l 2,15,16
 205 27 205 27 189 9.5 c 128,-1,17
 173 -8 173 -8 141 -8 c 0,18,19
 110 -8 110 -8 93.5 9.5 c 128,-1,20
 77 27 77 27 77 58 c 2,21,-1
 77 647 l 2,22,23
 77 679 77 679 93.5 696 c 128,-1,24
 110 713 110 713 141 713 c 256,25,26
 172 713 172 713 188.5 696 c 128,-1,27
 205 679 205 679 205 647 c 2,28,-1
 205 411 l 1,29,-1
 568 411 l 1,30,-1
 568 647 l 2,31,32
 568 679 568 679 584.5 696 c 128,-1,33
 601 713 601 713 632 713 c 256,34,35
 663 713 663 713 679.5 696 c 128,-1,36
 696 679 696 679 696 647 c 2,37,-1
 696 45 l 1,38,-1
 638 103 l 1,39,-1
 735 103 l 2,40,41
 772 103 772 103 787 83.5 c 128,-1,42
 802 64 802 64 791 29 c 2,43,-1
 736 -135 l 2,0,1
EndSplineSet
EndChar

StartChar: uni04CB
Encoding: 1227 1227 616
Width: 712
GlyphClass: 1
Flags: W
LayerCount: 2
Fore
SplineSet
448 -173 m 0,0,1
 421 -173 421 -173 406.5 -158 c 128,-1,2
 392 -143 392 -143 392 -115 c 2,3,-1
 392 43 l 2,4,5
 392 72 392 72 408 87.5 c 128,-1,6
 424 103 424 103 452 103 c 2,7,-1
 550 103 l 1,8,-1
 492 45 l 1,9,-1
 492 275 l 1,10,11
 465 262 465 262 422.5 254 c 128,-1,12
 380 246 380 246 338 246 c 0,13,14
 247 246 247 246 183 279 c 128,-1,15
 119 312 119 312 86 377.5 c 128,-1,16
 53 443 53 443 53 542 c 2,17,-1
 53 647 l 2,18,19
 53 679 53 679 69.5 696 c 128,-1,20
 86 713 86 713 117 713 c 256,21,22
 148 713 148 713 164.5 696 c 128,-1,23
 181 679 181 679 181 647 c 2,24,-1
 181 548 l 2,25,26
 181 448 181 448 224 402 c 128,-1,27
 267 356 267 356 352 356 c 0,28,29
 388 356 388 356 424.5 363.5 c 128,-1,30
 461 371 461 371 492 387 c 1,31,-1
 492 647 l 2,32,33
 492 679 492 679 508.5 696 c 128,-1,34
 525 713 525 713 556 713 c 256,35,36
 587 713 587 713 603.5 696 c 128,-1,37
 620 679 620 679 620 647 c 2,38,-1
 620 66 l 2,39,40
 620 35 620 35 603.5 17.5 c 128,-1,41
 587 0 587 0 556 0 c 2,42,-1
 506 0 l 1,43,-1
 506 -115 l 2,44,45
 506 -143 506 -143 491 -158 c 128,-1,46
 476 -173 476 -173 448 -173 c 0,0,1
EndSplineSet
EndChar

StartChar: uni04CD
Encoding: 1229 1229 617
Width: 895
GlyphClass: 1
Flags: W
LayerCount: 2
Fore
SplineSet
830 -135 m 2,0,1
 823 -154 823 -154 809 -163.5 c 128,-1,2
 795 -173 795 -173 778.5 -173.5 c 128,-1,3
 762 -174 762 -174 748.5 -166.5 c 128,-1,4
 735 -159 735 -159 729 -143.5 c 128,-1,5
 723 -128 723 -128 730 -106 c 2,6,-1
 770 15 l 1,7,-1
 778 0 l 1,8,-1
 738 0 l 2,9,10
 707 0 707 0 690.5 13.5 c 128,-1,11
 674 27 674 27 674 58 c 2,12,-1
 674 515 l 1,13,-1
 696 515 l 1,14,-1
 486 132 l 2,15,16
 476 115 476 115 465 107 c 128,-1,17
 454 99 454 99 435 99 c 256,18,19
 416 99 416 99 404 107.5 c 128,-1,20
 392 116 392 116 383 132 c 2,21,-1
 171 516 l 1,22,-1
 195 516 l 1,23,-1
 195 52 l 2,24,25
 195 24 195 24 180.5 8 c 128,-1,26
 166 -8 166 -8 137 -8 c 0,27,28
 109 -8 109 -8 94 8 c 128,-1,29
 79 24 79 24 79 52 c 2,30,-1
 79 653 l 2,31,32
 79 682 79 682 95 697.5 c 128,-1,33
 111 713 111 713 139 713 c 0,34,35
 164 713 164 713 178.5 703.5 c 128,-1,36
 193 694 193 694 205 671 c 2,37,-1
 452 214 l 1,38,-1
 420 214 l 1,39,-1
 666 671 l 2,40,41
 679 694 679 694 693 703.5 c 128,-1,42
 707 713 707 713 732 713 c 0,43,44
 760 713 760 713 775 697.5 c 128,-1,45
 790 682 790 682 790 653 c 2,46,-1
 790 75 l 1,47,-1
 761 103 l 1,48,-1
 829 103 l 2,49,50
 866 103 866 103 881 83.5 c 128,-1,51
 896 64 896 64 885 29 c 2,52,-1
 830 -135 l 2,0,1
EndSplineSet
EndChar

StartChar: uni04E0
Encoding: 1248 1248 626
Width: 635
GlyphClass: 1
Flags: W
LayerCount: 2
Fore
SplineSet
304 -10 m 0,0,1
 231 -10 231 -10 169 6.5 c 128,-1,2
 107 23 107 23 63 52 c 0,3,4
 45 64 45 64 38 81 c 128,-1,5
 31 98 31 98 34 114 c 128,-1,6
 37 130 37 130 47.5 141.5 c 128,-1,7
 58 153 58 153 74.5 155.5 c 128,-1,8
 91 158 91 158 111 146 c 0,9,10
 152 123 152 123 197 110.5 c 128,-1,11
 242 98 242 98 294 98 c 0,12,13
 350 98 350 98 385.5 110 c 128,-1,14
 421 122 421 122 438.5 146 c 128,-1,15
 456 170 456 170 456 205 c 256,16,17
 456 240 456 240 441 262.5 c 128,-1,18
 426 285 426 285 392.5 296 c 128,-1,19
 359 307 359 307 304 307 c 2,20,-1
 226 307 l 2,21,22
 208 307 208 307 197 315.5 c 128,-1,23
 186 324 186 324 182 338 c 128,-1,24
 178 352 178 352 183 368 c 128,-1,25
 188 384 188 384 202 399 c 2,26,-1
 428 630 l 1,27,-1
 428 599 l 1,28,-1
 94 599 l 2,29,30
 67 599 67 599 52.5 613 c 128,-1,31
 38 627 38 627 38 652 c 0,32,33
 38 678 38 678 52.5 691.5 c 128,-1,34
 67 705 67 705 94 705 c 2,35,-1
 510 705 l 2,36,37
 530 705 530 705 543 695.5 c 128,-1,38
 556 686 556 686 560 670.5 c 128,-1,39
 564 655 564 655 558.5 636.5 c 128,-1,40
 553 618 553 618 536 601 c 2,41,-1
 314 374 l 1,42,-1
 287 406 l 1,43,-1
 344 406 l 2,44,45
 420 406 420 406 473 382.5 c 128,-1,46
 526 359 526 359 554 315 c 128,-1,47
 582 271 582 271 582 209 c 0,48,49
 582 141 582 141 552 91.5 c 128,-1,50
 522 42 522 42 460.5 16 c 128,-1,51
 399 -10 399 -10 304 -10 c 0,0,1
EndSplineSet
EndChar

StartChar: uni04E8
Encoding: 1256 1256 630
Width: 786
GlyphClass: 2
Flags: W
AnchorPoint: "Anchor-5" 393 353 basechar 0
AnchorPoint: "Anchor-3" 452 0 basechar 0
AnchorPoint: "Anchor-2" 392 0 basechar 0
AnchorPoint: "Anchor-1" 461 705 basechar 0
AnchorPoint: "Anchor-0" 390 705 basechar 0
LayerCount: 2
Fore
SplineSet
129 310 m 1,0,-1
 129 406 l 1,1,-1
 659 406 l 1,2,-1
 659 310 l 1,3,-1
 129 310 l 1,0,-1
393 -10 m 0,4,5
 291 -10 291 -10 214.5 35 c 128,-1,6
 138 80 138 80 96 161.5 c 128,-1,7
 54 243 54 243 54 353 c 0,8,9
 54 436 54 436 78 502.5 c 128,-1,10
 102 569 102 569 146.5 616.5 c 128,-1,11
 191 664 191 664 253.5 689.5 c 128,-1,12
 316 715 316 715 393 715 c 0,13,14
 496 715 496 715 572 670.5 c 128,-1,15
 648 626 648 626 690 545 c 128,-1,16
 732 464 732 464 732 354 c 0,17,18
 732 271 732 271 708 204 c 128,-1,19
 684 137 684 137 639.5 89 c 128,-1,20
 595 41 595 41 532.5 15.5 c 128,-1,21
 470 -10 470 -10 393 -10 c 0,4,5
393 100 m 0,22,23
 458 100 458 100 503.5 130 c 128,-1,24
 549 160 549 160 573.5 217 c 128,-1,25
 598 274 598 274 598 353 c 0,26,27
 598 473 598 473 544.5 539 c 128,-1,28
 491 605 491 605 393 605 c 0,29,30
 329 605 329 605 283 575.5 c 128,-1,31
 237 546 237 546 212.5 489.5 c 128,-1,32
 188 433 188 433 188 353 c 0,33,34
 188 234 188 234 242 167 c 128,-1,35
 296 100 296 100 393 100 c 0,22,23
EndSplineSet
EndChar

StartChar: uni04FA
Encoding: 1274 1274 638
Width: 601
GlyphClass: 1
Flags: W
LayerCount: 2
Fore
SplineSet
129 -182 m 2,0,1
 106 -183 106 -183 92.5 -173 c 128,-1,2
 79 -163 79 -163 77 -143 c 0,3,4
 76 -123 76 -123 86 -110 c 128,-1,5
 96 -97 96 -97 121 -95 c 2,6,-1
 132 -94 l 2,7,8
 185 -89 185 -89 207.5 -66 c 128,-1,9
 230 -43 230 -43 230 0 c 1,10,-1
 178 0 l 2,11,12
 150 0 150 0 134.5 15.5 c 128,-1,13
 119 31 119 31 119 60 c 2,14,-1
 119 301 l 1,15,-1
 74 301 l 2,16,17
 50 301 50 301 37 313.5 c 128,-1,18
 24 326 24 326 24 348 c 0,19,20
 24 371 24 371 37 382.5 c 128,-1,21
 50 394 50 394 74 394 c 2,22,-1
 119 394 l 1,23,-1
 119 639 l 2,24,25
 119 671 119 671 136 688 c 128,-1,26
 153 705 153 705 185 705 c 2,27,-1
 538 705 l 2,28,29
 565 705 565 705 579 691.5 c 128,-1,30
 593 678 593 678 593 652 c 0,31,32
 593 627 593 627 579 612.5 c 128,-1,33
 565 598 565 598 538 598 c 2,34,-1
 247 598 l 1,35,-1
 247 394 l 1,36,-1
 377 394 l 2,37,38
 401 394 401 394 414 382.5 c 128,-1,39
 427 371 427 371 427 348 c 0,40,41
 427 326 427 326 414 313.5 c 128,-1,42
 401 301 401 301 377 301 c 2,43,-1
 247 301 l 1,44,-1
 247 45 l 1,45,-1
 189 103 l 1,46,-1
 288 103 l 2,47,48
 317 103 317 103 332 88 c 128,-1,49
 347 73 347 73 347 44 c 2,50,-1
 347 25 l 2,51,52
 347 -41 347 -41 325.5 -86 c 128,-1,53
 304 -131 304 -131 260.5 -154.5 c 128,-1,54
 217 -178 217 -178 150 -181 c 2,55,-1
 129 -182 l 2,0,1
EndSplineSet
EndChar

StartChar: uni04FC
Encoding: 1276 1276 639
Width: 672
GlyphClass: 1
Flags: W
LayerCount: 2
Fore
SplineSet
466 -179 m 0,0,1
 438 -185 438 -185 417.5 -173.5 c 128,-1,2
 397 -162 397 -162 392 -137 c 0,3,4
 387 -111 387 -111 397 -97 c 128,-1,5
 407 -83 407 -83 427 -79 c 0,6,7
 468 -70 468 -70 483.5 -50 c 128,-1,8
 499 -30 499 -30 499 3 c 0,9,10
 499 21 499 21 487 47.5 c 128,-1,11
 475 74 475 74 449 109 c 2,12,-1
 314 294 l 1,13,-1
 358 294 l 1,14,-1
 169 34 l 2,15,16
 153 12 153 12 137 2 c 128,-1,17
 121 -8 121 -8 101 -8 c 0,18,19
 76 -8 76 -8 60 5.5 c 128,-1,20
 44 19 44 19 41.5 39.5 c 128,-1,21
 39 60 39 60 55 81 c 2,22,-1
 284 386 l 1,23,-1
 284 331 l 1,24,-1
 66 623 l 2,25,26
 50 645 50 645 52 665.5 c 128,-1,27
 54 686 54 686 70 699.5 c 128,-1,28
 86 713 86 713 110 713 c 0,29,30
 131 713 131 713 146 703.5 c 128,-1,31
 161 694 161 694 177 672 c 2,32,-1
 357 424 l 1,33,-1
 316 424 l 1,34,-1
 495 672 l 2,35,36
 511 694 511 694 526.5 703.5 c 128,-1,37
 542 713 542 713 563 713 c 0,38,39
 588 713 588 713 604 700 c 128,-1,40
 620 687 620 687 622 666.5 c 128,-1,41
 624 646 624 646 607 623 c 2,42,-1
 389 331 l 1,43,-1
 389 386 l 1,44,-1
 559 158 l 2,45,46
 598 106 598 106 614.5 64.5 c 128,-1,47
 631 23 631 23 631 -12 c 0,48,49
 631 -77 631 -77 591.5 -119 c 128,-1,50
 552 -161 552 -161 466 -179 c 0,0,1
EndSplineSet
EndChar

